<svg width="30" height="30" viewBox="0 0 30 30" fill="none" xmlns="http://www.w3.org/2000/svg">
    <path d="M22.258 22.875c-.388 3.227-4.714 5.74-9.48 5.71-1.27-.008-2.422-.02-3.5-.28a1.086 1.086 0 0 1-.455-.235l-.028-.024c-.452-.408-.677-.964-.677-1.67 0-.299.034-.59.102-.876.068-.285.158-.563.267-.834l2.967-7.786c.464.005.935 0 1.417-.02 8.164-.326 9.742 3.063 9.387 6.015zM3.41 11.877c-1.232-.788-2.046-2.532-2.046-3.968 0-3.382 3.402-6.124 7.599-6.124 2.81 0 5.327 1.14 6.646 2.963l-3.345 8.678c-2.316-.052-6.924-.315-8.854-1.55zm16.688 3.157c-1.7-1.019-3.912-1.597-6.457-1.597 0 0-.325.005-.862-.001l3.386-8.805 3.933 10.403zm2.676 13.948H30a3.292 3.292 0 0 1-1.745-1.262 8.245 8.245 0 0 1-1.047-1.914L17.396.11l-1.425 3.696-.338-.262c-1.706-1.392-3.604-2.244-6.18-2.244C4.231 1.301 0 4.824 0 9.17c0 2.968 1.763 5.785 4.82 6.758 1.522.485 3.663.871 6.117.943L7.46 25.887c-.247.598-.657 1.209-1.232 1.833-.575.624-1.177 1.045-1.806 1.262H7.11c2.988.03 4.56.13 5.902.13 6.352 0 9.79-2.598 10.33-6.008.245.647.467 1.263.663 1.847.273.814.41 1.37.41 1.67 0 .488-.157.963-.471 1.425-.316.461-.706.773-1.17.936z" fill="#fff"/>
</svg>
