<svg width="126" height="58" viewBox="0 0 126 58" fill="none" xmlns="http://www.w3.org/2000/svg">
    <g clip-path="url(#jk1olcz32a)" fill="#fff">
        <path d="M100.785 8.397v12.45c0 .736.078 1.435.235 2.098.156.663.414 1.247.775 1.75.361.503.817.902 1.37 1.197.553.295 1.227.442 2.02.442a5.31 5.31 0 0 0 1.28-.166c.445-.11.866-.27 1.263-.479a5.27 5.27 0 0 0 1.1-.773c.336-.307.589-.669.757-1.087-.385.492-.89.884-1.515 1.179-.625.295-1.238.442-1.839.442a3.163 3.163 0 0 1-1.425-.313 3.152 3.152 0 0 1-1.064-.847 3.91 3.91 0 0 1-.667-1.234 4.613 4.613 0 0 1-.234-1.473V8.397h3.246V7.92h-3.246V.552c-.721.271-1.244.719-1.569 1.345a4.37 4.37 0 0 0-.487 2.044v3.978h-1.479v.478h1.479zm-18.412 4.549a8.211 8.211 0 0 1 1.37-2.339 7.123 7.123 0 0 1 2.038-1.675 5.124 5.124 0 0 1 2.506-.645c.65 0 1.292.105 1.93.313a5.613 5.613 0 0 1 1.695.884c.492.38.89.86 1.19 1.436.3.578.45 1.234.45 1.97 0 .713-.192 1.333-.576 1.86-.385.529-.962.793-1.731.793h-9.377c0-.86.168-1.725.505-2.597zm-2.038 8.158a8.997 8.997 0 0 0 1.821 2.873c.77.81 1.683 1.449 2.741 1.915 1.058.466 2.212.7 3.462.7a8.164 8.164 0 0 0 4.166-1.16 7.226 7.226 0 0 0 1.695-1.4 6.03 6.03 0 0 0 1.136-1.86c-.265.54-.661.994-1.19 1.363a7.78 7.78 0 0 1-1.731.902c-.626.234-1.269.4-1.93.497-.661.099-1.268.148-1.821.148-1.25 0-2.314-.264-3.192-.792a6.395 6.395 0 0 1-2.127-2.063c-.541-.847-.933-1.81-1.173-2.89a15.04 15.04 0 0 1-.36-3.279H95.32c0-1.006-.139-1.994-.415-2.965a8.44 8.44 0 0 0-1.226-2.596 6.12 6.12 0 0 0-2.038-1.823c-.817-.454-1.78-.682-2.885-.682-1.442 0-2.723.228-3.84.682a7.828 7.828 0 0 0-2.85 1.952c-.782.847-1.377 1.854-1.785 3.02-.41 1.166-.613 2.474-.613 3.922 0 1.252.222 2.431.667 3.536zm-17.673 4.31c1.01.319 2.121.583 3.336.79 1.213.21 2.35.314 3.408.314.793 0 1.574-.086 2.344-.258a5.965 5.965 0 0 0 2.056-.865 4.696 4.696 0 0 0 1.46-1.584c.373-.65.56-1.455.56-2.412 0-1.007-.29-1.83-.866-2.468-.577-.638-1.293-1.179-2.146-1.62a20.338 20.338 0 0 0-2.795-1.18 23.771 23.771 0 0 1-2.795-1.14c-.854-.418-1.569-.915-2.146-1.492s-.865-1.308-.865-2.192c0-.565.144-1.05.432-1.455a3.67 3.67 0 0 1 1.1-1.013c.445-.27.932-.472 1.46-.607a6.014 6.014 0 0 1 1.48-.203c.649 0 1.303.11 1.965.332.661.22 1.274.522 1.84.902a6.413 6.413 0 0 1 1.478 1.381 5.9 5.9 0 0 1 .956 1.805V8.987c-.313-.148-.746-.295-1.299-.442a51.388 51.388 0 0 0-1.713-.424c-.59-.134-1.16-.24-1.713-.313-.553-.073-1.01-.11-1.37-.11a7.47 7.47 0 0 0-2.2.331 5.694 5.694 0 0 0-1.894.976 4.99 4.99 0 0 0-1.316 1.602c-.337.639-.505 1.388-.505 2.247 0 1.031.289 1.885.866 2.56a7.533 7.533 0 0 0 2.146 1.712c.853.467 1.779.872 2.777 1.216.997.344 1.923.712 2.777 1.105.853.393 1.568.84 2.145 1.344.578.503.866 1.148.866 1.933 0 .688-.186 1.247-.559 1.676-.373.43-.83.762-1.37.995a6.223 6.223 0 0 1-1.75.46c-.625.074-1.19.11-1.695.11-1.514 0-2.837-.472-3.967-1.417a8.348 8.348 0 0 1-2.488-3.518v4.383zm-15.672.92c-.721-.27-1.208-.687-1.46-1.252-.253-.565-.379-1.216-.379-1.952l-.036-15.211-3.318 2.467c.289 0 .517.087.685.258.168.172.294.387.379.645.084.258.144.522.18.792.036.27.054.515.054.736V23.13c0 .736-.126 1.387-.378 1.952-.253.565-.74.982-1.461 1.252h5.734zM48.613 9.3a5.996 5.996 0 0 1 2.633-.608c.721 0 1.328.142 1.821.424.493.282.896.663 1.208 1.141.313.48.535 1.026.668 1.64.132.613.198 1.24.198 1.878v9.355c0 .712-.126 1.362-.379 1.952-.252.589-.74 1.007-1.46 1.252h5.77c-.721-.245-1.214-.657-1.479-1.234-.264-.577-.396-1.234-.396-1.97v-8.913c0-.835-.097-1.64-.289-2.413a5.962 5.962 0 0 0-.92-2.044 4.813 4.813 0 0 0-1.586-1.418c-.638-.355-1.413-.534-2.327-.534-1.13 0-2.2.276-3.21.829a8.53 8.53 0 0 0-2.56 2.118A11.74 11.74 0 0 1 48.613 9.3zm-15.022 1.27c.529.025.877.228 1.046.608.168.381.252.805.252 1.27v13.886l3.318-2.468c-.288 0-.517-.086-.685-.258a1.618 1.618 0 0 1-.378-.644 4.397 4.397 0 0 1-.18-.792 5.616 5.616 0 0 1-.055-.736V7.919l-3.318 2.651zm-12.19 0c.529.025.877.234 1.046.627.168.393.252.81.252 1.252v7.587c0 .835.096 1.639.289 2.412.192.774.492 1.455.902 2.044.408.59.937 1.063 1.587 1.418.649.357 1.43.534 2.344.534a6.522 6.522 0 0 0 3.173-.828 8.527 8.527 0 0 0 2.561-2.118 11.749 11.749 0 0 1-2.308 1.455 5.999 5.999 0 0 1-2.633.607c-.721 0-1.329-.14-1.821-.423a3.496 3.496 0 0 1-1.208-1.142 4.816 4.816 0 0 1-.668-1.639 8.877 8.877 0 0 1-.198-1.878V7.918l-3.318 2.652zM1.221 26.15a2.31 2.31 0 0 1 .758-.774 1.926 1.926 0 0 1 1.046-.294c.552 0 1.1.08 1.64.239.542.16 1.094.344 1.66.552.564.21 1.136.394 1.713.553.577.16 1.165.24 1.767.24.938 0 1.893-.13 2.867-.387a8.808 8.808 0 0 0 2.65-1.179 6.458 6.458 0 0 0 1.948-2.026c.505-.822.758-1.786.758-2.89 0-1.106-.211-2.075-.631-2.91a7.98 7.98 0 0 0-1.641-2.21 12.405 12.405 0 0 0-2.309-1.713 46.794 46.794 0 0 0-2.668-1.436c-.915-.454-1.804-.903-2.67-1.345a14.128 14.128 0 0 1-2.307-1.454 7.405 7.405 0 0 1-1.641-1.75c-.421-.638-.632-1.387-.632-2.246 0-.81.168-1.51.505-2.1.337-.59.776-1.08 1.317-1.473A5.555 5.555 0 0 1 7.19.681 7.953 7.953 0 0 1 9.263.405c.89 0 1.755.154 2.597.46a7.99 7.99 0 0 1 2.29 1.29 9.425 9.425 0 0 1 1.803 1.933A7.732 7.732 0 0 1 17.09 6.52c.024-1.031.06-2.044.108-3.039.048-.994.084-2.007.108-3.038a2.76 2.76 0 0 1-.595 1.05c-.276.307-.63.46-1.064.46-.24 0-.571-.104-.991-.313a27.07 27.07 0 0 0-1.461-.663A23.432 23.432 0 0 0 11.41.313 6.404 6.404 0 0 0 9.408 0c-.986 0-1.936.142-2.85.424-.913.282-1.718.7-2.415 1.252a5.994 5.994 0 0 0-1.66 2.062c-.409.823-.612 1.787-.612 2.892 0 1.449.354 2.651 1.063 3.609.71.957 1.605 1.793 2.687 2.504a24.342 24.342 0 0 0 3.48 1.897 44.45 44.45 0 0 1 3.48 1.731c1.083.602 1.978 1.277 2.688 2.026.709.75 1.064 1.688 1.064 2.817 0 .91-.205 1.683-.613 2.32a4.716 4.716 0 0 1-1.57 1.53 7.072 7.072 0 0 1-2.127.828c-.782.172-1.557.258-2.326.258a6.818 6.818 0 0 1-2.904-.626 8.953 8.953 0 0 1-2.434-1.658 11.113 11.113 0 0 1-1.875-2.357c-.53-.884-.95-1.792-1.263-2.725v7.366zM110.172 55.588c.265.503.613.92 1.046 1.252.433.331.932.577 1.497.736.565.16 1.148.24 1.749.24 1.058 0 2.02-.153 2.885-.46.866-.307 1.671-.841 2.417-1.603a6.465 6.465 0 0 1-1.948.921 7.794 7.794 0 0 1-2.128.295c-1.009 0-1.827-.295-2.452-.884-.626-.59-.938-1.4-.938-2.431 0-1.105.276-1.995.83-2.67a6.414 6.414 0 0 1 2.037-1.64 13.265 13.265 0 0 1 2.633-1.012c.95-.258 1.821-.51 2.615-.755v6.74c0 .467.03.909.09 1.326.06.418.18.786.361 1.105.18.32.438.577.775.773.336.197.769.295 1.298.295.481 0 .992-.166 1.533-.497.541-.332.884-.743 1.028-1.234a2.121 2.121 0 0 1-1.406.515c-.65 0-1.089-.239-1.317-.718-.229-.478-.342-1-.342-1.565v-9.318c0-1.89-.421-3.315-1.263-4.273-.842-.957-2.212-1.436-4.111-1.436-.505 0-1.124.098-1.858.295a9.894 9.894 0 0 0-2.127.847 6.702 6.702 0 0 0-1.75 1.326c-.481.515-.721 1.08-.721 1.694 0 .393.108.73.325 1.013.216.282.528.423.937.423.914 0 1.371-.454 1.371-1.362 0-.27-.031-.528-.09-.774a3.191 3.191 0 0 1-.09-.773c0-.417.131-.767.396-1.05.265-.282.589-.51.974-.681a5.82 5.82 0 0 1 1.208-.387 5.614 5.614 0 0 1 1.1-.129c.697 0 1.281.16 1.749.479.469.32.848.724 1.136 1.215.289.492.493 1.044.614 1.658.12.614.18 1.215.18 1.804v2.063c-.265.246-.71.455-1.335.626-.625.172-1.334.344-2.127.516-.794.172-1.611.386-2.453.644-.842.258-1.611.596-2.308 1.013a5.507 5.507 0 0 0-1.731 1.62c-.457.663-.685 1.486-.685 2.468 0 .663.132 1.247.396 1.75zM96.198 40.1a8.203 8.203 0 0 0-2.868 1.97c-.793.848-1.406 1.86-1.839 3.04-.433 1.178-.65 2.467-.65 3.867 0 1.203.2 2.35.596 3.443a8.752 8.752 0 0 0 1.695 2.873 8.36 8.36 0 0 0 2.615 1.97c1.01.491 2.128.737 3.354.737 1.61 0 3.065-.368 4.364-1.105 1.298-.737 2.332-1.841 3.101-3.315a8.99 8.99 0 0 1-2.921 2.21c-1.13.54-2.308.81-3.534.81-1.25 0-2.327-.257-3.228-.773a6.698 6.698 0 0 1-2.218-2.026c-.577-.834-.998-1.798-1.263-2.89a14.092 14.092 0 0 1-.396-3.334c0-.908.156-1.829.469-2.762a9.052 9.052 0 0 1 1.316-2.542 7.067 7.067 0 0 1 2.038-1.86c.793-.478 1.682-.718 2.669-.718.504 0 1.009.092 1.514.276.505.185.956.442 1.353.774.396.331.715.724.955 1.178.241.455.361.964.361 1.529 0 .393.102.75.307 1.068.204.32.523.479.955.479.409 0 .709-.148.902-.442.192-.295.288-.626.288-.995 0-.736-.21-1.368-.631-1.896a4.949 4.949 0 0 0-1.568-1.29 8.043 8.043 0 0 0-2.002-.736 9.013 9.013 0 0 0-1.966-.24c-1.394 0-2.65.234-3.768.7zM82.78 38.72a9.672 9.672 0 0 0-2.001.736c-.674.331-1.335.75-1.984 1.252a9.448 9.448 0 0 0-1.731 1.75 6.752 6.752 0 0 1 1.064-.866c.42-.282.853-.546 1.298-.792a8.22 8.22 0 0 1 1.317-.59c.432-.147.805-.22 1.118-.22.505 0 .895.08 1.172.24.276.16.516.33.721.515.204.184.42.356.65.516.227.16.558.239.991.239.433 0 .8-.104 1.1-.313.3-.208.45-.558.45-1.05 0-.319-.078-.583-.234-.792a1.972 1.972 0 0 0-.577-.515 2.272 2.272 0 0 0-.757-.277 4.483 4.483 0 0 0-.775-.073c-.554 0-1.16.08-1.822.24zm1.353 17.844c-.217.54-.674.933-1.37 1.178h5.517c-.697-.22-1.166-.613-1.406-1.178a4.646 4.646 0 0 1-.361-1.842V43.01l-3.21 2.32c.265 0 .47.08.613.24.145.16.258.362.343.607.084.246.138.498.162.755.024.258.036.486.036.682v7.108c0 .688-.108 1.302-.324 1.842zm-10.369 0c-.229.565-.691.957-1.389 1.178h5.554c-.36-.22-.655-.417-.883-.59a2.16 2.16 0 0 1-.541-.57 1.99 1.99 0 0 1-.27-.755 7.003 7.003 0 0 1-.073-1.105V39.327l-3.21 2.32c.265 0 .475.08.632.24.156.16.27.356.342.589.072.234.12.479.145.737.023.257.036.485.036.68v10.83c0 .662-.115 1.276-.343 1.84zM59.898 39.843h2.236v14.842c0 .663-.114 1.283-.342 1.86-.229.577-.692.976-1.389 1.197h5.518c-.697-.22-1.166-.62-1.406-1.197a4.783 4.783 0 0 1-.36-1.86V39.842h3.209v-.515h-3.21c0-.516-.006-1.252-.018-2.21-.012-.957.048-1.909.18-2.854.132-.945.385-1.768.758-2.468.372-.7.956-1.05 1.749-1.05.625 0 1.058.166 1.298.498.24.331.427.687.56 1.068.131.38.282.736.45 1.068.168.331.505.497 1.01.497.36 0 .637-.135.83-.405.192-.27.288-.577.288-.921 0-.392-.15-.73-.45-1.013a3.791 3.791 0 0 0-1.083-.7 6.104 6.104 0 0 0-1.316-.405 6.335 6.335 0 0 0-1.118-.128c-1.154 0-2.074.3-2.76.902a5.843 5.843 0 0 0-1.568 2.247 10.3 10.3 0 0 0-.685 2.927 32.579 32.579 0 0 0-.145 2.947h-2.236v.516zm-18.825 7.366 4.291-11.492 4.22 11.492h-8.511zm-.758 10.533a4.06 4.06 0 0 1-1.424-.847c-.397-.368-.595-.871-.595-1.51 0-.27.03-.534.09-.792s.138-.51.234-.755l2.344-6.224H49.8c.145.344.367.902.668 1.676.3.773.613 1.583.937 2.43.325.847.607 1.64.848 2.376.24.737.36 1.24.36 1.51 0 .442-.138.872-.414 1.29-.277.417-.62.699-1.028.846h6.347c-.625-.196-1.136-.576-1.532-1.142a7.523 7.523 0 0 1-.92-1.73l-8.62-23.24-8.727 23.313c-.217.54-.577 1.093-1.082 1.657-.505.566-1.034.946-1.587 1.142h5.265zm-26.29 0c-.722-.27-1.209-.687-1.461-1.252-.253-.565-.38-1.215-.38-1.952l-.035-15.211-3.318 2.468c.288 0 .517.086.685.257.168.172.294.387.379.645.084.258.144.522.18.792.036.27.054.515.054.736v10.313c0 .737-.126 1.387-.379 1.952-.252.565-.739.982-1.46 1.252h5.734zm1.622-17.034a5.997 5.997 0 0 1 2.633-.608c.721 0 1.328.142 1.821.424a3.51 3.51 0 0 1 1.208 1.142 4.84 4.84 0 0 1 .668 1.639c.131.614.198 1.24.198 1.878v9.355c0 .712-.126 1.363-.379 1.952-.252.59-.74 1.007-1.46 1.252h5.77c-.721-.245-1.214-.656-1.479-1.234-.264-.576-.396-1.233-.396-1.97v-8.913c0-.834-.097-1.639-.289-2.412a5.962 5.962 0 0 0-.92-2.045 4.814 4.814 0 0 0-1.586-1.418c-.638-.355-1.413-.534-2.327-.534-1.13 0-2.2.277-3.21.83a8.525 8.525 0 0 0-2.56 2.117 11.744 11.744 0 0 1 2.308-1.455zM2.07 33.839c-.277.27-.415.626-.415 1.068 0 .442.138.798.415 1.068.276.27.631.405 1.064.405.433 0 .78-.134 1.046-.405.264-.27.396-.626.396-1.068 0-.442-.132-.797-.396-1.068-.265-.27-.613-.405-1.046-.405-.433 0-.788.135-1.064.405zm3.949 23.903c-.673-.22-1.13-.607-1.37-1.16-.241-.552-.361-1.172-.361-1.86V39.327l-3.246 2.32c.264 0 .474.08.631.24a1.6 1.6 0 0 1 .36.607c.085.246.139.498.163.755.024.258.036.486.036.682v10.791c0 .688-.114 1.308-.343 1.86-.228.553-.69.94-1.388 1.16h5.518zM110.568 9.097v4.926a28.33 28.33 0 0 0 3.75.89 22.71 22.71 0 0 0 3.83.352c.892 0 1.769-.097 2.635-.29a6.704 6.704 0 0 0 2.31-.973 5.287 5.287 0 0 0 1.642-1.78c.418-.73.628-1.635.628-2.71 0-.658-.113-1.243-.332-1.761h-3.706c.594.33 1.119.688 1.565 1.077.649.566.973 1.29.973 2.173 0 .773-.21 1.401-.628 1.884a4.215 4.215 0 0 1-1.54 1.117 7 7 0 0 1-1.966.518c-.703.083-1.338.124-1.905.124-1.703 0-3.189-.531-4.459-1.594a9.387 9.387 0 0 1-2.797-3.953zM123.275 20.222a6.632 6.632 0 0 1 1.075 2.028v-3.89c-.352-.166-.838-.332-1.46-.497a57.472 57.472 0 0 0-1.925-.476 21.203 21.203 0 0 0-1.925-.352 12.094 12.094 0 0 0-1.54-.124c-.838 0-1.662.124-2.473.372a6.399 6.399 0 0 0-2.128 1.097 5.605 5.605 0 0 0-1.479 1.8c-.379.718-.568 1.56-.568 2.526 0 1.159.324 2.118.973 2.876.199.234.418.452.647.663h5.96a26.119 26.119 0 0 1-2.736-1.139c-.96-.469-1.763-1.027-2.412-1.676-.648-.648-.973-1.47-.973-2.463 0-.634.162-1.18.487-1.635a4.126 4.126 0 0 1 1.236-1.138c.5-.304 1.047-.531 1.642-.683a6.758 6.758 0 0 1 1.661-.228c.73 0 1.466.124 2.209.373a8.544 8.544 0 0 1 2.068 1.014 7.211 7.211 0 0 1 1.661 1.552z"/>
    </g>
    <defs>
        <clipPath id="jk1olcz32a">
            <path fill="#fff" transform="translate(.5)" d="M0 0h125v58H0z"/>
        </clipPath>
    </defs>
</svg>
