<svg width="72" height="15" viewBox="0 0 72 15" fill="none" xmlns="http://www.w3.org/2000/svg">
    <path d="m7 .433 1.852 4.451 4.805.385-3.661 3.137 1.118 4.69L7 10.583l-4.114 2.513 1.118-4.69L.343 5.269l4.805-.385L7 .433zM36 .433l1.852 4.451 4.805.385-3.661 3.137 1.118 4.69L36 10.583l-4.114 2.513 1.118-4.69-3.661-3.137 4.805-.385L36 .433zM21.5.433l1.72 4.451 4.462.385-3.4 3.137 1.039 4.69-3.821-2.513-3.82 2.513 1.038-4.69-3.4-3.137 4.463-.385L21.5.433zM50.5.433l1.72 4.451 4.462.385-3.4 3.137 1.039 4.69-3.821-2.513-3.82 2.513 1.038-4.69-3.4-3.137 4.463-.385L50.5.433zM65 .433l1.852 4.451 4.805.385-3.661 3.137 1.119 4.69L65 10.583l-4.114 2.513 1.118-4.69-3.661-3.137 4.805-.385L65 .433z" fill="#fff"/>
</svg>
