<?xml version="1.0" standalone="no"?>
<!DOCTYPE svg PUBLIC "-//W3C//DTD SVG 1.1//EN" "http://www.w3.org/Graphics/SVG/1.1/DTD/svg11.dtd" >
<svg xmlns="http://www.w3.org/2000/svg" xmlns:xlink="http://www.w3.org/1999/xlink" version="1.1">
<metadata>
Created by FontForge 20190801 at Mon Jun 22 02:38:53 2020
 By www-data
Sans &#38; Sons
</metadata>
<defs>
<font id="FontsFreeNetBranch" horiz-adv-x="781" >
  <font-face 
    font-family="FontsFreeNetBranch"
    font-weight="400"
    font-stretch="normal"
    units-per-em="1000"
    panose-1="0 0 0 0 0 0 0 0 0 0"
    ascent="800"
    descent="-200"
    x-height="500"
    cap-height="700"
    bbox="-146 -312 1326 862"
    underline-thickness="50"
    underline-position="-125"
    unicode-range="U+000D-1027"
  />
<missing-glyph horiz-adv-x="250" 
 />
    <glyph glyph-name="uni1021" unicode="am" horiz-adv-x="1315" 
d="M302 285q3 1 6 1t6 2v60q0 24 -5 49t-17 45.5t-31.5 33.5t-48.5 13q-13 0 -30.5 -3.5t-33.5 -11t-27 -19t-11 -27.5q0 -11 3 -21.5t3 -21.5q0 -19 -10.5 -28t-28.5 -9q-17 0 -26 12t-9 28q0 25 20 46t48.5 36t59 23t51.5 8q53 0 82.5 -15t44.5 -42t18.5 -64t3.5 -80
q48 11 95 27.5t91 39.5q0 9 -1.5 20t-5.5 21.5t-11 17.5t-18 7l92 66v-96q26 17 45.5 34.5t40.5 32t46 23.5t60 9q38 0 64.5 -14.5t44 -38.5t25.5 -55t8 -65v-242q0 -29 11 -53t41 -34h-160q30 10 40.5 34t10.5 53v254q0 26 -5.5 50.5t-18.5 44t-33 31t-50 11.5
q-37 0 -63.5 -11.5t-53.5 -34.5q-45 -38 -86 -63t-83.5 -42t-89 -28.5t-102.5 -23.5q-26 -5 -52.5 -10.5t-51.5 -14.5q-46 -16 -78.5 -52t-32.5 -87q0 -42 26 -66t68 -24q30 0 59 8t54 25q-30 -30 -67 -43t-79 -13q-25 0 -48.5 6.5t-42 20t-29.5 34t-11 47.5q0 33 14 57.5
t37.5 42.5t53 31t61 22t62 15t55.5 11zM1119 501q38 0 65 -14.5t44 -38.5t25 -55.5t8 -65.5v-240q0 -29 11 -53t41 -34h-160q30 10 40.5 34t10.5 53v252q0 26 -5.5 51t-18.5 44t-33.5 30.5t-50.5 11.5q-38 0 -72.5 -16t-63.5 -39q29 35 70.5 57.5t88.5 22.5zM505 0
q30 11 40.5 34.5t10.5 52.5v247q14 7 29 15.5t27 18.5l1 -281q0 -29 10.5 -52.5t40.5 -34.5h-159zM314 256q14 4 28 6.5t28 7.5v-177q0 -23 9.5 -42.5t36.5 -19.5q22 0 39 14q-6 -20 -28.5 -33.5t-42.5 -13.5q-22 0 -36 8t-21.5 21t-10 30t-2.5 36v163z" />
    <glyph glyph-name="uni1027" unicode="em" horiz-adv-x="1327" 
d="M34 238q0 59 17 106.5t49.5 82t79 53t106.5 18.5q46 0 80 -18.5t56.5 -49.5t34 -70.5t11.5 -80.5h-375q-3 -40 4.5 -83.5t28 -80t57 -62t91.5 -30.5q38 -3 77 4t74 33q11 8 20.5 17.5t19.5 20.5q29 33 49.5 74t38.5 83q4 8 7 17t7 17v78q0 9 -1 20t-5 21.5t-10.5 17.5
t-18.5 7l92 68v-110q30 41 70 67q27 21 58.5 33t64.5 12q38 0 65 -14.5t44.5 -38.5t25.5 -55.5t8 -65.5v-242q0 -30 11 -53.5t41 -34.5h-161q30 11 40.5 35t10.5 53v253q0 27 -5.5 52t-18.5 44.5t-33.5 31t-50.5 11.5q-20 0 -39 -5t-37 -13q-30 -16 -53 -39t-41.5 -50.5
t-33 -58t-28.5 -62.5q-22 -50 -46.5 -97t-63.5 -84q-35 -35 -79 -56.5t-98 -21.5q-52 0 -96 19t-76.5 52.5t-50.5 78.5t-18 96zM355 293q32 0 48 21.5t16 50.5q0 30 -12.5 53.5t-33 39t-47 24t-53.5 8.5q-37 0 -69.5 -17.5t-57 -45.5t-38.5 -63.5t-14 -70.5h261zM1132 503
q38 0 65 -14.5t44.5 -38.5t25.5 -55.5t8 -65.5v-242q0 -30 11 -53.5t40 -34.5h-159q30 11 40 35t10 53v253q0 27 -5.5 52t-18 44.5t-33 31t-50.5 11.5q-38 0 -73.5 -17t-64.5 -40q30 36 72 58.5t88 22.5zM517 -1q30 11 40 34.5t10 53.5v134q3 9 11 27t16.5 37t17 34t13.5 18
v-250q0 -30 10.5 -53.5t40.5 -34.5h-159z" />
    <glyph glyph-name="a_b" unicode="ab" horiz-adv-x="1002" 
d="M19 105q0 39 14.5 65.5t38.5 44.5t54.5 29t63.5 18t65 12t59 11q0 28 -1 64t-10 67.5t-30 53.5t-62 22q-13 0 -30.5 -3.5t-33.5 -10.5t-27 -18.5t-11 -28.5q0 -11 2.5 -21.5t2.5 -21.5q0 -38 -38 -38q-17 0 -26 12t-9 28q0 26 20 47t48.5 36t59 23t51.5 8q53 0 83 -15.5
t44.5 -43t18 -64.5t3.5 -81q39 13 76 29.5t72 39.5v243q0 9 -1 21t-5 22.5t-11.5 17.5t-19.5 7l92 71v-340q24 18 45.5 35.5t44.5 30.5t49.5 21t59.5 8q48 0 83.5 -20t59 -53.5t35.5 -76.5t12 -90q0 -54 -14 -103.5t-43 -88t-73 -61.5t-103 -23q-46 0 -90 22t-77 51l-44 -70
v329q14 8 27.5 18t27.5 19v-199q0 -32 15 -60t39.5 -49t55 -33.5t60.5 -12.5q44 0 74.5 25t49 62t26.5 79.5t8 78.5q0 37 -8.5 78t-27.5 75.5t-50 57t-76 22.5q-38 0 -70.5 -15.5t-65.5 -44.5q-49 -42 -93 -70t-89.5 -46t-97 -29.5t-115.5 -22.5q-26 -4 -48 -18t-37.5 -33.5
t-24 -43.5t-8.5 -50q0 -42 25.5 -67t67.5 -25q30 0 59 8t54 25q-31 -31 -67.5 -43.5t-79.5 -12.5q-25 0 -48.5 7t-41.5 20.5t-28.5 34.5t-10.5 48zM369 260v-169q0 -22 10 -42.5t36 -20.5q23 0 39 15q-6 -19 -28 -33.5t-42 -14.5q-23 0 -36.5 8t-21 21t-10 30.5t-2.5 36.5
v156q14 4 27.5 6.5t27.5 6.5z" />
    <glyph glyph-name="a_h" unicode="ah" horiz-adv-x="987" 
d="M297 287q10 2 17 4q0 28 -1 62.5t-10 64.5t-30 50.5t-61 20.5q-13 0 -31 -3.5t-34 -10.5t-27 -18.5t-11 -28.5q0 -11 2.5 -21t2.5 -21q0 -37 -37 -37q-17 0 -26 11t-9 28q0 25 20 46t48.5 36t59 23t51.5 8q51 0 81 -14.5t45 -41t19 -62.5t4 -79q45 11 87.5 26t83.5 38
v245q0 9 -1.5 20t-5 21.5t-10.5 17.5t-19 7l92 67l1 -343q27 20 46.5 38t40 32t45 22t60.5 8q38 0 65 -14.5t44.5 -38.5t25.5 -55.5t8 -65.5v-242q0 -29 11 -53t41 -34h-160q30 10 40.5 34t10.5 53v254q0 26 -6 51t-18.5 44.5t-33 31.5t-50.5 12q-36 0 -63 -13t-54 -35
q-45 -36 -85 -60t-80.5 -41t-85.5 -29t-100 -25q-24 -5 -49 -10.5t-48 -13.5q-24 -8 -44.5 -21.5t-36.5 -32t-25 -41t-9 -48.5q0 -42 27 -65.5t68 -23.5q30 0 59 7.5t54 24.5q-31 -31 -67.5 -43.5t-79.5 -12.5q-25 0 -48.5 6.5t-41.5 20t-29 34t-11 47.5q0 49 29.5 80.5
t72 51.5t91 31t85.5 19zM490 0q30 11 40.5 34.5t10.5 52.5v232q14 9 28.5 18t28.5 20l1 -270q0 -30 10 -53t41 -34h-160zM314 256q14 4 28 6.5t28 6.5v-176q0 -23 9.5 -43t36.5 -20q22 0 39 14q-6 -20 -28.5 -33.5t-42.5 -13.5q-22 0 -36 8t-21.5 21.5t-10 30.5t-2.5 36v163
z" />
    <glyph glyph-name="a_n" unicode="an" horiz-adv-x="997" 
d="M190 259q31 8 61.5 15.5t62.5 12.5v61q0 24 -5 49t-17 45t-31.5 33t-48.5 13q-13 0 -30.5 -3.5t-33.5 -10.5t-27 -18.5t-11 -28.5q0 -11 3 -21.5t3 -21.5q0 -19 -10.5 -27.5t-28.5 -8.5q-17 0 -26 11.5t-9 27.5q0 25 20 46t48.5 36t58.5 23t51 8q53 0 83 -15t44.5 -42
t18 -63.5t3.5 -80.5q48 11 94.5 27t90.5 40q0 9 -1.5 20t-5 21.5t-10.5 17.5t-19 7l91 66l1 -97q26 18 45.5 36t40.5 32t46 23t61 9q38 0 64.5 -14.5t43 -39t24.5 -55.5t8 -64v-240q0 -29 11 -53.5t42 -34.5h-160q30 10 40.5 34.5t10.5 53.5v252q0 26 -6 50.5t-18.5 44
t-33 31.5t-50.5 12q-36 0 -62 -12t-53 -35q-44 -37 -85 -61.5t-84 -42t-89.5 -29.5t-101.5 -23q-26 -5 -53 -10.5t-52 -14.5q-46 -17 -78 -52.5t-32 -86.5q0 -42 26 -66t68 -24q30 0 59 8t54 25q-32 -31 -68 -43.5t-79 -12.5q-25 0 -48.5 6.5t-41.5 20t-29 34t-11 47.5
q0 37 15.5 62.5t40.5 42.5t55 28.5t60 19.5zM504 0q30 11 40 35t10 53v246q14 6 29.5 14.5t26.5 18.5l1 -279q0 -29 10 -53t41 -35h-158zM314 256q14 4 27.5 6.5t27.5 7.5v-177q0 -22 9.5 -42t35.5 -20q23 0 40 14q-6 -20 -28.5 -33.5t-42.5 -13.5q-22 0 -36 8t-21 21
t-9.5 30t-2.5 36v163z" />
    <glyph glyph-name="a_p" unicode="ap" horiz-adv-x="996" 
d="M19 105q0 39 14.5 65t38.5 44t55 28.5t63.5 17.5t64.5 12t58 11q0 28 -0.5 63.5t-9.5 66.5t-30 52.5t-62 21.5q-13 0 -30 -3t-33 -10.5t-27 -18.5t-11 -28q0 -11 2.5 -21t2.5 -21q0 -37 -38 -37q-17 0 -26 11.5t-9 27.5q0 25 20 46t48.5 36t59 23t51.5 8q53 0 82.5 -15.5
t44 -42.5t18 -64t3.5 -80q41 13 79.5 30.5t73.5 40.5q0 10 -1 20t-4.5 19t-11 14.5t-20.5 6.5l93 69v-86q21 17 40 32.5t39.5 28.5t44 20.5t52.5 7.5q50 0 88.5 -18t65 -49.5t40.5 -73t14 -88.5q0 -55 -14.5 -105.5t-44 -88.5t-74.5 -60.5t-105 -22.5q-48 0 -79.5 15.5
t-66.5 45.5v-218q0 -28 9 -50.5t39 -31.5h-153q29 9 39 32.5t10 50.5v480q14 10 28 20.5t28 18.5v-214q0 -28 14 -53.5t36 -44.5t49.5 -30t54.5 -11q46 0 78 24t51.5 60.5t28.5 79.5t9 81q0 39 -8.5 79t-28 73t-51 54t-77.5 21q-24 0 -41 -3.5t-31 -10.5t-27.5 -18
t-30.5 -25q-51 -42 -94.5 -69.5t-88.5 -45t-96 -28.5t-117 -22q-26 -4 -48 -17.5t-37.5 -33t-24.5 -44t-9 -50.5q0 -42 26 -66t68 -24q29 0 58 8t54 25q-31 -30 -67.5 -42.5t-78.5 -12.5q-24 0 -47.5 6.5t-42 19.5t-29.5 33.5t-11 47.5zM369 260v-168q0 -23 9.5 -42
t36.5 -19q22 0 39 14q-6 -20 -28 -33.5t-42 -13.5q-22 0 -36 7.5t-22 20.5t-10.5 30t-2.5 36v154q14 4 28 6.5t28 7.5z" />
    <glyph glyph-name="a_r" unicode="ar" horiz-adv-x="808" 
d="M310 295v53q0 24 -5 49t-16.5 45.5t-31 33.5t-48.5 13q-13 0 -31 -3.5t-33.5 -11t-26.5 -19t-11 -28.5q0 -11 2.5 -21t2.5 -21q0 -37 -38 -37q-17 0 -26 12t-9 28q0 26 20 46.5t48.5 35t59 22.5t51.5 8q51 0 80.5 -14t44.5 -39t19 -60.5t4 -78.5q45 11 88.5 26.5
t84.5 38.5q0 8 -1 19t-4.5 20.5t-10 16.5t-17.5 7l90 63v-90q17 12 34 28t36 30t39.5 23.5t42.5 9.5q16 0 28.5 -7.5t12.5 -24.5q0 -35 -37 -35q-8 0 -14.5 3l-13 6t-14.5 6t-19 3q-14 0 -29 -7t-26 -16q-39 -33 -79.5 -56.5t-83.5 -40.5t-88.5 -28.5t-94.5 -22.5
q-32 -7 -67.5 -17.5t-65 -28t-49 -44.5t-19.5 -68q0 -47 28 -74t74 -27q31 0 56.5 11t50.5 28q-26 -32 -62.5 -47t-77.5 -15q-28 0 -53.5 8t-44.5 23.5t-30 38.5t-11 53q0 44 33 74.5t79.5 51t96 32t82.5 16.5zM491 0q29 11 38.5 32t9.5 50v255q5 3 13 7.5t16.5 10t16 11
t11.5 9.5v-293q0 -29 9.5 -49t37.5 -33h-152zM310 263q14 4 28 7l28 6v-182q0 -23 10 -42.5t37 -19.5q11 0 20.5 2.5t17.5 10.5q-3 -9 -10.5 -17.5t-17.5 -15t-21.5 -10.5t-20.5 -4q-22 0 -36 8t-22 21t-10.5 30.5t-2.5 36.5v169z" />
    <glyph glyph-name="c_h" unicode="ch" horiz-adv-x="1001" 
d="M287 498q25 0 54.5 -6.5t55.5 -20t43.5 -35t17.5 -51.5q0 -14 -7.5 -27t-24.5 -13t-26.5 13t-9.5 29q0 23 -10 41.5t-26.5 32t-37.5 21t-42 7.5q-41 0 -74 -19.5t-56.5 -50.5t-36.5 -69t-13 -75q0 -46 11 -91t34.5 -80.5t61 -57.5t90.5 -22q59 0 100 27t71 68t52 89.5
t43 92.5v310q0 9 -1.5 20.5t-5 22t-11 17.5t-19.5 7l93 67v-346q34 45 85 74.5t108 29.5q38 0 65 -14.5t44 -39t25 -56t8 -65.5v-241q0 -29 11 -53t41 -34h-160q30 10 40.5 34t10.5 53v253q0 26 -5.5 50.5t-18.5 44t-33.5 31.5t-50.5 12q-53 0 -90.5 -22t-66 -58
t-50.5 -81.5t-43.5 -91.5t-47 -88.5t-59.5 -73.5q-35 -32 -74.5 -51.5t-88.5 -19.5q-51 0 -93 20t-72.5 53.5t-47 78t-16.5 93.5q0 57 17.5 105t50.5 82.5t80 54t105 19.5zM506 -1q29 11 40 34.5t11 52.5v134q0 4 7.5 21.5t17 38t18.5 37.5t13 20v-251q0 -29 11 -52.5
t41 -34.5h-159z" />
    <glyph glyph-name="c_r" unicode="cr" horiz-adv-x="848" 
d="M35 237q0 57 17.5 104.5t50.5 82t79.5 54t104.5 19.5q25 0 54.5 -6t55.5 -19.5t43.5 -35t17.5 -52.5q0 -15 -8 -27t-25 -12q-18 0 -26.5 13t-8.5 29q0 23 -10 41.5t-26.5 32t-37 21t-41.5 7.5q-41 0 -74 -19.5t-56.5 -50.5t-36.5 -69t-13 -75q0 -46 11 -91t35 -80.5
t61.5 -57.5t89.5 -22q59 0 101 27t73 68.5t54 91t42 94.5v69q0 8 -1 18.5t-4.5 20.5t-10 16.5t-17.5 6.5l90 63v-97q13 16 30.5 33t37.5 31.5t42 24t43 9.5q15 0 28 -8t13 -25t-10.5 -25.5t-26.5 -8.5q-14 0 -28 8.5t-34 8.5q-31 0 -55 -19.5t-44.5 -52t-39.5 -73.5
t-40 -83.5t-45.5 -83.5t-57 -73.5t-73.5 -52t-95 -19.5q-51 0 -93 20t-72 53.5t-47 77.5t-17 93zM562 82v154q17 28 31 59t26 60v-273q0 -27 10 -50t38 -32h-153q29 9 38.5 32t9.5 50z" />
    <glyph glyph-name="e_b" unicode="eb" horiz-adv-x="1051" 
d="M34 239q0 58 17 106t49.5 82t79 52.5t105.5 18.5q46 0 80 -18.5t56.5 -49.5t34 -70.5t11.5 -80.5h-373q-1 -6 -1 -12v-12q0 -49 12.5 -91t38 -73t64.5 -48.5t91 -17.5q60 0 101.5 24t71 61.5t51.5 84.5t43 93v319q0 9 -1 21t-5 22t-11.5 17t-20.5 7l93 70v-355
q16 23 36.5 43.5t44.5 36t51 25t55 9.5q50 0 88 -19.5t63.5 -52.5t38 -75.5t12.5 -88.5q0 -54 -14.5 -103t-43.5 -87t-72.5 -60.5t-102.5 -22.5q-45 0 -89 21.5t-77 50.5l-45 -69v205q13 32 27 62.5t28 61.5v-164q0 -31 15.5 -59t39.5 -49t54.5 -33t60.5 -12q44 0 74 24.5
t48.5 61t26.5 78.5t8 77q0 37 -8.5 77.5t-27.5 74.5t-49.5 56t-74.5 22q-8 0 -16.5 -0.5t-16.5 -2.5q-42 -11 -73 -37t-55 -61t-43 -75.5l-38 -81t-40 -78.5t-49 -66q-38 -38 -82.5 -61t-99.5 -23q-52 0 -96 19t-76 52t-50.5 78t-18.5 96zM354 294q32 0 48 21t16 50
q0 30 -12.5 53.5t-33 39t-47 24t-53.5 8.5q-37 0 -69 -17.5t-56 -45.5t-38 -63t-14 -70h259z" />
    <glyph glyph-name="e_h" unicode="eh" horiz-adv-x="1016" 
d="M34 237q0 59 17 106.5t49.5 82t79 53t106.5 18.5q46 0 80 -19t56.5 -50t34 -70.5t11.5 -80.5h-374q-1 -6 -1 -12v-12q0 -49 12.5 -91.5t38 -73.5t64.5 -48.5t92 -17.5q59 0 102 26t74.5 66.5t54 89.5t40.5 96v310q0 8 -1 19.5t-5 22t-10.5 18t-18.5 7.5l92 66v-346
q37 45 84.5 75t107.5 30q38 0 65 -14.5t44 -39t25 -56t8 -65.5v-241q0 -29 11.5 -53t41.5 -34h-161q31 10 41.5 34t10.5 53v254q0 26 -6 50.5t-18.5 44t-33 31t-50.5 11.5q-45 0 -79 -16.5t-60.5 -44t-46.5 -63t-37.5 -73t-34 -74t-34.5 -67.5l4 6q-19 -32 -43.5 -60
t-54 -49t-64 -33t-73.5 -12q-52 0 -96 19.5t-76 52.5t-50.5 78t-18.5 96zM355 292q32 0 48 21.5t16 50.5q0 30 -12.5 53t-33.5 38.5t-47 24t-53 8.5q-37 0 -69.5 -17.5t-56.5 -45.5t-38 -63t-14 -70h260zM571 86v133q0 4 7.5 22t17.5 38t19 37t13 20l1 -250
q0 -29 10.5 -52.5t40.5 -34.5h-159q30 11 40 34.5t10 52.5z" />
    <glyph glyph-name="e_n" unicode="en" horiz-adv-x="1011" 
d="M34 239q0 58 17 105.5t49.5 81.5t79 53t105.5 19q45 0 79 -19t56.5 -49.5t34 -70t11.5 -80.5h-372q-1 -6 -1 -12v-12q0 -49 12 -91t37.5 -73.5t64 -49.5t91.5 -18q65 0 106.5 26t70.5 67t50.5 90.5t44.5 96.5v64q0 9 -1.5 20.5t-5 22t-10.5 17.5t-19 7l91 66l1 -102
q16 21 37.5 40.5t46.5 33.5t52.5 22.5t54.5 8.5q38 0 64.5 -14.5t43.5 -38.5t25 -55.5t8 -65.5v-241q0 -29 11 -53.5t41 -34.5h-159q30 10 40.5 34.5t10.5 53.5v253q0 26 -5.5 50.5t-18.5 44t-33.5 31.5t-50.5 12q-32 0 -66 -13.5t-58 -33.5q-33 -27 -57.5 -70t-46.5 -91
t-44.5 -95.5t-52.5 -83.5q-37 -45 -86.5 -72t-108.5 -27q-52 0 -96 19.5t-76 52.5t-50 78t-18 96zM95 293h259q31 0 47 21.5t16 50.5q0 30 -12.5 53t-32.5 39t-46.5 24.5t-53.5 8.5q-37 0 -69.5 -17.5t-56.5 -45.5t-37.5 -63.5t-13.5 -70.5zM570 88v134q0 5 7.5 22.5
t17 37.5t18.5 36.5t13 19.5v-250q0 -29 10.5 -53t40.5 -35h-158q30 11 40.5 35t10.5 53z" />
    <glyph glyph-name="e_p" unicode="ep" horiz-adv-x="1056" 
d="M36 237q0 59 17 106.5t49 82t78.5 53t105.5 18.5q46 0 80 -18.5t56.5 -49.5t33.5 -70.5t11 -80.5h-371q-3 -40 4 -83t27.5 -79.5t56.5 -61.5t91 -30q33 -3 68 2.5t67 24.5q27 19 47.5 42t36.5 49t29.5 54t26.5 58q7 15 13 29.5t13 28.5v64q0 19 -6.5 35t-29.5 18l92 70
v-95q15 18 32.5 34t38.5 28q23 17 49 26t55 9q49 0 87.5 -18t65 -49t40.5 -72.5t14 -88.5q0 -55 -14.5 -105.5t-43.5 -89t-73.5 -61t-104.5 -22.5q-48 0 -79 15t-67 46v-218q0 -29 9 -51t39 -31h-152q29 9 38.5 32t9.5 51v387q2 3 10 21t17.5 39.5t18 39.5t10.5 21v-203
q0 -28 14 -53.5t36 -44.5t49 -30t54 -11q46 0 78 24t51.5 60.5t28.5 79.5t9 81q0 39 -8.5 79t-28 73t-50.5 54t-77 21q-48 0 -83.5 -21.5t-62.5 -55t-46.5 -73.5t-36.5 -77q-20 -47 -45 -93t-58.5 -82.5t-78 -59t-102.5 -22.5q-51 0 -95 19t-76 52t-50 77.5t-18 95.5z
M355 292q32 0 48 21.5t16 50.5q0 30 -12.5 53.5t-33 39t-46.5 24t-53 8.5q-37 0 -69.5 -17.5t-56.5 -45.5t-37.5 -63.5t-13.5 -70.5h258z" />
    <glyph glyph-name="e_r" unicode="er" horiz-adv-x="832" 
d="M286 498q46 0 80 -18.5t56.5 -49.5t34 -70.5t11.5 -80.5h-374q-3 -40 4 -83.5t28 -80t57 -61.5t92 -30q23 -2 46.5 -0.5t46.5 9.5q29 11 52.5 28t43.5 40q29 34 49.5 74.5t39.5 82.5q5 12 10.5 24t11.5 23v70q0 8 -1 18.5t-4.5 20.5t-10 16.5t-17.5 6.5l90 62v-97
q26 34 60 58q20 17 42 29t50 12q15 0 28 -8t13 -25t-10 -25.5t-26 -8.5q-14 0 -28 8.5t-35 8.5q-11 0 -22 -3.5t-22 -8.5q-42 -34 -68.5 -82.5t-51.5 -102.5l-28 -60t-31 -58q2 2 3.5 5t3.5 5q-19 -33 -43.5 -61t-54 -48.5t-64 -32t-73.5 -11.5q-52 0 -96 19t-76 52
t-50.5 78t-18.5 96q0 59 17 106.5t49.5 82t79 53t106.5 18.5zM95 293h260q32 0 48 21.5t16 50.5q0 30 -12.5 53.5t-33 39t-47 24t-53.5 8.5q-37 0 -69.5 -17.5t-56.5 -45.5t-38 -63.5t-14 -70.5zM527 0q29 9 38.5 31.5t9.5 50.5v154l12 24t18.5 38t17.5 36.5t9 20.5v-273
q0 -28 10 -50.5t37 -31.5h-152z" />
    <glyph glyph-name="g_a" unicode="ga" horiz-adv-x="995" 
d="M258 516q14 0 27 -2t27 -5q6 33 21.5 61.5t39 50t53.5 34t64 12.5q45 0 78.5 -15.5t56 -41.5t33.5 -61.5t11 -76.5q0 -16 -3 -37t-10.5 -40t-21 -32.5t-34.5 -13.5q-17 0 -26.5 11.5t-9.5 28.5q0 14 7 20.5t17.5 10t23 6t23 9t17.5 18.5t7 35q0 35 -12 65.5t-34.5 53.5
t-53.5 36.5t-69 13.5q-28 0 -55.5 -10t-50.5 -29.5t-39.5 -47t-22.5 -63.5q36 -17 65.5 -40t50.5 -48.5t32.5 -52.5t11.5 -54q0 -45 -19 -83.5t-51 -66t-72.5 -43t-84.5 -15.5q-42 0 -82 15.5t-70.5 43.5t-49 65.5t-18.5 81.5t19 82t50 65.5t71.5 43t82.5 15.5zM101 326
q0 -36 11.5 -73.5t33.5 -67.5t53.5 -49.5t71.5 -19.5q35 0 61.5 16.5t44.5 42.5t27.5 57.5t9.5 62.5q0 36 -12 73t-34.5 67t-54 49.5t-71.5 19.5q-34 0 -60.5 -16.5t-44.5 -42t-27 -57.5t-9 -62zM556 116q0 37 17 61t43.5 40.5t59 29t64 26.5t58 32t41.5 47q2 5 5.5 12.5
t3.5 12.5q0 32 -10 53.5t-28 34.5t-42.5 19t-53.5 6q24 12 53 12q76 0 108 -42.5t32 -113.5v-254q0 -23 9 -43.5t37 -20.5q22 0 39 14q-6 -20 -28.5 -33.5t-42.5 -13.5q-22 0 -36 8t-22 21.5t-10.5 31t-2.5 36.5v254q-12 -26 -34 -43t-47 -30t-50.5 -25.5t-46.5 -28.5
t-34 -39t-13 -58q0 -47 28.5 -75t75.5 -28q29 0 57 11t51 28q-26 -32 -62.5 -47.5t-78.5 -15.5q-27 0 -52 8t-44.5 23.5t-31.5 38t-12 51.5zM34 20q0 29 17.5 54.5t42.5 39.5q-17 -14 -28 -36t-11 -44q0 -26 16.5 -37t39.5 -11q35 0 69 6t68 13t68 13t69 6q63 0 102.5 -27.5
t39.5 -95.5q0 -42 -19.5 -76t-50.5 -57.5t-70 -36.5t-77 -13q-20 0 -41.5 4t-39 13.5t-29 25.5t-11.5 40q0 23 10 46t33 31q-7 -10 -7 -25q0 -25 11 -43.5t28.5 -30.5t39.5 -18t44 -6q29 0 57.5 8.5t51 25t36.5 41t14 56.5q0 46 -24.5 64.5t-67.5 18.5q-34 0 -66.5 -7
t-65 -15.5t-65 -15.5t-66.5 -7q-22 0 -43 6t-37.5 18t-27 30t-10.5 42z" />
    <glyph glyph-name="g_i" unicode="gi" horiz-adv-x="745" 
d="M257 509q7 0 13 -0.5t13 -0.5q5 40 24 74t47.5 59t65 39t76.5 14q31 0 61.5 -7t54.5 -20.5t39 -32t15 -41.5q0 -18 -10.5 -28.5t-28.5 -10.5t-29.5 10.5t-11.5 28.5q0 10 1.5 19.5t1.5 19.5q0 18 -9.5 28t-24 15t-30.5 6.5t-29 1.5q-38 0 -73 -13.5t-62 -37t-45 -56
t-23 -70.5q38 -6 71.5 -22.5t58.5 -42.5t40 -59.5t15 -73.5q0 -45 -19 -82.5t-50 -64.5t-71 -42t-83 -15q-42 0 -81 15.5t-69.5 42.5t-48.5 64.5t-18 80.5q0 44 18.5 81t49.5 64t70 42t81 15zM103 322q0 -35 11.5 -71.5t33 -66.5t52.5 -49t70 -19q34 0 60.5 16t44.5 41.5
t27 57t9 61.5q0 35 -12 71.5t-33.5 66.5t-53 49t-70.5 19q-34 0 -60 -16t-43.5 -41.5t-26.5 -57t-9 -61.5zM34 -157q0 32 14.5 61.5t40.5 48.5q-16 -29 -16 -66q0 -40 18.5 -73.5t48.5 -58t67.5 -38.5t74.5 -14q27 0 58.5 9.5t59 27t45.5 42.5t18 56q0 35 -29.5 52t-73.5 24
t-95 10t-95 11t-73.5 26t-29.5 56q0 17 8 32t21 26t29 18.5t31 10.5q-7 -4 -15.5 -11t-15.5 -15t-11.5 -17.5t-4.5 -18.5q0 -26 27.5 -36t69 -14.5t90 -8t90 -16t69 -38.5t27.5 -75q0 -46 -21 -77.5t-53.5 -51t-72.5 -28.5t-79 -9q-36 0 -75 8t-72 26t-54 47.5t-21 73.5z
M554 0q29 9 38 32t9 50v293q0 8 -1 19t-4 20.5t-9.5 16.5t-17.5 7l90 62v-418q0 -26 9.5 -49.5t37.5 -32.5h-152z" />
    <glyph glyph-name="r_a" unicode="ra" horiz-adv-x="694" 
d="M531 352q2 5 5.5 12.5t3.5 12.5q0 32 -10 53.5t-28 34.5t-42.5 19t-53.5 6q24 12 53 12q75 0 107.5 -42.5t32.5 -113.5v-254q0 -23 9 -43.5t37 -20.5q22 0 39 14q-7 -20 -28.5 -33.5t-42.5 -13.5q-22 0 -36 8t-22 21.5t-10.5 31t-2.5 36.5v254q-12 -26 -34 -43t-47 -30
t-50.5 -25.5t-46.5 -28.5t-34 -39t-13 -58q0 -47 28.5 -75t75.5 -28q29 0 57 11t51 28q-26 -32 -63 -47.5t-78 -15.5q-27 0 -52 8t-44.5 23.5t-31.5 38t-12 51.5q0 37 16.5 60.5t43 40.5t59 29.5t64 26.5t58.5 32t42 47zM10 0q29 9 38.5 31.5t9.5 50.5v293q0 8 -1 18.5
t-4.5 20t-10 16t-17.5 6.5l89 64v-418q0 -26 10.5 -49t37.5 -33h-152zM310 488q11 0 24 -2.5t24 -8t18 -15t7 -23.5t-8.5 -27t-24.5 -13q-18 0 -25.5 9.5t-15 21.5t-20 21.5t-39.5 9.5q-22 0 -49 -8.5t-44 -21.5q11 11 30.5 21.5t41.5 18.5t44 12.5t37 4.5z" />
    <glyph glyph-name="r_i" unicode="ri" horiz-adv-x="505" 
d="M75 82v294q0 8 -1 18.5t-4 20t-9.5 16t-17.5 6.5l89 63v-418q0 -18 2 -30t7.5 -20.5t15 -15.5t24.5 -16h-154q29 9 38.5 32t9.5 50zM362 82v193q0 8 -1 18.5t-4.5 20.5t-9.5 16.5t-17 6.5l89 63v-318q0 -27 10 -50t39 -32h-153q29 10 38 32t9 50zM366 523q10 0 21.5 -2
t21 -7.5t16 -14t6.5 -21.5q0 -20 -12.5 -28.5t-30.5 -8.5t-27.5 6.5t-18 14t-20 14t-32.5 6.5q-13 0 -31 -6t-36.5 -16t-36 -21.5t-29.5 -23.5q21 27 48 47.5t55 34t55.5 20t50.5 6.5z" />
    <glyph glyph-name=".notdef" horiz-adv-x="250" 
 />
    <glyph glyph-name=".null" horiz-adv-x="0" 
 />
    <glyph glyph-name=".null" horiz-adv-x="0" 
 />
    <glyph glyph-name="uni000D" unicode="&#xd;" horiz-adv-x="250" 
 />
    <glyph glyph-name="space" unicode=" " horiz-adv-x="250" 
 />
    <glyph glyph-name="exclam" unicode="!" horiz-adv-x="234" 
d="M79 656q0 22 11.5 35t30.5 13q20 0 30.5 -14t10.5 -34q0 -8 -2 -38.5t-4.5 -75t-6 -98.5t-7.5 -107.5t-7.5 -103t-6.5 -85.5h-14q-3 32 -6.5 79.5t-7.5 101.5t-7.5 109t-6.5 100.5t-5 77.5t-2 40zM121 86q17 0 31 -13t14 -32q0 -18 -13 -32.5t-32 -14.5q-22 0 -34 15
t-12 32q0 19 13 32t33 13z" />
    <glyph glyph-name="quotedbl" unicode="&#x22;" horiz-adv-x="350" 
d="M237 704q22 0 35.5 -13t13.5 -39q0 -25 -12 -51t-31 -43l-7 7q13 17 14 33t-13 16q-18 0 -31 12.5t-13 32.5q0 18 13 31.5t31 13.5zM67 659q0 18 13 31.5t31 13.5q22 0 35.5 -13t13.5 -39q0 -25 -12 -51t-31 -43l-7 7q13 17 14 33t-13 16q-18 0 -31 12.5t-13 32.5z" />
    <glyph glyph-name="numbersign" unicode="#" horiz-adv-x="676" 
d="M72 243l9 35h112l40 145h-112l9 35h112l66 242h38l-66 -242h171l66 242h38l-66 -242h122l-9 -35h-122l-40 -145h124l-10 -35h-123l-66 -243h-37l65 243h-171l-66 -243h-37l65 243h-112zM231 278h171l40 145h-171z" />
    <glyph glyph-name="dollar" unicode="$" horiz-adv-x="561" 
d="M48 205q26 -80 81 -134.5t132 -64.5v312q-38 18 -74 38t-64 45.5t-45 58t-17 75.5q0 44 16 77.5t43.5 56t64 34t76.5 11.5v69h28v-71q21 -1 43 -5.5t46.5 -11.5t53 -15.5t62.5 -17.5q0 -1 -0.5 -18t-2.5 -37q-1 -24 -3 -53q-9 32 -29 57.5t-46.5 44.5t-58 30.5
t-65.5 15.5v-302q40 -20 79.5 -41.5t71 -48.5t51.5 -61.5t20 -80.5q0 -44 -19 -77t-50.5 -55.5t-71 -34t-81.5 -12.5v-73h-28v75q-27 3 -58 13t-59.5 20.5t-51.5 19t-34 8.5q-6 0 -8 -3zM289 4q31 0 62.5 7.5t57 23t42 40.5t17.5 61q0 32 -14.5 56t-39 43.5t-57 36.5
t-68.5 33v-301zM106 576q0 -29 12.5 -52t33.5 -42.5t49 -35.5t60 -32v289q-30 -1 -58 -9t-49.5 -23.5t-34.5 -39t-13 -55.5z" />
    <glyph glyph-name="percent" unicode="%" horiz-adv-x="632" 
d="M459 262q24 0 44.5 -10.5t35.5 -28.5t24 -42.5t9 -52.5q0 -27 -9 -51.5t-24 -42.5t-35.5 -28.5t-44.5 -10.5t-44.5 10.5t-36 28.5t-24.5 42.5t-9 51.5q0 28 9 52.5t24.5 42.5t36 28.5t44.5 10.5zM181 700q23 0 43.5 -10.5t36 -28.5t24.5 -42.5t9 -52.5q0 -27 -9 -51.5
t-24.5 -42.5t-36 -28.5t-43.5 -10.5q-24 0 -44.5 10.5t-36 28.5t-24.5 42.5t-9 51.5q0 28 9 52.5t24.5 42.5t36 28.5t44.5 10.5zM170 0l256 702h39q-17 -48 -41 -114t-50.5 -139t-53.5 -146.5t-49.5 -135.5t-39 -107t-22.5 -60h-39zM125 566q0 -25 4.5 -48t12 -40t17.5 -27
t22 -10q11 0 21.5 10t18 27t12 40t4.5 48q0 26 -4.5 49t-12 40t-18 27t-21.5 10q-12 0 -22 -10t-17.5 -27t-12 -40t-4.5 -49zM404 128q0 -25 4 -48t11.5 -40t17.5 -27t22 -10t22 10t17.5 27t12 40t4.5 48q0 26 -4.5 48.5t-12 39.5t-17.5 27t-22 10t-22 -10t-17.5 -27
t-11.5 -39.5t-4 -48.5z" />
    <glyph glyph-name="ampersand" unicode="&#x26;" horiz-adv-x="687" 
d="M40 212q0 73 39.5 133t109.5 91q-16 25 -29.5 56.5t-13.5 66.5q0 31 12.5 57.5t34 46t50.5 30.5t62 11q27 0 51.5 -9t43 -24.5t29.5 -36.5t11 -44q0 -18 -8.5 -36t-27.5 -33q5 26 2.5 55.5t-14.5 55t-33.5 42.5t-53.5 17q-50 0 -83.5 -30t-33.5 -83q0 -34 28 -80
t75.5 -99t109.5 -110t130 -113q12 21 24.5 52.5t12.5 66.5q0 17 -6.5 30t-17 22.5t-23.5 16l-25 12.5l167 -8q-18 -8 -32 -33t-26.5 -56t-26 -63t-30.5 -54q29 -21 57.5 -45.5t59 -47.5t62.5 -42t66 -30h-88q-16 0 -31 3.5t-31 14.5l-129 98q-54 -66 -109 -92.5t-124 -26.5
q-53 0 -96 15.5t-74.5 44t-49.5 68.5t-21 90zM104 235q0 -45 16 -84.5t43.5 -69t64.5 -46.5t79 -17q56 0 104 29t87 79q-69 57 -117.5 102t-83 80.5t-57 63l-40.5 49.5q-45 -35 -70.5 -85t-25.5 -101z" />
    <glyph glyph-name="quotesingle" unicode="'" horiz-adv-x="225" 
d="M67 659q0 18 13 31.5t31 13.5q22 0 35.5 -13t13.5 -39q0 -25 -12 -51t-31 -43l-7 7q13 17 14 33t-13 16q-18 0 -31 12.5t-13 32.5z" />
    <glyph glyph-name="parenleft" unicode="(" horiz-adv-x="290" 
d="M39 351q0 68 16.5 127.5t44.5 109t66 86.5t81 60v-11q-38 -23 -65 -63.5t-44.5 -91t-26 -107t-8.5 -110.5t10.5 -110t29.5 -105.5t45 -88t57 -58.5v-10q-32 16 -68.5 50.5t-67 83t-50.5 109t-20 129.5z" />
    <glyph glyph-name="parenright" unicode=")" horiz-adv-x="285" 
d="M39 -21q38 23 65 63.5t44.5 91t26 107t8.5 110.5t-10.5 110t-29.5 105.5t-45 88t-57 58.5v10q32 -16 68.5 -51t67 -83.5t50.5 -109t20 -128.5t-16.5 -127.5t-44.5 -109t-66 -86.5t-81 -60v11z" />
    <glyph glyph-name="asterisk" unicode="*" horiz-adv-x="237" 
d="M42 588q0 8 8 13l60 29l-60 27q-8 5 -8 12q0 5 3.5 10t11.5 5q4 0 10 -3l47 -38l-7 56q0 8 5 12.5t12 4.5q16 0 16 -16l-11 -58l49 38q5 3 10 3q8 0 11.5 -5.5t3.5 -10.5q0 -8 -8 -12l-59 -26l58 -27q9 -6 9 -13q0 -5 -3.5 -9.5t-10.5 -4.5t-11 4l-49 37l10 -61
q-3 -15 -17 -15q-5 0 -10.5 4t-4.5 11l8 62l-47 -39q-4 -4 -11 -4t-11 4.5t-4 9.5z" />
    <glyph glyph-name="plus" unicode="+" horiz-adv-x="347" 
d="M164 312v78h39v-78h61v-12h-61v-71h-39v71h-62v12h62z" />
    <glyph glyph-name="comma" unicode="," horiz-adv-x="218" 
d="M61 44q0 19 13 32.5t31 13.5q22 0 35.5 -13.5t13.5 -38.5q0 -26 -12 -52t-31 -43l-7 7q13 17 14 33t-13 16q-18 0 -31 13t-13 32z" />
    <glyph glyph-name="hyphen" unicode="-" horiz-adv-x="397" 
d="M103 288v39h196v-39h-196z" />
    <glyph glyph-name="period" unicode="." horiz-adv-x="217" 
d="M62 45q0 19 13 31.5t32 12.5q18 0 32 -12.5t14 -31.5q0 -18 -13 -32t-33 -14q-21 0 -33 14.5t-12 31.5z" />
    <glyph glyph-name="slash" unicode="/" horiz-adv-x="428" 
d="M108 0h-39l247 700h39z" />
    <glyph glyph-name="zero" unicode="0" horiz-adv-x="570" 
d="M285 704q51 0 95.5 -27.5t77.5 -75.5t52 -112.5t19 -137.5t-19 -137t-52 -112t-77.5 -75.5t-95.5 -27.5t-95.5 27.5t-77.5 75.5t-52.5 112t-19.5 137t19.5 137.5t52.5 112.5t77.5 75.5t95.5 27.5zM285 8q35 0 65.5 27t53 73.5t36 109t13.5 133.5t-13.5 133.5t-36 109
t-53 73.5t-65.5 27q-34 0 -64.5 -27t-53.5 -73.5t-36 -109t-13 -133.5t13 -133.5t36 -109t53.5 -73.5t64.5 -27z" />
    <glyph glyph-name="one" unicode="1" horiz-adv-x="252" 
d="M41 636l123 65v-621q1 -40 15.5 -57t32.5 -23h-164q19 6 33.5 23.5t14.5 58.5v509q0 25 -12 35.5t-32 10.5q-7 0 -11 -1z" />
    <glyph glyph-name="two" unicode="2" horiz-adv-x="550" 
d="M50 0q11 5 31 23t44 42.5t50 53t49 54.5t41 47.5t26 31.5q39 51 63 92t37 74.5t17.5 61t4.5 51.5q0 63 -33.5 96.5t-98.5 33.5q-22 0 -45.5 -7t-46 -22.5t-43 -39.5t-37.5 -57l-8 3q17 33 39.5 62.5t51 52t61.5 35.5t69 13q76 0 120.5 -45t44.5 -123q0 -38 -18 -80
t-47 -85.5t-66 -86.5t-74.5 -83t-72.5 -74.5t-61 -61.5h215q32 0 54.5 4t38.5 11.5t27 17t18 21.5l-28 -116h-423z" />
    <glyph glyph-name="three" unicode="3" horiz-adv-x="550" 
d="M64 68l12 10q30 -30 69 -47.5t81 -17.5q59 0 100 20.5t66.5 51.5t37 68t12.5 70q3 74 -41 109t-119 35q-9 0 -18 -0.5t-18 -1.5q27 16 55 38t51.5 48t38 54.5t14.5 56.5t-11.5 48.5t-30.5 33.5t-42 19t-47 6q-28 0 -53 -10t-46.5 -27t-39.5 -38.5t-33 -44.5l-8 3
q18 32 40 60t49.5 49.5t61 34t72.5 12.5q35 0 62 -9.5t45.5 -26t28.5 -37.5t10 -45q-1 -37 -17 -67t-40.5 -55t-55.5 -46.5t-62 -42.5q18 3 36 3q36 0 70.5 -12.5t61 -35t42.5 -54t16 -69.5q-2 -47 -23.5 -87t-57 -69t-81 -45.5t-95.5 -16.5q-54 0 -102 20t-91 55z" />
    <glyph glyph-name="four" unicode="4" horiz-adv-x="577" 
d="M437 707v-467h6q32 0 61 15t41 38l-25 -110h-83v-103q1 -40 16 -57t33 -23h-165q20 6 34.5 23.5t14.5 58.5v101h-317zM370 240v352l-252 -352h252z" />
    <glyph glyph-name="five" unicode="5" horiz-adv-x="517" 
d="M59 52l9 14q31 -23 65.5 -38t77.5 -15q41 0 75.5 17t60 46t40 69t14.5 85q-1 54 -18.5 99t-52 77.5t-85.5 51.5t-120 20l34 222h162q39 0 70 7t44 30l-33 -100h-239l-24 -149q58 0 116.5 -11t106 -38t77 -73t29.5 -116q0 -67 -24 -115t-60.5 -79t-80 -45t-82.5 -14
q-55 0 -92 18t-70 37z" />
    <glyph glyph-name="six" unicode="6" horiz-adv-x="542" 
d="M45 302q0 86 29.5 154t78 118.5t111 83t128.5 46.5l3 -14q-70 -11 -119.5 -44.5t-81.5 -80t-49 -102.5t-22 -112q10 19 26.5 36.5t37.5 31t45 21.5t49 8q53 0 93.5 -15.5t68.5 -42.5t42.5 -64.5t14.5 -81.5q0 -34 -12 -76.5t-39 -79.5t-69.5 -62.5t-104.5 -25.5
q-57 0 -100 26.5t-72 69.5t-43.5 97t-14.5 109zM122 270q0 -42 8.5 -87t27.5 -82.5t48 -62t69 -24.5q51 0 80.5 22.5t44.5 55t19.5 67t4.5 58.5q0 40 -7 79.5t-23.5 71t-43.5 51t-66 19.5q-27 0 -56 -11.5t-52.5 -33.5t-38.5 -53t-15 -70z" />
    <glyph glyph-name="seven" unicode="7" horiz-adv-x="556" 
d="M96 700h400l-305 -700h-18l277 636h-241q-68 0 -102 -18t-47 -41z" />
    <glyph glyph-name="eight" unicode="8" horiz-adv-x="512" 
d="M204 383q-20 16 -40.5 34.5t-37 40t-26.5 46.5t-10 53q0 35 15.5 62.5t40.5 46.5t57 29t65 10q26 0 55.5 -8t55 -25t42.5 -43.5t17 -63.5q0 -54 -40 -91.5t-104 -69.5q31 -16 62 -39t56.5 -51.5t41.5 -61.5t16 -69q0 -34 -14.5 -67.5t-42 -59.5t-66.5 -42t-89 -16
q-42 0 -81 13t-69.5 37.5t-49 59t-18.5 77.5q0 35 13 63.5t35 52.5t52 44t64 38zM256 12q31 0 60 11t51 30.5t35.5 46t13.5 57.5q0 39 -19 68.5t-48 54t-64.5 47t-68.5 47.5q-36 -21 -59.5 -42.5t-37.5 -44.5t-19.5 -49t-5.5 -55q0 -34 12.5 -65.5t34 -54.5t51.5 -37t64 -14
zM144 578q0 -27 11 -50.5t30 -44t43.5 -38t51.5 -32.5q22 14 41.5 29.5t34.5 34.5t24 43t9 54q0 52 -32.5 85t-85.5 33q-28 0 -51.5 -9t-40 -25t-26 -36.5t-9.5 -43.5z" />
    <glyph glyph-name="nine" unicode="9" horiz-adv-x="545" 
d="M45 459q0 34 12 76.5t39 79.5t70 62.5t104 25.5q57 0 100 -26.5t72 -69.5t43.5 -97t14.5 -109q0 -85 -29.5 -153.5t-78 -119t-111 -83t-128.5 -46.5l-3 14q70 11 119.5 44t81.5 80t49 103t22 112q-10 -19 -26.5 -36.5t-37.5 -31t-45 -21.5t-49 -8q-52 0 -93 15.5
t-69 42.5t-42.5 64.5t-14.5 81.5zM121 486q0 -40 7.5 -80t24 -71.5t43 -51t65.5 -19.5q27 0 56 12t52.5 33.5t38.5 53t15 70.5q0 42 -8.5 87t-27.5 82.5t-47.5 62t-69.5 24.5q-51 0 -80.5 -22.5t-44.5 -55t-19.5 -67t-4.5 -58.5z" />
    <glyph glyph-name="colon" unicode=":" horiz-adv-x="207" 
d="M107 295q18 0 32 -13t14 -31q0 -19 -13 -33t-33 -14q-21 0 -33 15t-12 32q0 18 13 31t32 13zM62 418q0 19 13 31.5t32 12.5q18 0 32 -12.5t14 -31.5q0 -18 -13 -32t-33 -14q-21 0 -33 14.5t-12 31.5z" />
    <glyph glyph-name="semicolon" unicode=";" horiz-adv-x="211" 
d="M106 295q21 0 34.5 -13.5t13.5 -38.5q0 -26 -11.5 -52t-30.5 -43l-7 7q13 17 13.5 33t-12.5 16q-19 0 -32 13t-13 33q0 18 13 31.5t32 13.5zM62 418q0 19 13 31.5t32 12.5q17 0 31.5 -12.5t14.5 -31.5q0 -18 -13 -32t-33 -14q-22 0 -33.5 14.5t-11.5 31.5z" />
    <glyph glyph-name="less" unicode="&#x3c;" horiz-adv-x="255" 
d="M52 346l141 189l12 -49l-102 -140l102 -145l-12 -55z" />
    <glyph glyph-name="equal" unicode="=" horiz-adv-x="393" 
d="M103 314h196v-40h-196v40zM299 411v-40h-196v40h196z" />
    <glyph glyph-name="greater" unicode="&#x3e;" horiz-adv-x="289" 
d="M221 346l-141 -189l-12 49l102 140l-102 145l12 55z" />
    <glyph glyph-name="question" unicode="?" horiz-adv-x="841" 
d="M313 701q75 0 120 -42.5t45 -117.5q0 -46 -16 -84t-40 -71.5t-51.5 -64t-51.5 -62.5t-40 -66.5t-16 -75.5h-12q0 42 11.5 78.5t28 70t36.5 65.5t36.5 65t28 68t11.5 74q0 26 -9 47.5t-26 38t-41 25.5t-54 9q-22 0 -45.5 -7t-46 -22t-43 -38t-37.5 -56l-8 3q16 32 38 61.5
t50 52t61 36t71 13.5zM256 -9q-22 0 -34 15t-12 32q0 18 13 31t33 13q17 0 31 -13t14 -31q0 -19 -13 -33t-32 -14z" />
    <glyph glyph-name="at" unicode="@" horiz-adv-x="832" 
d="M465 699q85 0 146 -26.5t100.5 -69.5t58.5 -97t19 -108q0 -48 -13.5 -92t-39.5 -78.5t-63.5 -55t-85.5 -20.5q-41 0 -68 23.5t-27 60.5q-7 -15 -18.5 -30t-26.5 -27t-33 -19.5t-38 -7.5q-35 0 -61 12.5t-43.5 33.5t-26 48.5t-8.5 57.5q0 39 14 79.5t41 73t67 53t92 20.5
q34 0 58.5 -20t29.5 -46l16 53h69q-12 -47 -25.5 -90.5t-24.5 -81.5t-18 -69t-7 -54q0 -26 12.5 -41t43.5 -15q30 0 54.5 18.5t41.5 49t26.5 71t9.5 84.5q0 53 -14.5 106.5t-46.5 96.5t-81.5 69.5t-120.5 26.5q-70 0 -132 -29t-107.5 -78.5t-72 -115t-26.5 -138.5
q0 -66 22.5 -123t63 -99.5t97 -66.5t125.5 -24q31 0 63.5 7.5t63.5 19.5t58.5 28.5t48.5 34.5l25 -1q-26 -21 -57.5 -40t-66.5 -33.5t-73 -23t-78 -8.5q-70 0 -135.5 23.5t-115 66t-79.5 103.5t-30 136q0 80 29.5 148t82.5 117.5t125.5 78t159.5 28.5zM384 168q28 0 53.5 25
t44.5 62.5t30.5 81.5t11.5 82q0 40 -14.5 66.5t-46.5 26.5q-37 0 -66.5 -21.5t-50.5 -55t-32 -74t-11 -77.5q0 -48 19.5 -82t61.5 -34z" />
    <glyph glyph-name="A" unicode="A" horiz-adv-x="704" 
d="M51 0q23 8 44 31t30 45l242 633l239 -631q9 -24 25.5 -47t42.5 -31h-176q17 6 28.5 23t11.5 35q0 11 -10 41t-23.5 64.5t-26 66t-18.5 45.5h-245l-65 -169q-4 -10 -6.5 -20.5t-2.5 -21.5q0 -26 16.5 -41t39.5 -23h-146zM454 286l-117 312l-119 -312h236z" />
    <glyph glyph-name="B" unicode="B" horiz-adv-x="568" 
d="M15 0q29 8 38.5 32t9.5 50v538q0 26 -9.5 49t-38.5 31h227q40 0 79 -9t70 -29t50 -52t19 -78q0 -59 -35.5 -99t-90.5 -54q41 -4 76.5 -17.5t62.5 -36.5t42.5 -56.5t15.5 -77.5q0 -51 -21 -87t-54.5 -59t-76.5 -34t-88 -11h-276zM130 12h148q84 0 130 48t46 131
q0 85 -49 131t-133 46h-142v-356zM232 380q73 0 115 38.5t42 113.5q0 72 -40.5 114.5t-113.5 42.5h-105v-309h102z" />
    <glyph glyph-name="C" unicode="C" horiz-adv-x="697" 
d="M406 703q29 0 59.5 -3.5t61 -12t58.5 -21t50 -30.5v-100q-21 30 -48 58t-59 49.5t-68 34t-74 12.5q-64 0 -112 -27.5t-79.5 -72t-47.5 -101t-16 -113.5q0 -61 17.5 -126t52.5 -118.5t88 -87.5t124 -34q38 0 73 13t65 35t55.5 50t44.5 59l13 -66q-25 -21 -56 -39.5
t-65 -33t-69 -23t-68 -8.5q-74 0 -139 27.5t-113 75t-76 112t-28 138.5q0 75 28 139.5t76 112t113 74.5t139 27z" />
    <glyph glyph-name="D" unicode="D" horiz-adv-x="707" 
d="M308 700q72 0 136.5 -27.5t112.5 -75t76.5 -111.5t28.5 -136t-26 -135.5t-72 -111.5t-108.5 -75.5t-135.5 -27.5h-270q29 8 38.5 31.5t9.5 49.5v538q0 26 -10 49.5t-38 31.5h258zM166 13h82q77 0 139 24t106 68t68 106t24 139t-23.5 139.5t-67.5 106.5t-106.5 68
t-139.5 24h-82v-675z" />
    <glyph glyph-name="E" unicode="E" horiz-adv-x="556" 
d="M98 82v538q0 27 -9.5 49t-38.5 31h436l27 -119q-57 107 -175 107h-172v-326h118q32 0 58 13t37 46v-129q-11 33 -37 45.5t-58 12.5h-118v-338h171q59 0 107 27t76 80l-29 -119h-441q29 9 38.5 32t9.5 50z" />
    <glyph glyph-name="F" unicode="F" horiz-adv-x="519" 
d="M98 82v538q0 27 -9.5 49t-38.5 31h436l27 -119q-57 107 -175 107h-172v-326h118q32 0 58 13.5t37 45.5v-129q-10 32 -37 45t-58 13h-118v-269q0 -26 10.5 -49t37.5 -32h-164q29 9 38.5 32t9.5 50z" />
    <glyph glyph-name="G" unicode="G" horiz-adv-x="728" 
d="M35 350q0 75 28 139.5t76 112t113 74.5t139 27q28 0 59 -3.5t61.5 -11.5t58.5 -21t50 -31v-100q-21 30 -48 58t-59 49.5t-68 34t-74 12.5q-62 0 -110 -30t-81 -77.5t-50 -105t-17 -112.5q0 -60 20.5 -123t58 -114.5t91 -84t120.5 -32.5q27 0 59 9t60 26.5t46.5 42.5
t18.5 56q0 11 0.5 23t0.5 23q0 14 -1.5 28.5t-6.5 27t-14 22.5t-25 15h155q-24 -8 -35 -29.5t-11 -44.5v-215q-5 8 -11.5 18t-14.5 19t-17 15t-20 6q-5 0 -10 -2l-10 -4q-43 -21 -85 -35.5t-91 -14.5q-74 0 -139 27.5t-113 75t-76 112t-28 138.5z" />
    <glyph glyph-name="H" unicode="H" horiz-adv-x="693" 
d="M98 80v540q0 27 -9.5 49t-38.5 31h164q-29 -9 -38.5 -31t-9.5 -49v-256h353v256q0 27 -9.5 49t-38.5 31h164q-29 -9 -38.5 -31t-9.5 -49v-538q0 -27 10 -50t38 -32h-164q29 9 38.5 32t9.5 50v271h-353v-273q0 -26 10.5 -48.5t37.5 -31.5h-164q29 9 38.5 30.5t9.5 49.5z
" />
    <glyph glyph-name="I" unicode="I" horiz-adv-x="289" 
d="M214 700q-29 -9 -38.5 -31t-9.5 -49v-538q0 -27 10 -50t38 -32h-164q29 9 38.5 32t9.5 50v538q0 27 -9.5 49t-38.5 31h164z" />
    <glyph glyph-name="J" unicode="J" horiz-adv-x="416" 
d="M83 125q8 0 14.5 -3.5t9.5 -11.5q7 -7 9.5 -17.5t4 -21.5t4 -22.5t9.5 -20.5t21 -14.5t38 -5.5q31 0 49 15t27 38t11.5 50t2.5 51v458q0 27 -9.5 49t-38.5 31h164q-29 -9 -38.5 -31t-9.5 -49v-428q0 -43 -7.5 -79.5t-26.5 -62.5t-51 -41t-80 -15q-21 0 -45 5.5
t-44.5 16.5t-33.5 29.5t-13 43.5q0 14 9 25t24 11z" />
    <glyph glyph-name="K" unicode="K" horiz-adv-x="619" 
d="M213 700q-29 -9 -38.5 -31t-9.5 -49v-311l292 312q6 7 9.5 14t3.5 16q0 17 -12.5 30.5t-27.5 18.5h146q-29 -9 -54 -31.5t-45 -44.5l-166 -177q-7 -7 -7 -17q0 -7 5 -15l239 -347q6 -9 16.5 -19.5t22 -20t24 -17.5t22.5 -11h-108q-13 0 -23 13l-232 338q-8 13 -25 13
q-9 0 -20.5 -8.5t-22.5 -20t-21 -23.5t-16 -19v-211q0 -28 9.5 -50t38.5 -32h-164q29 9 38.5 32t9.5 50v538q0 12 -3 24.5t-9 23.5t-15 19.5t-21 12.5h164z" />
    <glyph glyph-name="L" unicode="L" horiz-adv-x="524" 
d="M214 700q-29 -9 -38.5 -31t-9.5 -49v-609h180q60 0 100.5 31t69.5 81l-28 -123h-438q29 9 38.5 32t9.5 50v538q0 27 -9.5 49t-38.5 31h164z" />
    <glyph glyph-name="M" unicode="M" horiz-adv-x="907" 
d="M186 700l294 -601l255 601h110q-29 -9 -38.5 -31t-9.5 -49v-539q0 -27 9.5 -49.5t38.5 -31.5h-164q29 9 39 31t10 50v576l-279 -656l-317 652v-564q0 -36 20.5 -57t52.5 -32h-156q32 11 52 32.5t20 56.5v527q0 33 -21.5 54t-50.5 30h135z" />
    <glyph glyph-name="N" unicode="N" horiz-adv-x="686" 
d="M51 0q32 10 51 32t19 56v521q0 35 -18.5 57.5t-50.5 33.5h126l402 -564v476q0 34 -19 56t-51 32h150q-32 -10 -50 -32t-18 -56v-612l-461 647v-559q0 -35 20 -56.5t52 -31.5h-152z" />
    <glyph glyph-name="O" unicode="O" 
d="M404 703q73 0 137.5 -27.5t112.5 -75.5t75.5 -112.5t27.5 -137.5t-27.5 -137.5t-75.5 -112.5t-112.5 -75.5t-137.5 -27.5t-137.5 27.5t-112.5 75.5t-75.5 112.5t-27.5 137.5t27.5 137.5t75.5 112.5t112.5 75.5t137.5 27.5zM423 7q63 0 111 30t81 77.5t50 105.5t17 113
q0 61 -20 125t-58 116t-92.5 85t-122.5 33q-62 0 -110.5 -30t-81.5 -77.5t-50 -105t-17 -112.5q0 -60 20.5 -124t59 -116.5t92.5 -86t121 -33.5z" />
    <glyph glyph-name="P" unicode="P" horiz-adv-x="605" 
d="M50 0q29 8 38.5 32t9.5 50v537q0 26 -10 49.5t-38 31.5h244q52 0 99.5 -11.5t84 -37t58 -66t21.5 -98.5q0 -56 -23.5 -96.5t-61.5 -66.5t-86 -38t-98 -12h-122v-194q0 -26 10.5 -49t37.5 -31h-164zM166 688v-402h116q93 0 147 54t54 147q0 94 -53.5 147.5t-147.5 53.5
h-116z" />
    <glyph glyph-name="Q" unicode="Q" 
d="M408 703q73 0 137 -27.5t112 -75.5t75.5 -112.5t27.5 -137.5q0 -70 -25.5 -132t-70 -110t-105 -77.5t-130.5 -33.5q24 -10 49.5 -26.5t52 -32.5t53.5 -27.5t53 -11.5q23 0 44.5 5.5t41.5 15.5q-13 -29 -40 -46t-58 -17q-40 0 -70.5 19.5t-58.5 43t-57.5 43t-66.5 19.5
q-33 0 -64.5 -10t-59.5 -27q22 21 48.5 36t56.5 20q-64 10 -119 41t-95 78t-62.5 106t-22.5 124q0 73 28 137.5t76 112.5t112.5 75.5t137.5 27.5zM432 7q62 0 108.5 30.5t77.5 78t47 104.5t16 111q0 63 -20.5 127.5t-59 116t-94 84t-125.5 32.5q-61 0 -107.5 -30.5
t-78 -77.5t-47.5 -104t-16 -110q0 -63 20.5 -127.5t59 -116.5t94 -85t125.5 -33z" />
    <glyph glyph-name="R" unicode="R" horiz-adv-x="622" 
d="M51 0q29 9 38.5 32t9.5 50v538q0 26 -10 49t-38 31h237q51 0 99.5 -11.5t86.5 -37t61 -66t23 -98.5q0 -42 -14 -76.5t-38.5 -60.5t-58.5 -44t-73 -26l142 -222q13 -20 32.5 -34.5t41.5 -23.5h-112l-176 275h-135v-195q0 -26 10.5 -48.5t37.5 -31.5h-164zM167 286h117
q46 0 83 14.5t63.5 40.5t40.5 63t14 83q0 94 -53.5 147.5t-147.5 53.5h-117v-402z" />
    <glyph glyph-name="S" unicode="S" horiz-adv-x="549" 
d="M48 205q13 -38 35 -74t52 -64t67.5 -45t80.5 -17q32 0 64.5 7t59 22.5t43.5 41.5t17 63q0 46 -29.5 76.5t-74.5 55t-96.5 47t-96.5 51.5t-74.5 68t-29.5 98q0 45 17 78.5t46 56t67 34t79 11.5q29 0 55.5 -8.5t49.5 -18t40.5 -18t27.5 -8.5q18 0 29.5 12.5t16.5 28.5
q-1 -42 -3 -82.5t-3 -82.5q-10 36 -31.5 66t-50 52.5t-63.5 35t-72 12.5q-29 0 -57.5 -7.5t-51 -23.5t-36.5 -40t-14 -57q0 -35 17.5 -61t45.5 -47.5t64 -39.5t74 -36.5t74 -39t64 -46.5t45.5 -60t17.5 -79t-21 -78.5t-54 -55t-73.5 -32t-79.5 -10.5q-25 0 -49 6.5t-47.5 15
t-46 15t-45.5 6.5q-16 0 -29 -8t-21 -21v200z" />
    <glyph glyph-name="T" unicode="T" horiz-adv-x="644" 
d="M76 700h506l26 -114q-24 45 -65.5 72.5t-93.5 27.5h-87v-604q0 -26 10 -49.5t38 -32.5h-164q29 9 38.5 32t9.5 50l1 604h-85q-54 0 -94 -27.5t-65 -73.5z" />
    <glyph glyph-name="U" unicode="U" horiz-adv-x="680" 
d="M205 700q-28 -8 -38 -31t-10 -49v-373q0 -46 11.5 -88t35.5 -73.5t61 -50t88 -18.5q53 0 90.5 16.5t61.5 45.5t35.5 70.5t11.5 90.5v372q0 35 -19.5 56.5t-51.5 31.5h153q-32 -10 -51.5 -32t-19.5 -57v-372q0 -56 -13 -101.5t-40.5 -77.5t-70 -49.5t-101.5 -17.5
q-121 0 -185 64t-64 185v378q0 26 -10 49t-38 31h164z" />
    <glyph glyph-name="V" unicode="V" horiz-adv-x="722" 
d="M205 700q-17 -5 -26.5 -22.5t-9.5 -34.5q0 -13 5 -26l209 -512l214 517q5 12 5 23q0 22 -16.5 36.5t-36.5 18.5h142q-32 -10 -51.5 -29.5t-31.5 -49.5l-255 -621l-253 618q-10 24 -24 47.5t-40 34.5h169z" />
    <glyph glyph-name="W" unicode="W" horiz-adv-x="945" 
d="M28 700h169q-18 -6 -27 -24t-9 -36q0 -5 1 -11.5t3 -11.5l157 -487l135 446q-7 17 -13.5 35.5t-15.5 36t-22 31.5t-31 21h169q-18 -6 -27 -23.5t-9 -35.5q0 -13 4 -24l157 -487l150 492q3 9 3 20q0 22 -15.5 38t-35.5 20h141q-64 -16 -82 -78l-188 -620l-179 555
l-168 -555l-202 616q-8 25 -23.5 48t-41.5 34z" />
    <glyph glyph-name="X" unicode="X" horiz-adv-x="630" 
d="M32 700h175q-14 -4 -20 -16t-6 -25q0 -11 4 -22t10 -21l142 -219l133 200q7 11 12 23t5 25q0 20 -13 34.5t-32 20.5h144q-13 -4 -26 -14t-25 -22.5t-22 -26t-18 -24.5l-151 -228l203 -311q6 -10 14 -21.5t17.5 -22t20.5 -18.5t23 -12h-178q14 5 20.5 17t6.5 26
q0 22 -15 45l-154 238l-146 -219q-8 -11 -13 -24t-5 -27q0 -20 12.5 -35t30.5 -21h-144q12 4 25 14t25.5 23t23 26.5t17.5 23.5l167 252l-179 275q-7 11 -16.5 24t-20.5 25.5t-23 22.5t-24 14z" />
    <glyph glyph-name="Y" unicode="Y" horiz-adv-x="597" 
d="M23 700h166q-13 -5 -19 -17t-6 -26q0 -18 10 -38l151 -287l137 263q5 11 9 22t4 23q0 20 -11.5 37t-30.5 23h142q-13 -4 -26.5 -14t-26 -23t-22.5 -27t-16 -26l-149 -288v-242q0 -27 10 -49t38 -31h-164q29 9 38.5 32t9.5 50v223l-169 317q-6 11 -13.5 23t-17.5 23
t-21 19.5t-23 12.5z" />
    <glyph glyph-name="Z" unicode="Z" horiz-adv-x="572" 
d="M27 0l424 688h-208q-58 0 -104.5 -30t-73.5 -81l30 123h440l-424 -688h220q27 0 54 8t50.5 23t43 35t32.5 44l-31 -122h-453z" />
    <glyph glyph-name="bracketleft" unicode="[" horiz-adv-x="292" 
d="M214 790v-40h-63v-798h63v-39h-119v877h119z" />
    <glyph glyph-name="backslash" unicode="\" horiz-adv-x="489" 
d="M428 0h-40l-328 700h40z" />
    <glyph glyph-name="bracketright" unicode="]" horiz-adv-x="264" 
d="M198 790v-877h-119v40h63v798h-63v39h119z" />
    <glyph glyph-name="asciicircum" unicode="^" horiz-adv-x="360" 
d="M102 759l62 80h35l63 -80h-32l-48 54l-46 -54h-34z" />
    <glyph glyph-name="underscore" unicode="_" horiz-adv-x="475" 
d="M89 -43v32h295v-32h-295z" />
    <glyph glyph-name="a" unicode="a" horiz-adv-x="465" 
d="M19 106q0 40 19 67t48 44t64 27.5t68 17.5t59 14t37 17v56q0 24 -5 49t-17 45t-31.5 33t-48.5 13q-13 0 -30.5 -3.5t-33.5 -10.5t-27 -18.5t-11 -28.5q0 -11 2.5 -21t2.5 -21q0 -37 -38 -37q-17 0 -26 11.5t-9 27.5q0 25 20 46t48.5 36t59 23t51.5 8q79 0 114 -39
t35 -116v-253q0 -23 9.5 -42.5t36.5 -19.5q22 0 39 14q-6 -20 -28.5 -33.5t-42.5 -13.5q-22 0 -36 8t-21.5 21t-10 30t-2.5 36v183q-33 -10 -72.5 -20.5t-73 -27.5t-56.5 -44.5t-23 -72.5q0 -42 26 -66t68 -24q30 0 59 8t54 25q-31 -31 -67 -43.5t-80 -12.5q-25 0 -48.5 6.5
t-41.5 20t-29 34t-11 47.5z" />
    <glyph glyph-name="b" unicode="b" horiz-adv-x="540" 
d="M109 745v-584q0 -31 15.5 -59t39.5 -49t54.5 -33t60.5 -12q44 0 74 24.5t49 61t27 78.5t8 77q0 37 -8.5 78t-27.5 75t-49.5 56t-75.5 22q-44 0 -74.5 -17t-60.5 -46q25 40 66.5 63t88.5 23q51 0 89 -19.5t63.5 -52.5t38 -75.5t12.5 -89.5q0 -54 -14.5 -103.5t-43.5 -87
t-73 -60t-103 -22.5q-45 0 -89.5 21.5t-77.5 50.5l-45 -69v612q0 9 -1 20.5t-5 22t-11.5 17.5t-19.5 7z" />
    <glyph glyph-name="c" unicode="c" horiz-adv-x="480" 
d="M287 498q25 0 54.5 -6.5t55.5 -20t43.5 -35t17.5 -51.5q0 -15 -8 -27t-25 -12q-18 0 -26.5 13t-8.5 29q0 23 -10 41.5t-26.5 32t-37.5 21t-42 7.5q-41 0 -74 -19.5t-56.5 -50.5t-36.5 -69t-13 -75q0 -46 11 -90.5t35 -78.5t61.5 -55t89.5 -21q51 0 98 22t81 60
q-32 -60 -86 -90t-121 -30q-51 0 -93 20t-72.5 53.5t-47 78t-16.5 93.5q0 57 18 105t51 82.5t79.5 53.5t104.5 19z" />
    <glyph glyph-name="d" unicode="d" horiz-adv-x="548" 
d="M269 502q24 0 43.5 -3.5t36.5 -11t33 -19t34 -26.5v161q0 9 -1 20.5t-5 22t-11.5 17.5t-19.5 7l93 71v-616q0 -19 7 -35t30 -18l-93 -70v351q0 29 -14 54t-36 44t-49.5 30t-54.5 11q-43 0 -75 -22.5t-53.5 -56.5t-32 -75t-10.5 -78q0 -36 10 -78t30.5 -77t52.5 -58.5
t75 -23.5q42 0 71 14.5t59 43.5q-24 -37 -64 -59.5t-85 -22.5q-49 0 -88 20t-66.5 53.5t-42.5 76.5t-15 89q0 53 16.5 101t48 84t76 57.5t100.5 21.5z" />
    <glyph glyph-name="e" unicode="e" horiz-adv-x="514" 
d="M34 238q0 59 17 106.5t49.5 82t79 53t106.5 18.5q46 0 80 -18.5t56.5 -49.5t34 -70.5t11.5 -80.5h-374q0 -45 10 -89t32.5 -78.5t59 -56t88.5 -21.5q23 0 50.5 4t53.5 13.5t48 24.5t33 37q-11 -28 -31.5 -50.5t-47 -38t-56 -23.5t-59.5 -8q-52 0 -96 19t-76 52t-50.5 78
t-18.5 96zM95 293h260q32 0 48 21.5t16 50.5q0 30 -12.5 53.5t-33 39t-47 24t-53.5 8.5q-37 0 -69.5 -17.5t-56.5 -45.5t-38 -63.5t-14 -70.5z" />
    <glyph glyph-name="f" unicode="f" horiz-adv-x="245" 
d="M16 500h62q0 37 4 80t19 79.5t43.5 61t76.5 24.5q12 0 31 -3.5t36.5 -11t30 -19t12.5 -27.5q0 -14 -8 -25t-23 -11q-21 0 -28 13.5t-12.5 29t-15.5 29t-36 13.5q-33 0 -48.5 -28.5t-21 -67t-5 -77.5t0.5 -60h89v-14h-89v-403q0 -27 10 -50.5t39 -32.5h-153
q29 9 38.5 32.5t9.5 50.5v403h-62v14z" />
    <glyph glyph-name="g" unicode="g" horiz-adv-x="546" 
d="M257 510q43 0 83 -14.5t70.5 -41t49 -63.5t18.5 -82t-19 -82.5t-50 -64.5t-71 -42t-83 -15q-42 0 -81 15.5t-69.5 42.5t-48.5 64.5t-18 80.5q0 44 18.5 81t49.5 64t70 42t81 15zM270 117q34 0 60.5 16t44.5 41.5t27 57t9 61.5q0 35 -12 71.5t-33.5 66.5t-53 49t-70.5 19
q-34 0 -60 -16t-43.5 -41.5t-26.5 -57t-9 -61.5q0 -35 11.5 -71.5t33 -66.5t52.5 -49t70 -19zM34 -156q0 32 14.5 61.5t40.5 48.5q-16 -29 -16 -66q0 -40 18.5 -73.5t48.5 -58t67.5 -38.5t74.5 -14q27 0 58.5 9.5t59 27t45.5 42.5t18 56q0 35 -29.5 52t-73.5 24t-95 10
t-95 11t-73.5 26t-29.5 56q0 17 8 31.5t21 26t29 19t31 10.5q-7 -4 -15.5 -11t-15.5 -15t-11.5 -17.5t-4.5 -18.5q0 -26 27.5 -36t69.5 -14.5t90 -8t90 -16t69.5 -38.5t27.5 -75q0 -46 -21 -77.5t-54 -51t-73 -28.5t-79 -9q-36 0 -75 8t-72 26t-54 47.5t-21 73.5zM404 506
q13 21 35 37.5t48 16.5q17 0 30.5 -8t13.5 -27q0 -17 -11 -26t-27 -9q-17 0 -32 10t-33 10q-13 0 -24 -4z" />
    <glyph glyph-name="h" unicode="h" horiz-adv-x="521" 
d="M25 0q30 11 40.5 34t10.5 53v525q0 9 -1.5 20t-5 21.5t-10.5 17.5t-19 7l92 67l1 -658q0 -30 10.5 -53t40.5 -34h-159zM165 423q29 35 71 57.5t89 22.5q38 0 64.5 -14.5t44 -38.5t25.5 -55.5t8 -65.5v-242q0 -30 11 -53.5t41 -33.5h-160q30 10 40.5 34t10.5 53v254
q0 26 -5.5 51t-18.5 44.5t-33.5 31t-50.5 11.5q-38 0 -73 -16.5t-64 -39.5z" />
    <glyph glyph-name="i" unicode="i" horiz-adv-x="219" 
d="M28 0q29 9 38.5 31.5t9.5 50.5v293q0 8 -1 18.5t-4.5 20.5t-10 16.5t-17.5 6.5l90 63v-418q0 -28 10 -50.5t38 -31.5h-153zM101 660q18 0 29 -11t11 -29t-11 -29t-29 -11t-29.5 11t-11.5 29t11.5 29t29.5 11z" />
    <glyph glyph-name="j" unicode="j" horiz-adv-x="154" 
d="M-146 -184q0 14 8 25t23 11q21 0 28 -13.5t12.5 -29t15.5 -29t36 -13.5q31 0 46.5 25t21.5 59.5t6 70v55.5v398q0 8 -1 18.5t-4.5 20.5t-10 16.5t-17.5 6.5l90 63v-500q0 -37 -4.5 -80t-19.5 -79.5t-43.5 -61t-76.5 -24.5q-12 0 -31 3.5t-36.5 11t-30 19t-12.5 27.5z
M39 620q0 18 11.5 29t29.5 11t29 -11t11 -29t-11 -29t-29 -11t-29.5 11t-11.5 29z" />
    <glyph glyph-name="k" unicode="k" horiz-adv-x="534" 
d="M25 0q30 11 40.5 34t10.5 53v525q0 9 -1.5 20t-5 21.5t-10.5 17.5t-19 7l92 67l1 -658q0 -30 10.5 -53t40.5 -34h-159zM320 419q8 7 15 21t7 24q0 14 -9.5 22.5t-20.5 13.5h126q-19 -8 -34.5 -16.5t-30.5 -22.5l-173 -159l218 -250q17 -20 37 -32t45 -20h-111l-235 270z
" />
    <glyph glyph-name="l" unicode="l" horiz-adv-x="218" 
d="M25 0q30 11 40.5 34t10.5 53v525q0 9 -1.5 20t-5 21.5t-10.5 17.5t-19 7l92 67l1 -658q0 -30 10.5 -53t40.5 -34h-159z" />
    <glyph glyph-name="m" unicode="m" horiz-adv-x="869" 
d="M640 503q38 0 64.5 -14.5t44 -38.5t25.5 -55.5t8 -65.5v-242q0 -30 11 -53.5t41 -33.5h-160q30 10 40.5 34t10.5 53v254q0 26 -5.5 51t-18.5 44.5t-33.5 31t-50.5 11.5q-38 0 -73 -16.5t-64 -39.5q29 35 71 57.5t89 22.5zM165 423q29 35 71 57.5t89 22.5q38 0 64.5 -14.5
t44 -38.5t25.5 -55.5t8 -65.5v-242q0 -30 11 -53.5t41 -33.5h-160q30 10 40.5 34t10.5 53v254q0 26 -5.5 51t-18.5 44.5t-33.5 31t-50.5 11.5q-38 0 -73 -16.5t-64 -39.5zM76 87v280q0 9 -1.5 20t-5 21.5t-10.5 17.5t-19 7l92 67l1 -413q0 -30 10.5 -53t40.5 -34h-159
q30 11 40.5 34t10.5 53z" />
    <glyph glyph-name="n" unicode="n" horiz-adv-x="546" 
d="M165 423q29 35 71 57.5t89 22.5q38 0 64.5 -14.5t44 -38.5t25.5 -55.5t8 -65.5v-242q0 -30 11 -53.5t41 -33.5h-160q30 10 40.5 34t10.5 53v254q0 26 -5.5 51t-18.5 44.5t-33.5 31t-50.5 11.5q-38 0 -73 -16.5t-64 -39.5zM25 0q30 11 40.5 34t10.5 53v280q0 9 -1.5 20
t-5 21.5t-10.5 17.5t-19 7l92 67l1 -413q0 -30 10.5 -53t40.5 -34h-159z" />
    <glyph glyph-name="o" unicode="o" horiz-adv-x="579" 
d="M33 250q0 52 20 97.5t54 80t79.5 54.5t97.5 20t98 -20t80 -54t53.5 -80t19.5 -98t-19.5 -97.5t-53.5 -80t-79.5 -54.5t-97.5 -20t-98 20t-80 54t-54 80t-20 98zM92 269q0 -43 14 -89t40 -83t64.5 -61t87.5 -24q44 0 76.5 19.5t54.5 51t33 70t11 77.5q0 44 -14 89.5
t-40 83t-64.5 61t-87.5 23.5q-43 0 -76 -19.5t-55 -51t-33 -70t-11 -77.5z" />
    <glyph glyph-name="p" unicode="p" horiz-adv-x="521" 
d="M9 -244q29 9 39 32t10 51v538q0 19 -7 35t-30 18l93 70v-355q0 -28 14 -53.5t36 -44.5t49.5 -30t54.5 -11q47 0 79 24t51.5 60.5t28.5 79.5t9 81q0 39 -8.5 79t-28 73t-51 54t-77.5 21q-42 0 -71 -14.5t-59 -43.5q24 37 64 59.5t85 22.5q50 0 88.5 -18t65.5 -49t41 -73
t14 -89q0 -55 -14.5 -105.5t-44 -88.5t-74.5 -60.5t-105 -22.5q-24 0 -43.5 3.5t-36.5 11t-33 19t-34 26.5v-218q0 -29 9 -51t39 -31h-153z" />
    <glyph glyph-name="q" unicode="q" horiz-adv-x="531" 
d="M22 243q0 58 18 106t51 82.5t80 53.5t106 19q45 0 79.5 -22t66.5 -50l45 69v-669q0 -29 9.5 -50.5t38.5 -31.5h-152q31 9 39.5 31t8.5 51v504q0 30 -11.5 58t-32 49t-47.5 33.5t-58 12.5q-44 0 -77.5 -21.5t-56 -55t-34 -74t-11.5 -78.5q0 -37 8.5 -79.5t27 -79
t49.5 -60.5t76 -24q44 0 74.5 17t60.5 46q-25 -40 -66.5 -63t-88.5 -23q-54 0 -92.5 21t-63 55.5t-36 79.5t-11.5 93z" />
    <glyph glyph-name="r" unicode="r" horiz-adv-x="344" 
d="M10 0q29 9 38.5 31.5t9.5 50.5v293q0 8 -1 18.5t-4.5 20.5t-10 16.5t-17.5 6.5l90 63v-418q0 -28 10 -50.5t38 -31.5h-153zM210 451q-19 0 -36.5 -7.5t-33.5 -17.5q14 14 27.5 27t29 24t33 17.5t38.5 6.5q15 0 28 -8t13 -25t-10.5 -25.5t-26.5 -8.5q-14 0 -28 8.5
t-34 8.5z" />
    <glyph glyph-name="s" unicode="s" horiz-adv-x="433" 
d="M34 144q22 -57 69 -95.5t110 -38.5q21 0 47 3t48.5 12.5t38 27t15.5 45.5q0 32 -24 52.5t-59.5 36.5t-77 30t-77 33t-59.5 46.5t-24 69.5q0 35 14 61t36.5 43.5t52.5 26.5t61 9q15 0 38 -3t47.5 -8.5t47.5 -11.5t36 -12v-94q-9 27 -26.5 49t-41 37.5t-51 24.5t-54.5 9
q-19 0 -41 -5.5t-40.5 -16.5t-30.5 -27.5t-12 -39.5q0 -36 24 -59.5t59.5 -40.5t77.5 -31t77.5 -32t59.5 -44t24 -67q0 -39 -15.5 -65.5t-40.5 -43t-57 -23.5t-65 -7q-44 0 -94.5 8.5t-92.5 21.5v119z" />
    <glyph glyph-name="t" unicode="t" horiz-adv-x="343" 
d="M41 487v13h41v108q0 30 13.5 55.5t43.5 36.5v-200h90v-13h-90v-358q0 -21 6.5 -40t18.5 -33.5t29.5 -23t39.5 -8.5q25 0 51 12t42 32q-7 -17 -21 -29.5t-30.5 -21t-35 -13t-35.5 -4.5q-33 0 -56 12t-38 32.5t-21.5 47.5t-6.5 57v338h-41z" />
    <glyph glyph-name="u" unicode="u" horiz-adv-x="507" 
d="M112 500v-341q0 -26 5.5 -51t18.5 -44.5t33.5 -31t50.5 -11.5q38 0 73 16.5t64 39.5q-29 -35 -71 -57.5t-88 -22.5q-38 0 -65 14.5t-44 38.5t-25 55.5t-8 65.5v206q0 18 -7 34t-29 17zM450 500v-367q0 -9 1.5 -20t5 -21.5t10.5 -17.5t19 -7l-92 -67v377q0 19 -7 34.5
t-29 16.5z" />
    <glyph glyph-name="v" unicode="v" horiz-adv-x="556" 
d="M12 500h153q-15 -5 -22 -18t-7 -28q0 -5 1 -11t3 -11l154 -343l142 321q4 11 4 25q0 23 -12 42t-36 23h153q-29 -5 -51.5 -25t-33.5 -46l-191 -431l-186 421q-12 28 -27 48.5t-44 32.5z" />
    <glyph glyph-name="w" unicode="w" horiz-adv-x="813" 
d="M24 500h153q-15 -6 -22.5 -18.5t-7.5 -28.5q0 -8 10 -34.5t26 -62.5t35 -77t36 -78.5t31 -66.5t19 -41l91 226l-44 100q-12 27 -26.5 48t-43.5 33h153q-15 -6 -22.5 -18.5t-7.5 -28.5q0 -8 10 -34.5t26 -62.5t35 -77t36 -78.5t31 -66.5t19 -41l128 317q5 13 5 26
q0 23 -12 41.5t-36 22.5h153q-28 -5 -51.5 -25t-34.5 -46l-176 -431l-134 302l-123 -302l-186 421q-12 27 -26.5 48t-43.5 33z" />
    <glyph glyph-name="x" unicode="x" horiz-adv-x="533" 
d="M177 500q-12 -4 -19.5 -14t-7.5 -23q0 -17 10 -30l118 -154l55 75q6 9 17 22t21.5 27.5t18.5 29.5t8 27q0 17 -12 27t-28 13h153q-37 -6 -67.5 -33t-51.5 -56l-106 -143q3 -3 17 -22.5t34.5 -47.5t45 -60t48.5 -60.5t45.5 -50t34.5 -27.5h-159q12 4 19.5 14t7.5 23
q0 6 -2 14t-6 13l-120 157l-106 -144q-6 -8 -10 -17t-4 -20q0 -17 12 -27t28 -13h-153q18 3 35 12.5t33 22t29.5 27.5t23.5 29l104 141l-149 196v1l-3 3q-17 21 -32.5 38t-40.5 30h159z" />
    <glyph glyph-name="y" unicode="y" horiz-adv-x="553" 
d="M12 500h153q-15 -5 -22 -18t-7 -28q0 -8 10 -34.5t26 -63t35 -78.5t36.5 -80t31.5 -67.5t19 -41.5q6 12 18.5 40t29 64t34 75t31.5 73t23.5 60t9.5 34q0 23 -12 42t-36 23h153q-29 -5 -51 -25t-34 -46q-69 -151 -134.5 -301.5t-133.5 -302.5q-6 -13 -14 -26t-18.5 -24
t-23.5 -18t-29 -7q-14 0 -26 10.5t-12 24.5q0 17 10.5 24.5t25.5 7.5q10 0 21.5 -1t22 0.5t20 6t14.5 16.5l78 177l-178 403q-12 28 -27 48.5t-44 32.5z" />
    <glyph glyph-name="z" unicode="z" horiz-adv-x="466" 
d="M18 0l334 490h-189q-19 0 -38 -7t-36.5 -18.5t-33 -26t-26.5 -28.5l36 90h359l-334 -491h226q20 0 39 9.5t36 24t31.5 31.5t23.5 33l-32 -107h-396z" />
    <glyph glyph-name="braceleft" unicode="{" horiz-adv-x="291" 
d="M39 350v17q21 16 27.5 38.5t8.5 50.5t5.5 61t20 68.5t51 73t98.5 75.5v-15q-40 -26 -60 -58t-29 -66t-13 -68.5t-12.5 -65.5t-26 -57.5t-53.5 -43.5v-3q37 -18 55 -45.5t27 -60t13 -67.5t13 -69t28 -64t58 -53v-15q-65 34 -100 69t-50.5 69.5t-18.5 67.5t-4.5 62.5
t-8 54.5t-29.5 44z" />
    <glyph glyph-name="bar" unicode="|" horiz-adv-x="301" 
d="M192 791v-878h-56v878h56z" />
    <glyph glyph-name="braceright" unicode="}" horiz-adv-x="286" 
d="M41 732q66 -33 100.5 -68.5t50.5 -70t18.5 -67.5t4 -62.5t8 -54.5t29.5 -44v-17q-21 -16 -27.5 -38.5t-8.5 -50.5t-5.5 -60.5t-20 -68t-51 -73.5t-98.5 -76v15q40 26 60 58t29 66t13 68.5t12.5 65.5t26 57.5t53.5 43.5v3q-37 19 -55 46t-27 59.5t-13 67.5t-13 69t-28 64
t-58 53v15z" />
    <glyph glyph-name="Agrave" unicode="&#xc0;" horiz-adv-x="704" 
d="M51 0q23 8 44 31t30 45l242 633l239 -631q9 -24 25.5 -47t42.5 -31h-176q17 6 28.5 23t11.5 35q0 11 -10 41t-23.5 64.5t-26 66t-18.5 45.5h-245l-65 -169q-4 -10 -6.5 -20.5t-2.5 -21.5q0 -26 16.5 -41t39.5 -23h-146zM454 286l-117 312l-119 -312h236zM349 862l31 -87
h-18l-72 87h59z" />
    <glyph glyph-name="Aacute" unicode="&#xc1;" horiz-adv-x="704" 
d="M51 0q23 8 44 31t30 45l242 633l239 -631q9 -24 25.5 -47t42.5 -31h-176q17 6 28.5 23t11.5 35q0 11 -10 41t-23.5 64.5t-26 66t-18.5 45.5h-245l-65 -169q-4 -10 -6.5 -20.5t-2.5 -21.5q0 -26 16.5 -41t39.5 -23h-146zM218 286h236l-117 312zM367 775l28 87h57l-68 -87
h-17z" />
    <glyph glyph-name="Acircumflex" unicode="&#xc2;" horiz-adv-x="704" 
d="M125 76l242 633l239 -631q9 -24 25.5 -47t42.5 -31h-176q17 6 28.5 23t11.5 35q0 11 -10 41t-23.5 64.5t-26 66t-18.5 45.5h-245l-65 -169q-4 -10 -6.5 -20.5t-2.5 -21.5q0 -26 16.5 -41t39.5 -23h-146q23 8 44 31t30 45zM454 286l-117 312l-119 -312h236zM344 855h35
l63 -80h-14l-66 55l-64 -55h-16z" />
    <glyph glyph-name="Atilde" unicode="&#xc3;" horiz-adv-x="704" 
d="M125 76l242 633l239 -631q9 -24 25.5 -47t42.5 -31h-176q17 6 28.5 23t11.5 35q0 11 -10 41t-23.5 64.5t-26 66t-18.5 45.5h-245l-65 -169q-4 -10 -6.5 -20.5t-2.5 -21.5q0 -26 16.5 -41t39.5 -23h-146q23 8 44 31t30 45zM454 286l-117 312l-119 -312h236zM347 806
q27 0 42.5 -6.5t34.5 -6.5q8 0 18.5 2t24.5 8q-8 -16 -26 -26t-41 -10q-26 0 -42.5 7t-36.5 7q-9 0 -19.5 -2.5t-23.5 -9.5q11 17 30 27t39 10z" />
    <glyph glyph-name="Adieresis" unicode="&#xc4;" horiz-adv-x="704" 
d="M125 76l242 633l239 -631q9 -24 25.5 -47t42.5 -31h-176q17 6 28.5 23t11.5 35q0 11 -10 41t-23.5 64.5t-26 66t-18.5 45.5h-245l-65 -169q-4 -10 -6.5 -20.5t-2.5 -21.5q0 -26 16.5 -41t39.5 -23h-146q23 8 44 31t30 45zM454 286l-117 312l-119 -312h236zM297 783
q0 28 28 28t28 -28t-28 -28t-28 28zM417 811q28 0 28 -28t-28 -28t-28 28t28 28z" />
    <glyph glyph-name="Aring" unicode="&#xc5;" horiz-adv-x="704" 
d="M125 76l242 633l239 -631q9 -24 25.5 -47t42.5 -31h-176q17 6 28.5 23t11.5 35q0 11 -10 41t-23.5 64.5t-26 66t-18.5 45.5h-245l-65 -169q-4 -10 -6.5 -20.5t-2.5 -21.5q0 -26 16.5 -41t39.5 -23h-146q23 8 44 31t30 45zM454 286l-117 312l-119 -312h236zM370 834
q19 0 32.5 -13.5t13.5 -33.5t-13.5 -33.5t-32.5 -13.5q-20 0 -33 13.5t-13 33.5t13 33.5t33 13.5zM370 748q8 0 15 11t7 28t-7 28t-15 11q-9 0 -15.5 -11t-6.5 -28t6.5 -28t15.5 -11z" />
    <glyph glyph-name="Ccedilla" unicode="&#xc7;" horiz-adv-x="715" 
d="M50 350q0 74 27.5 138.5t75.5 112t113 75t140 27.5q33 0 65.5 -4.5t62.5 -13t56 -21t45 -28.5v-100q-22 31 -49.5 59t-59 49t-65.5 33t-70 12q-64 0 -113 -29t-82.5 -75t-51 -103.5t-17.5 -114.5q0 -73 23.5 -138t64 -114t94 -77.5t114.5 -27.5q34 1 67 15t62.5 36t55 50
t43.5 56l13 -66q-23 -19 -54 -38t-65.5 -33.5t-70 -23.5t-68.5 -9q-8 0 -14.5 0.5t-12.5 0.5v-23q18 -10 27 -25t9 -30q0 -24 -17 -36t-40 -12q-21 0 -41 11h5q18 0 34 8.5t24 21t5.5 27t-20.5 26.5v34q-67 7 -124.5 37t-100 76.5t-66.5 107t-24 129.5z" />
    <glyph glyph-name="Ccedilla" unicode="&#xe7;" horiz-adv-x="715" 
d="M50 350q0 74 27.5 138.5t75.5 112t113 75t140 27.5q33 0 65.5 -4.5t62.5 -13t56 -21t45 -28.5v-100q-22 31 -49.5 59t-59 49t-65.5 33t-70 12q-64 0 -113 -29t-82.5 -75t-51 -103.5t-17.5 -114.5q0 -73 23.5 -138t64 -114t94 -77.5t114.5 -27.5q34 1 67 15t62.5 36t55 50
t43.5 56l13 -66q-23 -19 -54 -38t-65.5 -33.5t-70 -23.5t-68.5 -9q-8 0 -14.5 0.5t-12.5 0.5v-23q18 -10 27 -25t9 -30q0 -24 -17 -36t-40 -12q-21 0 -41 11h5q18 0 34 8.5t24 21t5.5 27t-20.5 26.5v34q-67 7 -124.5 37t-100 76.5t-66.5 107t-24 129.5z" />
    <glyph glyph-name="Egrave" unicode="&#xc8;" horiz-adv-x="556" 
d="M486 700l27 -119q-57 107 -175 107h-172v-326h118q32 0 58 13t37 46v-129q-11 33 -37 45.5t-58 12.5h-118v-338h171q59 0 107 27t76 80l-29 -119h-441q29 9 38.5 32t9.5 50v538q0 27 -9.5 49t-38.5 31h436zM231 862h59l31 -87h-18z" />
    <glyph glyph-name="Eacute" unicode="&#xc9;" horiz-adv-x="556" 
d="M486 700l27 -119q-57 107 -175 107h-172v-326h118q32 0 58 13t37 46v-129q-11 33 -37 45.5t-58 12.5h-118v-338h171q59 0 107 27t76 80l-29 -119h-441q29 9 38.5 32t9.5 50v538q0 27 -9.5 49t-38.5 31h436zM285 775l28 87h57l-68 -87h-17z" />
    <glyph glyph-name="Ecircumflex" unicode="&#xca;" horiz-adv-x="556" 
d="M98 82v538q0 27 -9.5 49t-38.5 31h436l27 -119q-57 107 -175 107h-172v-326h118q32 0 58 13t37 46v-129q-11 33 -37 45.5t-58 12.5h-118v-338h171q59 0 107 27t76 80l-29 -119h-441q29 9 38.5 32t9.5 50zM228 778l62 80h35l63 -80h-14l-66 55l-64 -55h-16z" />
    <glyph glyph-name="Edieresis" unicode="&#xcb;" horiz-adv-x="556" 
d="M98 82v538q0 27 -9.5 49t-38.5 31h436l27 -119q-57 107 -175 107h-172v-326h118q32 0 58 13t37 46v-129q-11 33 -37 45.5t-58 12.5h-118v-338h171q59 0 107 27t76 80l-29 -119h-441q29 9 38.5 32t9.5 50zM225 783q0 28 28 28t28 -28t-28 -28t-28 28zM345 811q28 0 28 -28
t-28 -28t-28 28t28 28z" />
    <glyph glyph-name="Igrave" unicode="&#xcc;" horiz-adv-x="289" 
d="M50 0q29 9 38.5 32t9.5 50v538q0 27 -9.5 49t-38.5 31h164q-29 -9 -38.5 -31t-9.5 -49v-538q0 -27 10 -50t38 -32h-164zM64 862h59l31 -87h-18z" />
    <glyph glyph-name="Iacute" unicode="&#xcd;" horiz-adv-x="289" 
d="M50 0q29 9 38.5 32t9.5 50v538q0 27 -9.5 49t-38.5 31h164q-29 -9 -38.5 -31t-9.5 -49v-538q0 -27 10 -50t38 -32h-164zM135 775l28 87h57l-68 -87h-17z" />
    <glyph glyph-name="Icircumflex" unicode="&#xce;" horiz-adv-x="289" 
d="M50 0q29 9 38.5 32t9.5 50v538q0 27 -9.5 49t-38.5 31h164q-29 -9 -38.5 -31t-9.5 -49v-538q0 -27 10 -50t38 -32h-164zM54 775l62 80h35l63 -80h-14l-66 55l-64 -55h-16z" />
    <glyph glyph-name="Idieresis" unicode="&#xcf;" horiz-adv-x="289" 
d="M214 700q-29 -9 -38.5 -31t-9.5 -49v-538q0 -27 10 -50t38 -32h-164q29 9 38.5 32t9.5 50v538q0 27 -9.5 49t-38.5 31h164zM90 811q28 0 28 -28t-28 -28t-28 28t28 28zM182 811q28 0 28 -28t-28 -28t-28 28t28 28z" />
    <glyph glyph-name="Ntilde" unicode="&#xd1;" horiz-adv-x="686" 
d="M51 0q32 10 51 32t19 56v521q0 35 -18.5 57.5t-50.5 33.5h126l402 -564v476q0 34 -19 56t-51 32h150q-32 -10 -50 -32t-18 -56v-612l-461 647v-559q0 -35 20 -56.5t52 -31.5h-152zM278 769q11 17 30 27t39 10q27 0 42.5 -6.5t34.5 -6.5q8 0 18.5 2t24.5 8q-8 -16 -26 -26
t-41 -10q-26 0 -42.5 7t-36.5 7q-9 0 -19.5 -2.5t-23.5 -9.5z" />
    <glyph glyph-name="Ograve" unicode="&#xd2;" 
d="M404 703q73 0 137.5 -27.5t112.5 -75.5t75.5 -112.5t27.5 -137.5t-27.5 -137.5t-75.5 -112.5t-112.5 -75.5t-137.5 -27.5t-137.5 27.5t-112.5 75.5t-75.5 112.5t-27.5 137.5t27.5 137.5t75.5 112.5t112.5 75.5t137.5 27.5zM423 7q63 0 111 30t81 77.5t50 105.5t17 113
q0 61 -20 125t-58 116t-92.5 85t-122.5 33q-62 0 -110.5 -30t-81.5 -77.5t-50 -105t-17 -112.5q0 -60 20.5 -124t59 -116.5t92.5 -86t121 -33.5zM322 862h59l31 -87h-18z" />
    <glyph glyph-name="Oacute" unicode="&#xd3;" 
d="M404 703q73 0 137.5 -27.5t112.5 -75.5t75.5 -112.5t27.5 -137.5t-27.5 -137.5t-75.5 -112.5t-112.5 -75.5t-137.5 -27.5t-137.5 27.5t-112.5 75.5t-75.5 112.5t-27.5 137.5t27.5 137.5t75.5 112.5t112.5 75.5t137.5 27.5zM423 7q63 0 111 30t81 77.5t50 105.5t17 113
q0 61 -20 125t-58 116t-92.5 85t-122.5 33q-62 0 -110.5 -30t-81.5 -77.5t-50 -105t-17 -112.5q0 -60 20.5 -124t59 -116.5t92.5 -86t121 -33.5zM390 775l28 87h57l-68 -87h-17z" />
    <glyph glyph-name="Ocircumflex" unicode="&#xd4;" 
d="M51 350q0 73 27.5 137.5t75.5 112.5t112.5 75.5t137.5 27.5t137.5 -27.5t112.5 -75.5t75.5 -112.5t27.5 -137.5t-27.5 -137.5t-75.5 -112.5t-112.5 -75.5t-137.5 -27.5t-137.5 27.5t-112.5 75.5t-75.5 112.5t-27.5 137.5zM130 367q0 -60 20.5 -124t59 -116.5t92.5 -86
t121 -33.5q63 0 111 30t81 77.5t50 105.5t17 113q0 61 -20 125t-58 116t-92.5 85t-122.5 33q-62 0 -110.5 -30t-81.5 -77.5t-50 -105t-17 -112.5zM318 778l62 80h35l63 -80h-14l-66 55l-64 -55h-16z" />
    <glyph glyph-name="Otilde" unicode="&#xd5;" 
d="M404 703q73 0 137.5 -27.5t112.5 -75.5t75.5 -112.5t27.5 -137.5t-27.5 -137.5t-75.5 -112.5t-112.5 -75.5t-137.5 -27.5t-137.5 27.5t-112.5 75.5t-75.5 112.5t-27.5 137.5t27.5 137.5t75.5 112.5t112.5 75.5t137.5 27.5zM423 7q63 0 111 30t81 77.5t50 105.5t17 113
q0 61 -20 125t-58 116t-92.5 85t-122.5 33q-62 0 -110.5 -30t-81.5 -77.5t-50 -105t-17 -112.5q0 -60 20.5 -124t59 -116.5t92.5 -86t121 -33.5zM311 769q11 17 30 27t39 10q27 0 42.5 -6.5t34.5 -6.5q8 0 18.5 2t24.5 8q-8 -16 -26 -26t-41 -10q-26 0 -42.5 7t-36.5 7
q-9 0 -19.5 -2.5t-23.5 -9.5z" />
    <glyph glyph-name="Odieresis" unicode="&#xd6;" 
d="M51 350q0 73 27.5 137.5t75.5 112.5t112.5 75.5t137.5 27.5t137.5 -27.5t112.5 -75.5t75.5 -112.5t27.5 -137.5t-27.5 -137.5t-75.5 -112.5t-112.5 -75.5t-137.5 -27.5t-137.5 27.5t-112.5 75.5t-75.5 112.5t-27.5 137.5zM423 7q63 0 111 30t81 77.5t50 105.5t17 113
q0 61 -20 125t-58 116t-92.5 85t-122.5 33q-62 0 -110.5 -30t-81.5 -77.5t-50 -105t-17 -112.5q0 -60 20.5 -124t59 -116.5t92.5 -86t121 -33.5zM329 783q0 28 28 28t28 -28t-28 -28t-28 28zM449 811q28 0 28 -28t-28 -28t-28 28t28 28z" />
    <glyph glyph-name="Oslash" unicode="&#xd8;" 
d="M51 350q0 73 27.5 137.5t75.5 112.5t112.5 75.5t137.5 27.5q51 0 97.5 -13.5t87.5 -38.5l81 122h28l-89 -135q68 -48 108 -123t40 -165q0 -73 -27.5 -137.5t-75.5 -112.5t-112 -75.5t-138 -27.5q-52 0 -99 14t-88 40l-80 -119h-28l88 132q-66 48 -106 123t-40 163zM426 6
q9 0 18.5 1t18.5 3q57 10 102 46.5t73 90t38.5 119t-1.5 133.5q-10 59 -35 108.5t-61 87.5l-336 -503q38 -40 85 -63t98 -23zM136 302q10 -56 33.5 -105t57.5 -87l336 502q-38 38 -83.5 59t-94.5 21q-19 0 -37 -3q-57 -10 -101.5 -46t-73 -89t-39 -118.5t1.5 -133.5z" />
    <glyph glyph-name="Oslash" unicode="&#xf8;" 
d="M51 350q0 73 27.5 137.5t75.5 112.5t112.5 75.5t137.5 27.5q51 0 97.5 -13.5t87.5 -38.5l81 122h28l-89 -135q68 -48 108 -123t40 -165q0 -73 -27.5 -137.5t-75.5 -112.5t-112 -75.5t-138 -27.5q-52 0 -99 14t-88 40l-80 -119h-28l88 132q-66 48 -106 123t-40 163zM426 6
q9 0 18.5 1t18.5 3q57 10 102 46.5t73 90t38.5 119t-1.5 133.5q-10 59 -35 108.5t-61 87.5l-336 -503q38 -40 85 -63t98 -23zM136 302q10 -56 33.5 -105t57.5 -87l336 502q-38 38 -83.5 59t-94.5 21q-19 0 -37 -3q-57 -10 -101.5 -46t-73 -89t-39 -118.5t1.5 -133.5z" />
    <glyph glyph-name="Ugrave" unicode="&#xd9;" horiz-adv-x="680" 
d="M205 700q-28 -8 -38 -31t-10 -49v-373q0 -46 11.5 -88t35.5 -73.5t61 -50t88 -18.5q53 0 90.5 16.5t61.5 45.5t35.5 70.5t11.5 90.5v372q0 35 -19.5 56.5t-51.5 31.5h153q-32 -10 -51.5 -32t-19.5 -57v-372q0 -56 -13 -101.5t-40.5 -77.5t-70 -49.5t-101.5 -17.5
q-121 0 -185 64t-64 185v378q0 26 -10 49t-38 31h164zM342 848l31 -87h-18l-71 87h58z" />
    <glyph glyph-name="Uacute" unicode="&#xda;" horiz-adv-x="680" 
d="M205 700q-28 -8 -38 -31t-10 -49v-373q0 -46 11.5 -88t35.5 -73.5t61 -50t88 -18.5q53 0 90.5 16.5t61.5 45.5t35.5 70.5t11.5 90.5v372q0 35 -19.5 56.5t-51.5 31.5h153q-32 -10 -51.5 -32t-19.5 -57v-372q0 -56 -13 -101.5t-40.5 -77.5t-70 -49.5t-101.5 -17.5
q-121 0 -185 64t-64 185v378q0 26 -10 49t-38 31h164zM353 848h58l-68 -87h-18z" />
    <glyph glyph-name="Ucircumflex" unicode="&#xdb;" horiz-adv-x="680" 
d="M205 700q-28 -8 -38 -31t-10 -49v-373q0 -46 11.5 -88t35.5 -73.5t61 -50t88 -18.5q53 0 90.5 16.5t61.5 45.5t35.5 70.5t11.5 90.5v372q0 35 -19.5 56.5t-51.5 31.5h153q-32 -10 -51.5 -32t-19.5 -57v-372q0 -56 -13 -101.5t-40.5 -77.5t-70 -49.5t-101.5 -17.5
q-121 0 -185 64t-64 185v378q0 26 -10 49t-38 31h164zM265 759l62 80h35l63 -80h-14l-67 55l-63 -55h-16z" />
    <glyph glyph-name="Udieresis" unicode="&#xdc;" horiz-adv-x="680" 
d="M205 700q-28 -8 -38 -31t-10 -49v-373q0 -46 11.5 -88t35.5 -73.5t61 -50t88 -18.5q53 0 90.5 16.5t61.5 45.5t35.5 70.5t11.5 90.5v372q0 35 -19.5 56.5t-51.5 31.5h153q-32 -10 -51.5 -32t-19.5 -57v-372q0 -56 -13 -101.5t-40.5 -77.5t-70 -49.5t-101.5 -17.5
q-121 0 -185 64t-64 185v378q0 26 -10 49t-38 31h164zM385 788q0 11 8 19.5t19 8.5q12 0 20.5 -8.5t8.5 -19.5q0 -12 -8.5 -20t-19.5 -8t-19.5 8t-8.5 20zM298 816q11 0 19 -8t8 -19q0 -12 -8 -20.5t-19 -8.5q-12 0 -20.5 8.5t-8.5 20.5q0 11 8.5 19t20.5 8z" />
    <glyph glyph-name="Yacute" unicode="&#xdd;" horiz-adv-x="597" 
d="M189 700q-13 -5 -19 -17t-6 -26q0 -18 10 -38l151 -287l137 263q5 11 9 22t4 23q0 20 -11.5 37t-30.5 23h142q-13 -4 -26.5 -14t-26 -23t-22.5 -27t-16 -26l-149 -288v-242q0 -27 10 -49t38 -31h-164q29 9 38.5 32t9.5 50v223l-169 317q-6 11 -13.5 23t-17.5 23t-21 19.5
t-23 12.5h166zM338 862h57l-68 -87h-17z" />
    <glyph glyph-name="agrave" unicode="&#xe0;" horiz-adv-x="465" 
d="M19 106q0 40 19 67t48 44t64 27.5t68 17.5t59 14t37 17v56q0 24 -5 49t-17 45t-31.5 33t-48.5 13q-13 0 -30.5 -3.5t-33.5 -10.5t-27 -18.5t-11 -28.5q0 -11 2.5 -21t2.5 -21q0 -37 -38 -37q-17 0 -26 11.5t-9 27.5q0 25 20 46t48.5 36t59 23t51.5 8q79 0 114 -39
t35 -116v-253q0 -23 9.5 -42.5t36.5 -19.5q22 0 39 14q-6 -20 -28.5 -33.5t-42.5 -13.5q-22 0 -36 8t-21.5 21t-10 30t-2.5 36v183q-33 -10 -72.5 -20.5t-73 -27.5t-56.5 -44.5t-23 -72.5q0 -42 26 -66t68 -24q30 0 59 8t54 25q-31 -31 -67 -43.5t-80 -12.5q-25 0 -48.5 6.5
t-41.5 20t-29 34t-11 47.5zM235 562l-72 87h59l31 -87h-18z" />
    <glyph glyph-name="aacute" unicode="&#xe1;" horiz-adv-x="465" 
d="M19 106q0 40 19 67t48 44t64 27.5t68 17.5t59 14t37 17v56q0 24 -5 49t-17 45t-31.5 33t-48.5 13q-13 0 -30.5 -3.5t-33.5 -10.5t-27 -18.5t-11 -28.5q0 -11 2.5 -21t2.5 -21q0 -37 -38 -37q-17 0 -26 11.5t-9 27.5q0 25 20 46t48.5 36t59 23t51.5 8q79 0 114 -39
t35 -116v-253q0 -23 9.5 -42.5t36.5 -19.5q22 0 39 14q-6 -20 -28.5 -33.5t-42.5 -13.5q-22 0 -36 8t-21.5 21t-10 30t-2.5 36v183q-33 -10 -72.5 -20.5t-73 -27.5t-56.5 -44.5t-23 -72.5q0 -42 26 -66t68 -24q30 0 59 8t54 25q-31 -31 -67 -43.5t-80 -12.5q-25 0 -48.5 6.5
t-41.5 20t-29 34t-11 47.5zM244 562h-17l28 87h57z" />
    <glyph glyph-name="acircumflex" unicode="&#xe2;" horiz-adv-x="465" 
d="M19 106q0 40 19 67t48 44t64 27.5t68 17.5t59 14t37 17v56q0 24 -5 49t-17 45t-31.5 33t-48.5 13q-13 0 -30.5 -3.5t-33.5 -10.5t-27 -18.5t-11 -28.5q0 -11 2.5 -21t2.5 -21q0 -37 -38 -37q-17 0 -26 11.5t-9 27.5q0 25 20 46t48.5 36t59 23t51.5 8q79 0 114 -39
t35 -116v-253q0 -23 9.5 -42.5t36.5 -19.5q22 0 39 14q-6 -20 -28.5 -33.5t-42.5 -13.5q-22 0 -36 8t-21.5 21t-10 30t-2.5 36v183q-33 -10 -72.5 -20.5t-73 -27.5t-56.5 -44.5t-23 -72.5q0 -42 26 -66t68 -24q30 0 59 8t54 25q-31 -31 -67 -43.5t-80 -12.5q-25 0 -48.5 6.5
t-41.5 20t-29 34t-11 47.5zM175 562h-16l62 80h35l63 -80h-14l-66 55z" />
    <glyph glyph-name="atilde" unicode="&#xe3;" horiz-adv-x="465" 
d="M19 106q0 40 19 67t48 44t64 27.5t68 17.5t59 14t37 17v56q0 24 -5 49t-17 45t-31.5 33t-48.5 13q-13 0 -30.5 -3.5t-33.5 -10.5t-27 -18.5t-11 -28.5q0 -11 2.5 -21t2.5 -21q0 -37 -38 -37q-17 0 -26 11.5t-9 27.5q0 25 20 46t48.5 36t59 23t51.5 8q79 0 114 -39
t35 -116v-253q0 -23 9.5 -42.5t36.5 -19.5q22 0 39 14q-6 -20 -28.5 -33.5t-42.5 -13.5q-22 0 -36 8t-21.5 21t-10 30t-2.5 36v183q-33 -10 -72.5 -20.5t-73 -27.5t-56.5 -44.5t-23 -72.5q0 -42 26 -66t68 -24q30 0 59 8t54 25q-31 -31 -67 -43.5t-80 -12.5q-25 0 -48.5 6.5
t-41.5 20t-29 34t-11 47.5zM152 567q11 17 30 27t39 10q27 0 42.5 -6.5t34.5 -6.5q8 0 18.5 2t24.5 8q-8 -16 -26 -26t-41 -10q-26 0 -42.5 7t-36.5 7q-9 0 -19.5 -2.5t-23.5 -9.5z" />
    <glyph glyph-name="adieresis" unicode="&#xe4;" horiz-adv-x="465" 
d="M314 293v56q0 24 -5 49t-17 45t-31.5 33t-48.5 13q-13 0 -30.5 -3.5t-33.5 -10.5t-27 -18.5t-11 -28.5q0 -11 2.5 -21t2.5 -21q0 -37 -38 -37q-17 0 -26 11.5t-9 27.5q0 25 20 46t48.5 36t59 23t51.5 8q79 0 114 -39t35 -116v-253q0 -23 9.5 -42.5t36.5 -19.5q22 0 39 14
q-6 -20 -28.5 -33.5t-42.5 -13.5q-22 0 -36 8t-21.5 21t-10 30t-2.5 36v183q-33 -10 -72.5 -20.5t-73 -27.5t-56.5 -44.5t-23 -72.5q0 -42 26 -66t68 -24q30 0 59 8t54 25q-31 -31 -67 -43.5t-80 -12.5q-25 0 -48.5 6.5t-41.5 20t-29 34t-11 47.5q0 40 19 67t48 44t64 27.5
t68 17.5t59 14t37 17zM172 590q0 28 28 28t28 -28t-28 -28t-28 28zM264 590q0 28 28 28t28 -28t-28 -28t-28 28z" />
    <glyph glyph-name="aring" unicode="&#xe5;" horiz-adv-x="465" 
d="M314 293v56q0 24 -5 49t-17 45t-31.5 33t-48.5 13q-13 0 -30.5 -3.5t-33.5 -10.5t-27 -18.5t-11 -28.5q0 -11 2.5 -21t2.5 -21q0 -37 -38 -37q-17 0 -26 11.5t-9 27.5q0 25 20 46t48.5 36t59 23t51.5 8q79 0 114 -39t35 -116v-253q0 -23 9.5 -42.5t36.5 -19.5q22 0 39 14
q-6 -20 -28.5 -33.5t-42.5 -13.5q-22 0 -36 8t-21.5 21t-10 30t-2.5 36v183q-33 -10 -72.5 -20.5t-73 -27.5t-56.5 -44.5t-23 -72.5q0 -42 26 -66t68 -24q30 0 59 8t54 25q-31 -31 -67 -43.5t-80 -12.5q-25 0 -48.5 6.5t-41.5 20t-29 34t-11 47.5q0 40 19 67t48 44t64 27.5
t68 17.5t59 14t37 17zM176 593q0 20 13 33.5t33 13.5q19 0 32.5 -13.5t13.5 -33.5t-13.5 -33.5t-32.5 -13.5q-20 0 -33 13.5t-13 33.5zM200 593q0 -17 6.5 -28t15.5 -11q8 0 15 11t7 28t-7 28t-15 11q-9 0 -15.5 -11t-6.5 -28z" />
    <glyph glyph-name="egrave" unicode="&#xe8;" horiz-adv-x="514" 
d="M286 498q46 0 80 -18.5t56.5 -49.5t34 -70.5t11.5 -80.5h-374q0 -45 10 -89t32.5 -78.5t59 -56t88.5 -21.5q23 0 50.5 4t53.5 13.5t48 24.5t33 37q-11 -28 -31.5 -50.5t-47 -38t-56 -23.5t-59.5 -8q-52 0 -96 19t-76 52t-50.5 78t-18.5 96q0 59 17 106.5t49.5 82t79 53
t106.5 18.5zM355 293q32 0 48 21.5t16 50.5q0 30 -12.5 53.5t-33 39t-47 24t-53.5 8.5q-37 0 -69.5 -17.5t-56.5 -45.5t-38 -63.5t-14 -70.5h260zM199 649h59l31 -87h-18z" />
    <glyph glyph-name="eacute" unicode="&#xe9;" horiz-adv-x="514" 
d="M34 238q0 59 17 106.5t49.5 82t79 53t106.5 18.5q46 0 80 -18.5t56.5 -49.5t34 -70.5t11.5 -80.5h-374q0 -45 10 -89t32.5 -78.5t59 -56t88.5 -21.5q23 0 50.5 4t53.5 13.5t48 24.5t33 37q-11 -28 -31.5 -50.5t-47 -38t-56 -23.5t-59.5 -8q-52 0 -96 19t-76 52t-50.5 78
t-18.5 96zM95 293h260q32 0 48 21.5t16 50.5q0 30 -12.5 53.5t-33 39t-47 24t-53.5 8.5q-37 0 -69.5 -17.5t-56.5 -45.5t-38 -63.5t-14 -70.5zM262 562l28 87h57l-68 -87h-17z" />
    <glyph glyph-name="ecircumflex" unicode="&#xea;" horiz-adv-x="514" 
d="M34 238q0 59 17 106.5t49.5 82t79 53t106.5 18.5q46 0 80 -18.5t56.5 -49.5t34 -70.5t11.5 -80.5h-374q0 -45 10 -89t32.5 -78.5t59 -56t88.5 -21.5q23 0 50.5 4t53.5 13.5t48 24.5t33 37q-11 -28 -31.5 -50.5t-47 -38t-56 -23.5t-59.5 -8q-52 0 -96 19t-76 52t-50.5 78
t-18.5 96zM95 293h260q32 0 48 21.5t16 50.5q0 30 -12.5 53.5t-33 39t-47 24t-53.5 8.5q-37 0 -69.5 -17.5t-56.5 -45.5t-38 -63.5t-14 -70.5zM213 562h-16l62 80h35q19 -23 33 -39t30 -41q2 -3 -4 -1.5t-10 1.5l-66 55z" />
    <glyph glyph-name="edieresis" unicode="&#xeb;" horiz-adv-x="514" 
d="M34 238q0 59 17 106.5t49.5 82t79 53t106.5 18.5q46 0 80 -18.5t56.5 -49.5t34 -70.5t11.5 -80.5h-374q0 -45 10 -89t32.5 -78.5t59 -56t88.5 -21.5q23 0 50.5 4t53.5 13.5t48 24.5t33 37q-11 -28 -31.5 -50.5t-47 -38t-56 -23.5t-59.5 -8q-52 0 -96 19t-76 52t-50.5 78
t-18.5 96zM355 293q32 0 48 21.5t16 50.5q0 30 -12.5 53.5t-33 39t-47 24t-53.5 8.5q-37 0 -69.5 -17.5t-56.5 -45.5t-38 -63.5t-14 -70.5h260zM202 590q0 28 28 28t28 -28t-28 -28t-28 28zM294 590q0 28 28 28t28 -28t-28 -28t-28 28z" />
    <glyph glyph-name="igrave" unicode="&#xec;" horiz-adv-x="219" 
d="M28 0q29 9 38.5 31.5t9.5 50.5v293q0 8 -1 18.5t-4.5 20.5t-10 16.5t-17.5 6.5l90 63v-418q0 -28 10 -50.5t38 -31.5h-153zM42 649h59l31 -87h-18z" />
    <glyph glyph-name="iacute" unicode="&#xed;" horiz-adv-x="219" 
d="M28 0q29 9 38.5 31.5t9.5 50.5v293q0 8 -1 18.5t-4.5 20.5t-10 16.5t-17.5 6.5l90 63v-418q0 -28 10 -50.5t38 -31.5h-153zM80 562l28 87h57l-68 -87h-17z" />
    <glyph glyph-name="icircumflex" unicode="&#xee;" horiz-adv-x="219" 
d="M76 82v293q0 8 -1 18.5t-4.5 20.5t-10 16.5t-17.5 6.5l90 63v-418q0 -28 10 -50.5t38 -31.5h-153q29 9 38.5 31.5t9.5 50.5zM24 562l62 80h35q19 -23 33 -39t30 -41q2 -3 -4 -1.5t-10 1.5l-66 55l-64 -55h-16z" />
    <glyph glyph-name="idieresis" unicode="&#xef;" horiz-adv-x="219" 
d="M28 0q29 9 38.5 31.5t9.5 50.5v293q0 8 -1 18.5t-4.5 20.5t-10 16.5t-17.5 6.5l90 63v-418q0 -28 10 -50.5t38 -31.5h-153zM58 618q28 0 28 -28t-28 -28t-28 28t28 28zM122 590q0 28 28 28t28 -28t-28 -28t-28 28z" />
    <glyph glyph-name="ntilde" unicode="&#xf1;" horiz-adv-x="546" 
d="M325 503q38 0 64.5 -14.5t44 -38.5t25.5 -55.5t8 -65.5v-242q0 -30 11 -53.5t41 -33.5h-160q30 10 40.5 34t10.5 53v254q0 26 -5.5 51t-18.5 44.5t-33.5 31t-50.5 11.5q-38 0 -73 -16.5t-64 -39.5q29 35 71 57.5t89 22.5zM25 0q30 11 40.5 34t10.5 53v280q0 9 -1.5 20
t-5 21.5t-10.5 17.5t-19 7l92 67l1 -413q0 -30 10.5 -53t40.5 -34h-159zM189 567q11 17 30 27t39 10q27 0 42.5 -6.5t34.5 -6.5q8 0 18.5 2t24.5 8q-8 -16 -26 -26t-41 -10q-26 0 -42.5 7t-36.5 7q-9 0 -19.5 -2.5t-23.5 -9.5z" />
    <glyph glyph-name="ograve" unicode="&#xf2;" horiz-adv-x="579" 
d="M33 250q0 52 20 97.5t54 80t79.5 54.5t97.5 20t98 -20t80 -54t53.5 -80t19.5 -98t-19.5 -97.5t-53.5 -80t-79.5 -54.5t-97.5 -20t-98 20t-80 54t-54 80t-20 98zM298 12q44 0 76.5 19.5t54.5 51t33 70t11 77.5q0 44 -14 89.5t-40 83t-64.5 61t-87.5 23.5q-43 0 -76 -19.5
t-55 -51t-33 -70t-11 -77.5q0 -43 14 -89t40 -83t64.5 -61t87.5 -24zM267 562l-72 87h59l31 -87h-18z" />
    <glyph glyph-name="oacute" unicode="&#xf3;" horiz-adv-x="579" 
d="M33 250q0 52 20 97.5t54 80t79.5 54.5t97.5 20t98 -20t80 -54t53.5 -80t19.5 -98t-19.5 -97.5t-53.5 -80t-79.5 -54.5t-97.5 -20t-98 20t-80 54t-54 80t-20 98zM298 12q44 0 76.5 19.5t54.5 51t33 70t11 77.5q0 44 -14 89.5t-40 83t-64.5 61t-87.5 23.5q-43 0 -76 -19.5
t-55 -51t-33 -70t-11 -77.5q0 -43 14 -89t40 -83t64.5 -61t87.5 -24zM283 562h-17l28 87h57z" />
    <glyph glyph-name="ocircumflex" unicode="&#xf4;" horiz-adv-x="579" 
d="M33 250q0 52 20 97.5t54 80t79.5 54.5t97.5 20t98 -20t80 -54t53.5 -80t19.5 -98t-19.5 -97.5t-53.5 -80t-79.5 -54.5t-97.5 -20t-98 20t-80 54t-54 80t-20 98zM298 12q44 0 76.5 19.5t54.5 51t33 70t11 77.5q0 44 -14 89.5t-40 83t-64.5 61t-87.5 23.5q-43 0 -76 -19.5
t-55 -51t-33 -70t-11 -77.5q0 -43 14 -89t40 -83t64.5 -61t87.5 -24zM225 562h-16l62 80h35l63 -80h-14l-66 55z" />
    <glyph glyph-name="otilde" unicode="&#xf5;" horiz-adv-x="579" 
d="M284 502q52 0 98 -20t80 -54t53.5 -80t19.5 -98t-19.5 -97.5t-53.5 -80t-79.5 -54.5t-97.5 -20t-98 20t-80 54t-54 80t-20 98t20 97.5t54 80t79.5 54.5t97.5 20zM92 269q0 -43 14 -89t40 -83t64.5 -61t87.5 -24q44 0 76.5 19.5t54.5 51t33 70t11 77.5q0 44 -14 89.5
t-40 83t-64.5 61t-87.5 23.5q-43 0 -76 -19.5t-55 -51t-33 -70t-11 -77.5zM190 567q11 17 30 27t39 10q27 0 42.5 -6.5t34.5 -6.5q8 0 18.5 2t24.5 8q-8 -16 -26 -26t-41 -10q-26 0 -42.5 7t-36.5 7q-9 0 -19.5 -2.5t-23.5 -9.5z" />
    <glyph glyph-name="odieresis" unicode="&#xf6;" horiz-adv-x="579" 
d="M284 502q52 0 98 -20t80 -54t53.5 -80t19.5 -98t-19.5 -97.5t-53.5 -80t-79.5 -54.5t-97.5 -20t-98 20t-80 54t-54 80t-20 98t20 97.5t54 80t79.5 54.5t97.5 20zM298 12q44 0 76.5 19.5t54.5 51t33 70t11 77.5q0 44 -14 89.5t-40 83t-64.5 61t-87.5 23.5q-43 0 -76 -19.5
t-55 -51t-33 -70t-11 -77.5q0 -43 14 -89t40 -83t64.5 -61t87.5 -24zM248 562q-28 0 -28 28t28 28t28 -28t-28 -28zM312 590q0 28 28 28t28 -28t-28 -28t-28 28z" />
    <glyph glyph-name="ugrave" unicode="&#xf9;" horiz-adv-x="507" 
d="M112 500v-341q0 -26 5.5 -51t18.5 -44.5t33.5 -31t50.5 -11.5q38 0 73 16.5t64 39.5q-29 -35 -71 -57.5t-88 -22.5q-38 0 -65 14.5t-44 38.5t-25 55.5t-8 65.5v206q0 18 -7 34t-29 17zM358 428l92 72v-367q0 -9 1.5 -20t5 -21.5t10.5 -17.5t19 -7l-92 -67v377
q0 19 -7 34.5t-29 16.5zM256 562l-72 87h59l31 -87h-18z" />
    <glyph glyph-name="uacute" unicode="&#xfa;" horiz-adv-x="507" 
d="M112 500v-341q0 -26 5.5 -51t18.5 -44.5t33.5 -31t50.5 -11.5q38 0 73 16.5t64 39.5q-29 -35 -71 -57.5t-88 -22.5q-38 0 -65 14.5t-44 38.5t-25 55.5t-8 65.5v206q0 18 -7 34t-29 17zM358 428l92 72v-367q0 -9 1.5 -20t5 -21.5t10.5 -17.5t19 -7l-92 -67v377
q0 19 -7 34.5t-29 16.5zM258 562h-17l28 87h57z" />
    <glyph glyph-name="ucircumflex" unicode="&#xfb;" horiz-adv-x="507" 
d="M112 500v-341q0 -26 5.5 -51t18.5 -44.5t33.5 -31t50.5 -11.5q38 0 73 16.5t64 39.5q-29 -35 -71 -57.5t-88 -22.5q-38 0 -65 14.5t-44 38.5t-25 55.5t-8 65.5v206q0 18 -7 34t-29 17zM450 500v-367q0 -9 1.5 -20t5 -21.5t10.5 -17.5t19 -7l-92 -67v377q0 19 -7 34.5
t-29 16.5zM186 562l62 80h35l63 -80h-14l-66 55l-64 -55h-16z" />
    <glyph glyph-name="udieresis" unicode="&#xfc;" horiz-adv-x="507" 
d="M112 500v-341q0 -26 5.5 -51t18.5 -44.5t33.5 -31t50.5 -11.5q38 0 73 16.5t64 39.5q-29 -35 -71 -57.5t-88 -22.5q-38 0 -65 14.5t-44 38.5t-25 55.5t-8 65.5v206q0 18 -7 34t-29 17zM358 428l92 72v-367q0 -9 1.5 -20t5 -21.5t10.5 -17.5t19 -7l-92 -67v377
q0 19 -7 34.5t-29 16.5zM203 562q-28 0 -28 28t28 28t28 -28t-28 -28zM295 562q-28 0 -28 28t28 28t28 -28t-28 -28z" />
    <glyph glyph-name="yacute" unicode="&#xfd;" horiz-adv-x="553" 
d="M12 500h153q-15 -5 -22 -18t-7 -28q0 -8 10 -34.5t26 -63t35 -78.5t36.5 -80t31.5 -67.5t19 -41.5q6 12 18.5 40t29 64t34 75t31.5 73t23.5 60t9.5 34q0 23 -12 42t-36 23h153q-29 -5 -51 -25t-34 -46q-69 -151 -134.5 -301.5t-133.5 -302.5q-6 -13 -14 -26t-18.5 -24
t-23.5 -18t-29 -7q-14 0 -26 10.5t-12 24.5q0 17 10.5 24.5t25.5 7.5q10 0 21.5 -1t22 0.5t20 6t14.5 16.5l78 177l-178 403q-12 28 -27 48.5t-44 32.5zM294 649h57l-68 -87h-17z" />
    <glyph glyph-name="ydieresis" unicode="&#xff;" horiz-adv-x="553" 
d="M12 500h153q-15 -5 -22 -18t-7 -28q0 -8 10 -34.5t26 -63t35 -78.5t36.5 -80t31.5 -67.5t19 -41.5q6 12 18.5 40t29 64t34 75t31.5 73t23.5 60t9.5 34q0 23 -12 42t-36 23h153q-29 -5 -51 -25t-34 -46q-69 -151 -134.5 -301.5t-133.5 -302.5q-6 -13 -14 -26t-18.5 -24
t-23.5 -18t-29 -7q-14 0 -26 10.5t-12 24.5q0 17 10.5 24.5t25.5 7.5q10 0 21.5 -1t22 0.5t20 6t14.5 16.5l78 177l-178 403q-12 28 -27 48.5t-44 32.5zM248 618q28 0 28 -28t-28 -28t-28 28t28 28zM312 590q0 28 28 28t28 -28t-28 -28t-28 28z" />
    <glyph glyph-name="Scaron" unicode="&#x160;" horiz-adv-x="549" 
d="M48 5v200q13 -38 35 -74t52 -64t67.5 -45t80.5 -17q32 0 64.5 7t59 22.5t43.5 41.5t17 63q0 46 -29.5 76.5t-74.5 55t-96.5 47t-96.5 51.5t-74.5 68t-29.5 98q0 45 17 78.5t46 56t67 34t79 11.5q29 0 55.5 -8.5t49.5 -18t40.5 -18t27.5 -8.5q18 0 29.5 12.5t16.5 28.5
q-1 -42 -3 -82.5t-3 -82.5q-10 36 -31.5 66t-50 52.5t-63.5 35t-72 12.5q-29 0 -57.5 -7.5t-51 -23.5t-36.5 -40t-14 -57q0 -35 17.5 -61t45.5 -47.5t64 -39.5t74 -36.5t74 -39t64 -46.5t45.5 -60t17.5 -79t-21 -78.5t-54 -55t-73.5 -32t-79.5 -10.5q-25 0 -49 6.5t-47.5 15
t-46 15t-45.5 6.5q-16 0 -29 -8t-21 -21zM192 850h14l67 -55l63 55h16l-62 -80h-35z" />
    <glyph glyph-name="scaron" unicode="&#x161;" horiz-adv-x="433" 
d="M34 144q22 -57 69 -95.5t110 -38.5q21 0 47 3t48.5 12.5t38 27t15.5 45.5q0 32 -24 52.5t-59.5 36.5t-77 30t-77 33t-59.5 46.5t-24 69.5q0 35 14 61t36.5 43.5t52.5 26.5t61 9q15 0 38 -3t47.5 -8.5t47.5 -11.5t36 -12v-94q-9 27 -26.5 49t-41 37.5t-51 24.5t-54.5 9
q-19 0 -41 -5.5t-40.5 -16.5t-30.5 -27.5t-12 -39.5q0 -36 24 -59.5t59.5 -40.5t77.5 -31t77.5 -32t59.5 -44t24 -67q0 -39 -15.5 -65.5t-40.5 -43t-57 -23.5t-65 -7q-44 0 -94.5 8.5t-92.5 21.5v119zM202 559l-63 80h14l66 -55l64 55h16l-62 -80h-35z" />
    <glyph glyph-name="Ydieresis" unicode="&#x178;" horiz-adv-x="597" 
d="M23 700h166q-13 -5 -19 -17t-6 -26q0 -18 10 -38l151 -287l137 263q5 11 9 22t4 23q0 20 -11.5 37t-30.5 23h142q-13 -4 -26.5 -14t-26 -23t-22.5 -27t-16 -26l-149 -288v-242q0 -27 10 -49t38 -31h-164q29 9 38.5 32t9.5 50v223l-169 317q-6 11 -13.5 23t-17.5 23
t-21 19.5t-23 12.5zM352 788q0 11 8 19.5t19 8.5q12 0 20.5 -8.5t8.5 -19.5q0 -12 -8.5 -20t-19.5 -8t-19.5 8t-8.5 20zM265 816q11 0 19 -8t8 -19q0 -12 -8 -20.5t-19 -8.5q-12 0 -20.5 8.5t-8.5 20.5q0 11 8.5 19t20.5 8z" />
    <glyph glyph-name="Zcaron" unicode="&#x17d;" horiz-adv-x="572" 
d="M451 688h-208q-58 0 -104.5 -30t-73.5 -81l30 123h440l-424 -688h220q27 0 54 8t50.5 23t43 35t32.5 44l-31 -122h-453zM288 850l66 -55l64 55h16l-62 -80h-35l-63 80h14z" />
    <glyph glyph-name="zcaron" unicode="&#x17e;" horiz-adv-x="466" 
d="M18 0l334 490h-189q-19 0 -38 -7t-36.5 -18.5t-33 -26t-26.5 -28.5l36 90h359l-334 -491h226q20 0 39 9.5t36 24t31.5 31.5t23.5 33l-32 -107h-396zM245 559l-63 80h14l66 -55l64 55h16l-62 -80h-35z" />
    <glyph glyph-name="tilde" unicode="&#x2dc;" horiz-adv-x="447" 
 />
    <glyph glyph-name="A.ss01" horiz-adv-x="703" 
d="M51 0q23 9 44.5 31t29.5 45l242 633l238 -631q9 -25 25.5 -47t42.5 -31h-176q19 8 29.5 23.5t10.5 35.5q0 12 -8.5 37.5t-19.5 54t-22.5 55t-16.5 40.5q-21 -15 -45.5 -21.5t-51 -9t-54 -3.5t-54 -5.5t-51 -15t-44.5 -31.5q-8 -23 -18.5 -46.5t-10.5 -49.5
q0 -23 18 -39.5t38 -24.5h-146zM180 185q33 24 71 30.5t76 8.5t74 7.5t64 26.5l-128 339zM367 -178q-7 18 -23.5 33.5t-33.5 23.5q18 9 33.5 23.5t23.5 33.5q6 -18 22.5 -33.5t33.5 -23.5q-17 -6 -33.5 -23t-22.5 -34z" />
    <glyph glyph-name="B.ss01" horiz-adv-x="568" 
d="M15 0q29 9 38.5 32t9.5 50v538q0 28 -9.5 49.5t-38.5 30.5h227q40 0 79 -9t70 -29t50 -52t19 -78q0 -60 -35 -99t-91 -54q41 -3 76.5 -16.5t62.5 -37t42.5 -57t15.5 -77.5q0 -51 -20.5 -87t-54.5 -59.5t-77 -34t-88 -10.5h-276zM130 12h148q85 0 130.5 47.5t45.5 131.5
q0 33 -10.5 65t-30 57t-48.5 40.5t-65 15.5q-23 0 -47.5 -10t-47 -25t-42 -33.5t-33.5 -35.5v-253zM130 689v-405q23 26 49 45.5t55 35.5t57 29.5t50 30.5t35 42t13 65q0 74 -39.5 115.5t-114.5 41.5h-105z" />
    <glyph glyph-name="H.ss01" horiz-adv-x="693" 
d="M50 0q29 15 39 31.5t10 48.5v540q0 27 -10 49.5t-39 30.5h164q-29 -9 -38 -31t-9 -49v-391q25 44 54 68.5t60.5 39.5t64 26t63.5 27t59 42t51 72v116q0 28 -9.5 49.5t-38.5 30.5h164q-28 -9 -38 -31t-10 -49v-538q0 -27 9.5 -49.5t38.5 -32.5h-164q31 9 39.5 31t8.5 51
v396q-24 -42 -54 -66t-62.5 -39t-66 -26.5t-64.5 -28t-58 -43t-47 -72.5v-123q0 -27 9.5 -48.5t37.5 -31.5h-164z" />
    <glyph glyph-name="K.ss01" horiz-adv-x="619" 
d="M97 82v538q0 25 -12 48t-36 32h164q-29 -9 -38.5 -30.5t-9.5 -49.5v-389q34 76 93 136q23 23 58.5 57t70 72t59 77t24.5 72q0 41 -40 55h146q-33 -9 -58.5 -32.5t-41.5 -53.5q-25 -46 -46.5 -77t-44.5 -56.5t-49 -51.5t-60 -62h67l205 -299q13 -19 38 -39.5t47 -28.5
h-108q-15 0 -23 13l-237 345q-66 -71 -100 -160v-116q0 -29 9.5 -50t38.5 -32h-164q31 9 39.5 31t8.5 51z" />
    <glyph glyph-name="M.ss01" horiz-adv-x="903" 
d="M51 700h135l283 -579q27 80 65 147t76 133t70 137.5t46 161.5h115q-29 -11 -38.5 -31t-9.5 -49v-539q0 -28 9 -50.5t39 -30.5h-164q29 9 39 31.5t10 49.5v556q-20 -86 -58 -159t-79.5 -145t-78.5 -148t-55 -168h-1l-3 -16l-317 652v-564q0 -35 20.5 -57t52.5 -32h-156
q32 10 52 32t20 57v527q0 32 -21.5 53.5t-50.5 30.5zM450 -179q-7 18 -23.5 33.5t-33.5 23.5q18 9 33.5 23.5t23.5 33.5q6 -18 22.5 -33.5t33.5 -23.5q-17 -6 -33.5 -23t-22.5 -34z" />
    <glyph glyph-name="P.ss01" horiz-adv-x="604" 
d="M50 0q29 9 38.5 32t9.5 50v537q0 26 -10.5 49.5t-37.5 31.5h244q52 0 99.5 -11.5t83.5 -36.5t57.5 -65.5t21.5 -99.5q0 -60 -21.5 -97t-56.5 -60t-78 -38t-86.5 -31t-82.5 -39t-65 -62v-80q0 -27 9.5 -48.5t37.5 -31.5h-163zM166 688v-507q26 34 59.5 53.5t68.5 34.5
t69 29t60.5 37t43 59t16.5 93q0 94 -54 147.5t-148 53.5h-115z" />
    <glyph glyph-name="R.ss01" horiz-adv-x="622" 
d="M51 700h237q51 0 99.5 -11.5t86.5 -37t61 -66t23 -98.5q0 -41 -14 -76t-39 -61.5t-58.5 -44t-72.5 -25.5l142 -222q13 -20 32.5 -35t41.5 -23h-112l-167 261q-44 -17 -80.5 -38t-63.5 -61v-83q0 -26 11 -48t37 -31h-164q28 9 38 32.5t10 49.5v538q0 27 -10 49t-38 31z
M167 182q26 33 59.5 52.5t69 34.5t69.5 30t60.5 38t43 58.5t16.5 91.5q0 94 -53.5 147.5t-147.5 53.5h-117v-506z" />
    <glyph glyph-name="V.ss01" horiz-adv-x="722" 
d="M36 700h169q-17 -5 -26.5 -22.5t-9.5 -34.5q0 -9 13 -46t33.5 -88.5t45.5 -112t48 -115t41 -97.5t25 -61q22 62 51 119.5t60 114.5q13 24 31.5 61t36 76.5t30 77.5t12.5 64q0 24 -11.5 41t-35.5 23h142q-35 -11 -53.5 -31t-29.5 -55q-25 -69 -51.5 -133.5t-60.5 -129.5
q-45 -85 -83 -171t-60 -180l-253 618q-10 25 -24 48t-40 34zM304 -122q18 9 33.5 23.5t23.5 33.5q6 -18 22.5 -33.5t33.5 -23.5q-17 -6 -33.5 -23t-22.5 -34q-7 18 -23.5 33.5t-33.5 23.5z" />
    <glyph glyph-name="W.ss01" horiz-adv-x="947" 
d="M28 700h169q-19 -7 -27 -24t-8 -36q0 -7 10.5 -45t27 -91.5t36 -114.5t37.5 -116t32 -96.5t20 -53.5q15 53 37 103.5t43.5 101.5t39.5 103t25 107q-6 20 -13.5 44.5t-18.5 47.5t-26 42t-36 28h169q-17 -8 -26 -24.5t-9 -34.5q0 -14 10 -51.5t25.5 -87.5t34.5 -107
t37 -109.5t32.5 -95t21.5 -63.5q18 62 41.5 122t46.5 120.5t41.5 122t24.5 126.5l-1 1q0 29 -9.5 51.5t-41.5 29.5h141q-36 -8 -52 -25.5t-24 -52.5q-9 -42 -17 -82t-20 -81q-17 -58 -38 -114.5t-41 -113t-38 -114t-30 -117.5h-10l-165 513q-10 -53 -29 -102.5t-41 -98.5
q-33 -75 -59.5 -153t-42.5 -159h-11l-203 618q-8 26 -23.5 48.5t-41.5 33.5zM482 -179q-7 18 -23.5 33.5t-33.5 23.5q18 9 33.5 23.5t23.5 33.5q6 -19 22.5 -34t33.5 -23q-17 -6 -33.5 -23t-22.5 -34z" />
    <glyph glyph-name="X.ss01" horiz-adv-x="630" 
d="M207 700q-14 -5 -20 -16.5t-6 -25.5q0 -11 4 -21.5t10 -20.5l146 -226q22 26 44.5 55.5t42.5 61t35.5 64.5t22.5 67q0 2 0.5 3t0.5 3q0 20 -13 35t-32 21h144q-42 -14 -65.5 -48.5t-40.5 -72.5h-1q-23 -56 -57.5 -104.5t-73.5 -94.5l199 -306q14 -20 32.5 -43t42.5 -31
h-178q14 5 20.5 16.5t6.5 25.5q0 23 -15 46l-154 237q-18 -21 -46 -55.5t-54 -72.5t-45 -76t-19 -65q0 -20 12 -35t31 -21h-144q14 5 28 16.5t27.5 26t24.5 29.5t17 28q33 66 73.5 123t87.5 113l-179 278q-7 11 -16.5 24t-20.5 25t-23 22t-24 15h175z" />
    <glyph glyph-name="Y.ss01" horiz-adv-x="598" 
d="M189 700q-13 -5 -19 -17.5t-6 -25.5q0 -10 3 -19.5t8 -18.5q3 -6 15.5 -30t29 -56t35 -67.5t34.5 -66t27.5 -51t12.5 -21.5q9 42 34 82.5t51.5 79.5t47 76t20.5 72q0 22 -14 39t-34 24h142q-65 -20 -84 -82q-7 -22 -14 -40t-16 -34t-19.5 -32t-24.5 -35t-28.5 -41
t-26.5 -45.5t-19.5 -48t-7.5 -48.5v-214q0 -28 9 -49t38 -31h-164q29 8 39 31.5t10 50.5v223l-170 317q-13 24 -31 46t-44 32h166z" />
    <glyph glyph-name="y.ss01" horiz-adv-x="555" 
d="M166 500q-13 -5 -22 -16t-9 -25q0 -5 11 -33t28 -67.5t37.5 -85.5t39 -88t33.5 -74.5t20 -44.5q23 63 43.5 126t46.5 125q9 21 19 41.5t18 41.5q4 10 7 20t3 21q0 22 -13 38.5t-35 20.5h154q-26 -5 -49.5 -27t-43.5 -54t-37 -70t-30.5 -75.5t-24 -71t-18.5 -56.5
q-15 -46 -32 -93t-37.5 -92t-47 -86.5t-61.5 -77.5v1q-12 -12 -30.5 -22t-36.5 -10q-16 0 -30 11.5t-14 28.5q0 13 9.5 22t22.5 9q16 0 30.5 -7.5t30.5 -7.5q19 0 38.5 20t36.5 47t30 55t20 43l-190 432q-11 26 -27.5 48t-43.5 33h154z" />
    <glyph glyph-name="a.ss01" horiz-adv-x="459" 
d="M19 119q0 37 17 60.5t43.5 40t59 29t63.5 26t57 31t39 45.5q2 4 5.5 12.5t3.5 12.5q0 21 -7 41t-20 36t-31 25.5t-41 9.5q-13 0 -30.5 -3t-33.5 -10.5t-27 -18.5t-11 -28q0 -11 2.5 -21t2.5 -21q0 -37 -38 -37q-17 0 -25.5 12t-8.5 27q0 26 20 46.5t48 35t58.5 22.5
t51.5 8q78 0 113 -38.5t35 -115.5v-251q0 -23 9 -42.5t36 -19.5q22 0 39 14q-3 -10 -10.5 -18.5t-17.5 -15t-21 -10t-21 -3.5q-22 0 -36 8t-21.5 21t-10 30t-2.5 36v251q-12 -25 -33.5 -42t-46 -30t-50 -25t-46 -28.5t-33.5 -39t-13 -56.5q0 -46 28 -74t74 -28q29 0 56.5 11
t50.5 28q-26 -32 -62 -47t-77 -15q-27 0 -51.5 8t-44 23t-31 37t-11.5 51z" />
    <glyph glyph-name="e.ss01" horiz-adv-x="515" 
d="M34 238q0 59 17 107t49.5 82t79.5 53t107 19q35 0 67.5 -14.5t57 -39t39.5 -57t15 -67.5q0 -23 -19.5 -37.5t-50.5 -25t-69.5 -19.5t-76.5 -22.5t-71 -34t-53 -52.5q52 -96 159 -96q23 0 50.5 4t53.5 13t47.5 24.5t33.5 37.5q-10 -28 -31 -50.5t-47.5 -38t-56.5 -23.5
t-59 -8q-51 0 -95.5 19t-77 52.5t-51 78t-18.5 95.5zM95 279q0 -72 25 -137q22 32 51.5 50t61 30t62.5 22t55.5 25t39.5 38t15 62q0 28 -10.5 50.5t-28 38.5t-41.5 24.5t-51 8.5q-41 0 -74 -19t-56.5 -49.5t-36 -68t-12.5 -75.5z" />
    <glyph glyph-name="g.ss01" horiz-adv-x="543" 
d="M35 308q0 44 18.5 81t49.5 64t70 42t81 15q43 0 83 -14.5t70.5 -41t49 -63.5t18.5 -82t-19 -82.5t-50 -64.5t-71 -42t-83 -15q-42 0 -81 15.5t-69.5 42.5t-48.5 64.5t-18 80.5zM267 117q34 0 60.5 16t44.5 41.5t27 57t9 61.5q0 35 -12 71.5t-33.5 66.5t-53 49t-70.5 19
q-34 0 -60 -16t-43.5 -41.5t-26.5 -57t-9 -61.5q0 -35 11.5 -71.5t33 -66.5t52.5 -49t70 -19zM34 22q0 29 17 54t42 39q-16 -14 -27 -36t-11 -43q0 -26 16 -36.5t39 -10.5q35 0 68.5 6t66.5 12.5t67 12.5t68 6q62 0 101 -27t39 -94q0 -42 -19 -75t-50 -56.5t-69 -36
t-76 -12.5q-20 0 -41 3.5t-38.5 13t-29 25.5t-11.5 40q0 22 11 44.5t32 30.5q-7 -10 -7 -25q0 -24 11 -42t28 -30t39 -18t43 -6q29 0 57 8t50 24.5t36 40.5t14 56q0 45 -24.5 63.5t-66.5 18.5q-33 0 -65.5 -7t-64 -15.5t-64 -15.5t-65.5 -7q-21 0 -42 6t-37.5 17.5
t-26.5 29.5t-10 42zM401 506q13 21 35 37.5t48 16.5q17 0 30.5 -8t13.5 -27q0 -17 -11 -26t-27 -9q-17 0 -32 10t-33 10q-13 0 -24 -4z" />
    <glyph glyph-name="k.ss01" horiz-adv-x="534" 
d="M25 0q31 9 41 33.5t10 53.5v524q0 9 -1 20.5t-4.5 21.5t-11 17t-19.5 7l93 67v-657q0 -27 11 -53t40 -34h-159zM154 269q19 35 42.5 55.5t55.5 42.5q12 8 27.5 19t29.5 24.5t24 28.5t10 30q0 9 -11.5 18t-19.5 12h126q-38 -13 -65 -38q-29 -27 -56 -54t-59 -50
q-29 -20 -50 -39t-40 -49l60 1l191 -218q18 -21 36 -32.5t45 -19.5h-111z" />
    <glyph glyph-name="v.ss01" horiz-adv-x="555" 
d="M12 500h153q-14 -4 -21.5 -17.5t-7.5 -27.5q0 -9 9.5 -35t24.5 -61t33 -74.5t35 -76t31 -65.5t20 -43q8 18 22.5 45.5t31 59t34 65.5t31.5 65t23 57t9 42q0 23 -12 42.5t-37 23.5h153q-30 -5 -51 -24.5t-34 -46.5q-21 -48 -41.5 -95t-45.5 -93q-29 -53 -56.5 -107
t-41.5 -113l-5 -21l-186 420q-11 26 -28 47.5t-43 32.5z" />
    <glyph glyph-name="w.ss01" horiz-adv-x="812" 
d="M177 500q-13 -4 -21.5 -14.5t-8.5 -24.5q0 -5 10 -30.5t25.5 -62.5t34.5 -79.5t36 -81.5t30.5 -68.5t18.5 -40.5q23 54 49.5 104.5t48.5 104.5l-50 112q-13 29 -25.5 48t-43.5 33h153q-12 -4 -22.5 -13t-10.5 -23q0 -4 10.5 -30t26 -62.5t34.5 -79.5t36.5 -82.5t31 -69.5
t18.5 -41q13 29 35.5 74.5t44.5 93.5t38 93t16 73q0 23 -11 43t-36 24h153q-27 -6 -51 -25q-23 -19 -33 -38t-18 -47q-15 -51 -37.5 -99t-45.5 -96t-43.5 -96.5t-33.5 -99.5l-129 293q-16 -36 -34.5 -72t-36 -72t-32.5 -73t-24 -76l-186 420q-12 26 -26.5 47.5t-43.5 33.5
h153z" />
    <glyph glyph-name="x.ss01" horiz-adv-x="533" 
d="M132 90q23 40 50 76.5t59 69.5l-147 192q-16 21 -33.5 41t-42.5 31h159q-12 -3 -19.5 -14t-7.5 -23t17 -38.5t39 -55t43.5 -55t30.5 -38.5q15 15 35.5 36.5t39 46t31.5 50t13 47.5q0 19 -12 30t-29 14h153q-24 -9 -40 -16t-28 -16.5t-22 -24t-22 -37.5q-21 -41 -50 -74.5
t-61 -65.5q22 -29 49 -67t56 -75.5t59 -70.5t59 -53h-159q12 4 20 14t8 23q0 12 -17 38.5t-39.5 56t-44.5 56t-31 38.5q-16 -16 -36 -38t-37 -46.5t-29 -50.5t-12 -50q0 -36 37 -41h-153q18 2 34.5 11t31.5 21.5t27 27.5t21 30z" />
    <glyph glyph-name="i.ss01" horiz-adv-x="219" 
d="M28 0q29 9 38.5 31.5t9.5 50.5v293q0 8 -1 18.5t-4.5 20.5t-10 16.5t-17.5 6.5l90 63v-418q0 -28 10 -50.5t38 -31.5h-153zM44 620q18 9 33.5 23.5t23.5 33.5q6 -18 23 -33.5t34 -23.5q-17 -6 -34 -23t-23 -34q-7 18 -23.5 33.5t-33.5 23.5z" />
    <glyph glyph-name="o.ss01" horiz-adv-x="578" 
d="M284 500q52 0 97.5 -19.5t79.5 -53.5t53.5 -79.5t19.5 -97.5q0 -51 -19.5 -97t-53 -80t-79 -54t-97.5 -20t-98 19.5t-80 53.5t-54 80t-20 98q0 51 20 96.5t54 79.5t80 54t97 20zM91 269q0 -44 14 -89.5t40.5 -82.5t65 -60.5t87.5 -23.5q43 0 76 19.5t55 50.5t33 70t11 77
q0 44 -14 89t-40.5 82t-65 60.5t-86.5 23.5q-43 0 -75.5 -19.5t-55 -50.5t-34 -69.5t-11.5 -76.5zM229 245q18 9 33.5 23.5t23.5 33.5q6 -19 23 -34t34 -23q-17 -6 -34 -23t-23 -34q-7 19 -23.5 33.5t-33.5 23.5z" />
    <glyph glyph-name="r_a_n" horiz-adv-x="1262" 
d="M422 261q32 9 62.5 16t62.5 12v63q0 42 -10.5 69.5t-29.5 43.5t-44 22.5t-54 6.5q24 12 52 12q47 0 75 -15.5t43 -42.5t19.5 -64.5t4.5 -81.5q48 11 95 27t91 40q0 9 -1.5 20.5t-5 22t-10.5 17.5t-19 7l92 66v-98q26 18 46.5 36t41.5 32.5t46 23.5t61 9q38 0 64.5 -14.5
t43.5 -39t25 -56t8 -65.5v-241q0 -29 11 -53.5t43 -35.5h-161q30 11 40.5 35.5t10.5 53.5v254q0 26 -6 51t-18.5 44.5t-33.5 31.5t-51 12q-37 0 -62.5 -12t-53.5 -35q-44 -37 -85.5 -62t-85 -42.5t-90 -29.5t-101.5 -23q-26 -5 -53 -11t-53 -15q-46 -17 -78.5 -52.5
t-32.5 -86.5q0 -43 26.5 -67t68.5 -24q30 0 59 8t55 25q-32 -31 -68.5 -43.5t-80.5 -12.5q-25 0 -48.5 6.5t-41.5 20t-29 34t-11 47.5q0 37 16 62.5t40.5 43t55 29t59.5 19.5zM10 0q29 9 38.5 32t9.5 51v295q0 8 -1 19t-4.5 20.5t-10 16t-18.5 6.5l91 64v-421
q0 -27 10.5 -49.5t37.5 -33.5h-153zM789 89v248q14 6 29.5 14.5t26.5 18.5l1 -281q0 -29 10.5 -53.5t41.5 -35.5h-159q30 11 40 35.5t10 53.5zM547 94v165l28 6t28 8v-179q0 -22 9.5 -42.5t35.5 -20.5q23 0 40 15q-6 -20 -28.5 -33.5t-42.5 -13.5q-22 0 -36 8t-21.5 21
t-10 30t-2.5 36zM312 493q11 0 24 -2.5t24 -8.5t18 -15.5t7 -23.5t-8 -27.5t-25 -13.5q-18 0 -25.5 10t-15 21.5t-20 21.5t-39.5 10q-23 0 -50 -9t-44 -21q11 11 30.5 21.5t42 18.5t44.5 13t37 5z" />
    </font>
</defs>
</svg>
