<?xml version="1.0" standalone="no"?>
<!DOCTYPE svg PUBLIC "-//W3C//DTD SVG 1.1//EN" "http://www.w3.org/Graphics/SVG/1.1/DTD/svg11.dtd" >
<svg xmlns="http://www.w3.org/2000/svg" xmlns:xlink="http://www.w3.org/1999/xlink" version="1.1">
<metadata>
Created by FontForge 20190801 at Fri Jan  1 00:00:00 1904
 By www-data
Copyright (c) 1990, 1991 Adobe Systems Incorporated. All Rights Reserved.Gill Sans is a registered trademark of The Monotype Corporation Plc.
</metadata>
<defs>
<font id="GillSansLight" horiz-adv-x="500" >
  <font-face 
    font-family="GillSansLight"
    font-weight="300"
    font-stretch="normal"
    units-per-em="1000"
    panose-1="2 11 4 0 0 0 0 0 0 0"
    ascent="800"
    descent="-200"
    x-height="449"
    cap-height="682"
    bbox="-45 -250 1036 897"
    underline-thickness="50"
    underline-position="-100"
    unicode-range="U+0020-2122"
  />
<missing-glyph horiz-adv-x="502" 
d="M-1 0h500v500h-500v-500zM9 10v480h480v-480h-480z" />
    <glyph glyph-name=".notdef" horiz-adv-x="502" 
d="M-1 0h500v500h-500v-500zM9 10v480h480v-480h-480z" />
    <glyph glyph-name=".null" horiz-adv-x="0" 
 />
    <glyph glyph-name="nonmarkingreturn" horiz-adv-x="333" 
 />
    <glyph glyph-name="space" unicode=" " horiz-adv-x="278" 
 />
    <glyph glyph-name="exclam" unicode="!" horiz-adv-x="177" 
d="M121 97h-65v-97h65v97zM121 682h-65l17 -490h31z" />
    <glyph glyph-name="quotedbl" unicode="&#x22;" horiz-adv-x="278" 
d="M175 684v-109l12 -125h42l12 125v109h-66zM37 684v-109l12 -125h42l12 125v109h-66z" />
    <glyph glyph-name="numbersign" unicode="#" horiz-adv-x="660" 
d="M261 698l-42 -205h-142v-46h132l-39 -191h-93v-46h83l-42 -203h46l42 203h190l-42 -203h46l42 203h141v46h-131l40 191h91v46h-82l43 205h-46l-43 -205h-190l42 205h-46zM255 447h191l-40 -191h-190z" />
    <glyph glyph-name="dollar" unicode="$" horiz-adv-x="521" 
d="M455 600q-43 31 -79.5 44t-91.5 17v30h-48v-30q-53 -3 -91 -19.5t-61 -41t-33.5 -52t-10.5 -53.5q0 -62 48 -106t148 -74v-277q-55 8 -98.5 26.5t-102.5 61.5v-55q43 -37 92 -56.5t109 -23.5v-108h48v108q54 4 93.5 22.5t62.5 44.5t33.5 54.5t10.5 53.5q0 70 -50 115
t-150 72v261q50 -5 87 -20.5t84 -49.5v56zM236 368q-44 12 -73 28t-44.5 33.5t-21.5 34.5t-6 34q0 44 40 79.5t105 36.5v-246zM284 299q81 -25 115 -56t34 -80q0 -50 -42.5 -86t-106.5 -39v261z" />
    <glyph glyph-name="percent" unicode="%" horiz-adv-x="698" 
d="M679 149q0 33 -12.5 62.5t-35 51.5t-52 34.5t-61.5 12.5q-33 0 -62 -12.5t-51.5 -34.5t-35 -51.5t-12.5 -62.5t12.5 -62t35 -51.5t51.5 -35t62 -12.5q32 0 61.5 12.5t52 34.5t35 51.5t12.5 62.5zM636 149q0 -49 -34.5 -83.5t-83.5 -34.5t-83.5 34.5t-34.5 83.5
q0 48 34.5 83t83.5 35t83.5 -34.5t34.5 -83.5zM341 530q0 33 -12.5 62.5t-35 51.5t-52 34.5t-61.5 12.5q-33 0 -62 -12.5t-51.5 -34.5t-35 -51.5t-12.5 -62.5t12.5 -62t35 -51.5t51.5 -35t62 -12.5q32 0 61.5 12.5t52 34.5t35 51.5t12.5 62.5zM298 530q0 -49 -34.5 -83.5
t-83.5 -34.5t-83.5 34.5t-34.5 83.5q0 48 34.5 83t83.5 35t83.5 -34.5t34.5 -83.5zM645 688h-49l-550 -699h50z" />
    <glyph glyph-name="ampersand" unicode="&#x26;" horiz-adv-x="615" 
d="M508 340q-15 -45 -32.5 -81t-42.5 -73l-155 161q73 37 108 81.5t35 99.5q0 61 -42 101t-107 40q-68 0 -115 -43t-47 -106q0 -39 20.5 -76t64.5 -83q-82 -35 -125.5 -89t-43.5 -119q0 -73 49 -117.5t129 -44.5q74 0 128.5 29t106.5 87l103 -107h67l-139 147q62 93 94 193
h-56zM244 384q-83 76 -83 139q0 41 31 69t77 28q44 0 73.5 -27.5t29.5 -69.5t-33 -77.5t-95 -61.5zM403 144q-44 -53 -90 -78.5t-98 -25.5q-62 0 -97 31.5t-35 88.5q0 54 34.5 92t112.5 72z" />
    <glyph glyph-name="quotesingle" unicode="'" horiz-adv-x="222" 
d="M78 684v-109l12 -125h42l12 125v109h-66z" />
    <glyph glyph-name="parenleft" unicode="(" horiz-adv-x="333" 
d="M131 231q0 126 50 250t144 210h-50q-96 -96 -145.5 -213t-49.5 -247t50 -247.5t146 -213.5h50q-94 86 -144.5 210.5t-50.5 250.5z" />
    <glyph glyph-name="parenright" unicode=")" horiz-adv-x="333" 
d="M202 231q0 -126 -50 -250.5t-145 -210.5h50q96 96 146 213.5t50 247.5t-50 247t-146 213h-50q95 -86 145 -210t50 -250z" />
    <glyph glyph-name="asterisk" unicode="*" horiz-adv-x="469" 
d="M395 613l-34 35l-116 -139l-5 3l17 179h-46l18 -180l-5 -2l-114 139l-35 -35l140 -113l-1 -6l-182 18v-46l183 17l2 -5l-142 -114l35 -34l115 141l4 -1l-18 -185h46l-17 185l5 1l116 -141l34 34l-141 114l3 6l180 -20v47l-180 -16l-2 5z" />
    <glyph glyph-name="plus" unicode="+" horiz-adv-x="660" 
d="M68 373v-44h240v-240h44v240h240v44h-240v240h-44v-240h-240z" />
    <glyph glyph-name="comma" unicode="," horiz-adv-x="177" 
d="M121 97h-65v-97h21q0 -27 -4 -45t-17 -37v-35q32 23 48.5 60.5t16.5 77.5v76z" />
    <glyph glyph-name="hyphen" unicode="-" horiz-adv-x="313" 
d="M275 249h-237v-47h237v47z" />
    <glyph glyph-name="period" unicode="." horiz-adv-x="177" 
d="M121 97h-65v-97h65v97z" />
    <glyph glyph-name="slash" unicode="/" horiz-adv-x="281" 
d="M223 691l-220 -700h47l219 700h-46z" />
    <glyph glyph-name="zero" unicode="0" 
d="M468 338q0 98 -23 174.5t-72 125.5q-25 25 -56.5 39t-66.5 14t-68 -15.5t-57 -39.5q-48 -48 -70.5 -122t-22.5 -185q0 -75 16 -137.5t45.5 -107.5t70 -69t88.5 -24q44 0 83 23.5t69 68.5t47 110t17 145zM417 343q0 -61 -11 -116t-32.5 -97t-53.5 -66.5t-72 -24.5
q-36 0 -66.5 21.5t-52.5 62t-34 96.5t-12 122t12 121.5t34.5 96t53.5 62.5t67 22q42 0 73.5 -25t52.5 -68t31 -96.5t10 -110.5z" />
    <glyph glyph-name="one" unicode="1" 
d="M275 682h-51v-682h51v682z" />
    <glyph glyph-name="two" unicode="2" 
d="M45 569q48 42 81.5 58t73.5 16q65 0 109 -42.5t44 -106.5q0 -40 -16 -89.5t-52 -110t-98 -135t-150 -159.5h433v47h-317q132 150 191.5 258.5t59.5 189.5q0 41 -15 76.5t-42.5 62.5t-64.5 42t-78 15q-83 0 -159 -62v-60z" />
    <glyph glyph-name="three" unicode="3" 
d="M74 598q67 45 140 45q67 0 111.5 -36.5t44.5 -91.5q0 -54 -45.5 -93t-122.5 -39v-48q83 0 129.5 -41t46.5 -110q0 -65 -44 -105t-115 -40q-80 0 -151 33v-47q32 -16 74.5 -25t82.5 -9q37 0 73 12t65.5 36t47.5 61.5t18 86.5q0 60 -32 106t-100 68v2q62 19 93 61.5
t31 94.5q0 76 -57 124t-146 48q-84 0 -144 -44v-49z" />
    <glyph glyph-name="four" unicode="4" 
d="M376 691h-19l-343 -411v-17h311v-263h51v263h95v41h-95v387zM325 304h-240l238 288h2v-288z" />
    <glyph glyph-name="five" unicode="5" 
d="M386 682h-289v-318q49 14 94 14q81 0 132.5 -44t51.5 -126q0 -74 -47.5 -121.5t-120.5 -47.5q-37 0 -76 13t-90 42v-58q44 -23 84 -34t80 -11q47 0 87.5 16.5t70.5 46.5t46.5 70.5t16.5 87.5q0 98 -62.5 154.5t-163.5 56.5q-27 0 -55 -4v216h241v47z" />
    <glyph glyph-name="six" unicode="6" 
d="M345 691q-136 -101 -210 -213t-74 -247q0 -109 56.5 -174.5t151.5 -65.5q85 0 139.5 54t54.5 138q0 39 -14.5 73.5t-40 59.5t-61 39t-75.5 14q-79 0 -151 -53q15 87 83 177t171 162zM112 257q39 34 75.5 49t77.5 15q62 0 104.5 -42t42.5 -103q0 -58 -42 -97.5t-104 -39.5
q-68 0 -112 49t-44 134q0 16 2 35z" />
    <glyph glyph-name="seven" unicode="7" 
d="M475 682h-446v-47h372l-282 -625l44 -19z" />
    <glyph glyph-name="eight" unicode="8" 
d="M158 355q-102 -61 -102 -173q0 -39 15 -74t42 -61.5t63 -41t76 -14.5t75.5 15t62 41.5t41 62.5t14.5 76q0 108 -101 169q87 59 87 155q0 36 -14 69t-39.5 58.5t-58.5 39.5t-70 14q-36 0 -68.5 -14t-57.5 -39.5t-39.5 -59t-14.5 -69.5q0 -94 89 -154zM251 377
q-55 0 -93 38.5t-38 94.5t37.5 94.5t91.5 38.5q55 0 93 -38t38 -93q0 -58 -36.5 -96.5t-92.5 -38.5zM249 329q61 0 103 -40.5t42 -99.5q0 -65 -39.5 -107.5t-102.5 -42.5q-61 0 -103 42.5t-42 102.5t41 102.5t101 42.5z" />
    <glyph glyph-name="nine" unicode="9" 
d="M144 -9q152 109 221 223t69 238q0 111 -56 175t-154 64q-84 0 -138 -53.5t-54 -136.5q0 -39 14.5 -73.5t40.5 -60t60.5 -39.5t74.5 -14q37 0 72 12t78 39q-16 -85 -74.5 -166.5t-181.5 -170.5zM381 426q-71 -64 -157 -64q-61 0 -101 40.5t-40 101.5q0 60 42 99.5
t102 39.5q76 0 115.5 -50.5t39.5 -136.5v-14q-1 -11 -1 -16z" />
    <glyph glyph-name="colon" unicode=":" horiz-adv-x="177" 
d="M121 449h-65v-97h65v97zM121 97h-65v-97h65v97z" />
    <glyph glyph-name="semicolon" unicode=";" horiz-adv-x="177" 
d="M121 97h-65v-97h21q0 -27 -4 -45t-17 -37v-35q32 23 48.5 60.5t16.5 77.5v76zM121 449h-65v-97h65v97z" />
    <glyph glyph-name="less" unicode="&#x3c;" horiz-adv-x="660" 
d="M68 329l524 -220v49l-464 192l464 192v49l-524 -220v-42z" />
    <glyph glyph-name="equal" unicode="=" horiz-adv-x="660" 
d="M68 493v-44h524v44h-524zM68 252v-44h524v44h-524z" />
    <glyph glyph-name="greater" unicode="&#x3e;" horiz-adv-x="660" 
d="M592 329v42l-524 220v-49l464 -192l-464 -192v-49z" />
    <glyph glyph-name="question" unicode="?" horiz-adv-x="281" 
d="M25 595h10q32 53 80 53q31 0 53 -27.5t22 -66.5q0 -42 -15.5 -77.5t-46.5 -84.5q-27 -44 -40.5 -73.5t-13.5 -61.5q0 -47 39 -92l18 14q-19 33 -19 63t13.5 57t42.5 67q36 52 54.5 91.5t18.5 91.5q0 64 -34.5 103t-90.5 39q-18 0 -33 -4t-35 -14zM150 97h-65v-97h65v97z
" />
    <glyph glyph-name="at" unicode="@" horiz-adv-x="800" 
d="M558 505l-16 -82h-2q-22 48 -61.5 71t-84.5 23q-53 0 -99 -25t-80 -67.5t-53 -97t-19 -111.5q0 -44 12.5 -82t35.5 -65.5t54 -43t67 -15.5q90 0 165 90l2 -2q-4 -19 -4 -33q0 -30 15.5 -42.5t43.5 -12.5q40 0 84 23t82.5 66.5t62 104t23.5 132.5q0 65 -20.5 127.5
t-64.5 114t-113.5 82.5t-162.5 31q-107 0 -189 -36.5t-134.5 -98.5t-78 -138t-25.5 -157q0 -93 30.5 -170.5t87 -133.5t135 -86t172.5 -30q119 0 221.5 49t157.5 143h-50q-114 -152 -328 -152q-85 0 -156.5 27t-122.5 77.5t-78.5 120.5t-27.5 154q0 85 28 157t79 124.5
t121 81t152 28.5q92 0 156.5 -30t101.5 -77.5t52.5 -101.5t15.5 -106q0 -65 -20 -118t-50.5 -89t-63 -55.5t-57.5 -19.5q-24 0 -24 22q0 12 6 37l83 392h-61zM518 336q0 -40 -13.5 -88.5t-38.5 -92t-60 -71t-76 -27.5q-54 0 -89.5 44.5t-35.5 111.5q0 38 11.5 83t35.5 86
t59.5 66.5t81.5 25.5q55 0 90 -39t35 -99z" />
    <glyph glyph-name="A" unicode="A" horiz-adv-x="667" 
d="M348 687h-29l-315 -687h55l108 236h333l108 -236h55zM480 280h-293l146 321z" />
    <glyph glyph-name="B" unicode="B" horiz-adv-x="531" 
d="M80 682v-682h200q105 0 167 49t62 132q0 140 -158 173q51 28 74.5 64.5t23.5 87.5q0 33 -10.5 63.5t-36 56t-70 41t-110.5 15.5h-142zM133 638h71q87 0 137.5 -31.5t50.5 -104.5q0 -65 -43.5 -100.5t-142.5 -35.5h-73v272zM133 322h118q59 0 99 -12t62 -31.5t31 -44
t9 -52.5q0 -25 -8.5 -49.5t-29 -44.5t-55 -32t-85.5 -12h-141v278z" />
    <glyph glyph-name="C" unicode="C" horiz-adv-x="677" 
d="M647 634q-124 57 -240 57q-70 0 -134.5 -25.5t-115 -72.5t-79.5 -112t-29 -141q0 -74 27 -138t76.5 -111.5t116 -73.5t143.5 -26q122 0 242 64v55q-70 -37 -127.5 -53.5t-115.5 -16.5q-66 0 -122 22t-97 62t-63.5 95.5t-22.5 120.5q0 64 22 119t63 96.5t95.5 64
t117.5 22.5q61 0 120 -16t123 -50v58z" />
    <glyph glyph-name="D" unicode="D" horiz-adv-x="740" 
d="M79 682v-682h248q97 0 167.5 29.5t113.5 79t62.5 109.5t19.5 123q0 61 -18.5 120.5t-61.5 109.5t-116 80.5t-176 30.5h-239zM132 638h189q69 0 126.5 -21.5t99 -61.5t64 -94.5t22.5 -119.5q0 -70 -24.5 -125.5t-67.5 -94t-99 -58t-118 -19.5h-192v594z" />
    <glyph glyph-name="E" unicode="E" horiz-adv-x="490" 
d="M452 682h-372v-682h380v44h-327v277h311v44h-311v273h319v44z" />
    <glyph glyph-name="F" unicode="F" horiz-adv-x="438" 
d="M429 682h-351v-682h53v335h269v44h-269v259h298v44z" />
    <glyph glyph-name="G" unicode="G" horiz-adv-x="719" 
d="M650 633q-72 32 -124 45t-110 13q-78 0 -145 -26t-117 -73t-77 -111t-27 -138t28 -139t78 -112.5t118.5 -74t146.5 -26.5q122 0 242 58v261h-197v-44h144v-184q-43 -21 -86.5 -31.5t-100.5 -10.5q-78 0 -138 24.5t-99.5 67t-59 97t-19.5 112.5q0 64 22.5 119.5t63 96
t96 63t119.5 22.5q61 0 120.5 -17t121.5 -52v60z" />
    <glyph glyph-name="H" unicode="H" horiz-adv-x="719" 
d="M640 682h-53v-315h-455v315h-53v-682h53v323h455v-323h53v682z" />
    <glyph glyph-name="I" unicode="I" horiz-adv-x="208" 
d="M131 682h-53v-682h53v682z" />
    <glyph glyph-name="J" unicode="J" horiz-adv-x="208" 
d="M135 682h-53v-696q0 -67 -25 -102t-71 -35q-14 0 -31 4l5 -50q18 -2 32 -2q32 0 54.5 10.5t47.5 35.5q22 22 31.5 59.5t9.5 93.5v682z" />
    <glyph glyph-name="K" unicode="K" horiz-adv-x="531" 
d="M522 682h-66l-327 -340v340h-53v-682h53v342l357 -342h67l-356 342z" />
    <glyph glyph-name="L" unicode="L" horiz-adv-x="469" 
d="M132 682h-53v-682h390v44h-337v638z" />
    <glyph glyph-name="M" unicode="M" horiz-adv-x="781" 
d="M390 365l-260 317h-53v-682h53v605h2l258 -319l258 319h2v-605h53v682h-53z" />
    <glyph glyph-name="N" unicode="N" horiz-adv-x="771" 
d="M693 682h-53v-596l-517 596h-45v-682h53v596l518 -596h44v682z" />
    <glyph glyph-name="O" unicode="O" horiz-adv-x="823" 
d="M773 341q0 72 -27.5 136t-77 112.5t-116 75t-141.5 26.5t-140.5 -26.5t-115 -74.5t-77 -112t-27.5 -137q0 -72 27.5 -136t77 -112.5t115 -75t140.5 -26.5t141 26.5t116 75t77.5 112.5t27.5 136zM716 341q0 -63 -23 -118t-64.5 -96t-97 -64t-118.5 -23t-119 23t-98 64
t-65 96.5t-23 117.5q0 63 23 118t65 96t98 64t119 23t118.5 -23t97 -64t64.5 -96t23 -118z" />
    <glyph glyph-name="P" unicode="P" horiz-adv-x="510" 
d="M78 682v-682h53v319h130q64 0 108.5 15.5t70.5 41.5t37.5 58.5t11.5 67.5q0 80 -54.5 130t-168.5 50h-188zM131 638h133q85 0 126.5 -38.5t41.5 -98.5q0 -62 -42 -100t-132 -38h-127v275z" />
    <glyph glyph-name="Q" unicode="Q" horiz-adv-x="823" 
d="M743 -74l-11 10q-19 -14 -34 -19.5t-33 -5.5q-47 0 -105.5 22.5t-108.5 57.5q90 12 153.5 51t100.5 91.5t52.5 106.5t15.5 102q0 73 -27 137t-76.5 112t-116 74t-142.5 26t-142 -26.5t-115 -74.5t-76 -112t-27 -138q0 -64 23 -124.5t66.5 -109.5t103 -79t130.5 -36
q61 -51 135.5 -86.5t174.5 -47.5zM716 341q0 -62 -23.5 -117t-66.5 -96.5t-99 -64.5t-118 -23t-117 23t-96.5 65t-64.5 96.5t-23 116.5t23.5 117t65 96.5t97.5 64.5t118 23q63 0 118.5 -23t97.5 -64t65 -96t23 -118z" />
    <glyph glyph-name="R" unicode="R" horiz-adv-x="573" 
d="M79 682v-682h53v327h92q34 0 55 -4t40.5 -17.5t41.5 -42t53 -76.5l119 -187h62l-154 236q-29 44 -49 68t-42 36q130 48 130 166q0 36 -12.5 67.5t-39 56t-70.5 38.5t-104 14h-175zM132 638h111q90 0 135 -36t45 -97q0 -63 -45 -98.5t-133 -35.5h-113v267z" />
    <glyph glyph-name="S" unicode="S" horiz-adv-x="469" 
d="M400 648q-79 43 -158 43q-40 0 -75.5 -14t-63 -39t-42.5 -58t-15 -70q0 -42 14 -71.5t38 -49.5t50 -32t70 -29q37 -14 62 -25.5t45.5 -28t33 -41t12.5 -57.5q0 -58 -41.5 -97t-102.5 -39q-40 0 -77.5 16t-94.5 57v-62q90 -60 175 -60q41 0 77 14t63.5 40t42.5 60.5
t15 72.5q0 45 -15 77.5t-40 53.5t-52.5 34t-71.5 30q-37 13 -60 23.5t-43 26t-31.5 37.5t-11.5 52q0 56 41.5 93t102.5 37q35 0 68 -11t85 -41v58z" />
    <glyph glyph-name="T" unicode="T" horiz-adv-x="573" 
d="M569 682h-565v-44h256v-638h53v638h256v44z" />
    <glyph glyph-name="U" unicode="U" horiz-adv-x="698" 
d="M582 682v-375q0 -70 -19.5 -121.5t-52.5 -83.5t-74.5 -47t-86.5 -15q-47 0 -88.5 16t-74 48t-51 81.5t-18.5 114.5v382h-53v-384q0 -75 22 -133t61.5 -96.5t91 -58t110.5 -19.5q55 0 105.5 17.5t91.5 56t65 100t24 145.5v372h-53z" />
    <glyph glyph-name="V" unicode="V" horiz-adv-x="594" 
d="M591 682h-53l-240 -577l-242 577h-53l287 -689h15z" />
    <glyph glyph-name="W" unicode="W" horiz-adv-x="1031" 
d="M516 569l229 -576h13l274 689h-54l-226 -566l-228 566h-16l-229 -566l-226 566h-54l274 -689h14z" />
    <glyph glyph-name="X" unicode="X" horiz-adv-x="688" 
d="M344 388l-260 294h-68l293 -333l-309 -349h68l276 312l276 -312h68l-310 349l293 333h-68z" />
    <glyph glyph-name="Y" unicode="Y" horiz-adv-x="583" 
d="M583 682h-64l-227 -270l-228 270h-64l265 -316v-366h53v366z" />
    <glyph glyph-name="Z" unicode="Z" horiz-adv-x="635" 
d="M602 682h-570v-44h488l-511 -623l5 -15h597v44h-515l511 619z" />
    <glyph glyph-name="bracketleft" unicode="[" horiz-adv-x="302" 
d="M117 635h178v47h-226v-902h226v47h-178v808z" />
    <glyph glyph-name="backslash" unicode="\" horiz-adv-x="281" 
d="M232 -9h46l-219 700h-47z" />
    <glyph glyph-name="bracketright" unicode="]" horiz-adv-x="302" 
d="M185 -173h-178v-47h226v902h-226v-47h178v-808z" />
    <glyph glyph-name="asciicircum" unicode="^" horiz-adv-x="660" 
d="M330 691l-219 -262l31 -26l188 225l187 -225l32 26z" />
    <glyph glyph-name="underscore" unicode="_" 
d="M-6 -75v-50h512v50h-512z" />
    <glyph glyph-name="grave" unicode="`" horiz-adv-x="333" 
d="M77 677l152 -156h33l-104 156h-81z" />
    <glyph glyph-name="a" unicode="a" horiz-adv-x="427" 
d="M421 78q-21 -17 -39 -28.5t-25 -11.5q-11 0 -11 23v280q0 34 -13 57t-34.5 36t-45 18.5t-47.5 5.5q-37 0 -70.5 -11t-74.5 -37v-49q41 31 71.5 44t65.5 13q100 0 100 -92v-57q-52 -2 -98.5 -12t-83.5 -29.5t-58.5 -50t-21.5 -72.5q0 -47 35 -80.5t86 -33.5q36 0 70 13.5
t71 42.5q3 -34 9.5 -45t22.5 -11q15 0 33 8.5t50 32.5l8 6v40zM298 89q-35 -32 -64 -45t-61 -13q-38 0 -63.5 21t-25.5 53q0 56 59.5 90t154.5 34v-140z" />
    <glyph glyph-name="b" unicode="b" horiz-adv-x="510" 
d="M62 25q47 -18 83 -26t76 -8q114 0 182.5 67.5t68.5 180.5q0 97 -55.5 158t-144.5 61q-51 0 -87.5 -17.5t-74.5 -55.5v297h-48v-657zM110 331q41 46 77.5 66.5t78.5 20.5q68 0 111.5 -51t43.5 -131q0 -42 -14.5 -78.5t-42 -63.5t-64.5 -41.5t-80 -14.5q-54 0 -110 21v272z
" />
    <glyph glyph-name="c" unicode="c" horiz-adv-x="417" 
d="M379 436q-38 12 -64 17t-55 5q-48 0 -88 -17.5t-69 -49.5t-45 -76.5t-16 -96.5q0 -102 60.5 -164.5t159.5 -62.5q31 0 58.5 5t66.5 18v50q-37 -15 -63.5 -20.5t-57.5 -5.5q-79 0 -126 50t-47 135q0 84 47 136t122 52q28 0 53.5 -6t63.5 -22v53z" />
    <glyph glyph-name="d" unicode="d" horiz-adv-x="510" 
d="M449 682h-48v-260q-41 20 -70 28t-63 8q-49 0 -90.5 -17.5t-72 -49t-47.5 -74t-17 -92.5q0 -49 17.5 -92t48.5 -75t72.5 -49.5t88.5 -17.5q39 0 68 9.5t65 34.5v-35h48v682zM401 79q-34 -23 -60.5 -32t-60.5 -9q-40 0 -74.5 14t-60 40t-39.5 61t-14 75q0 80 50 131.5
t128 51.5q35 0 64.5 -9.5t66.5 -32.5v-290z" />
    <glyph glyph-name="e" unicode="e" horiz-adv-x="479" 
d="M445 241q0 54 -17 95.5t-45.5 68.5t-64 40t-72.5 13q-44 0 -82 -17t-65.5 -47.5t-43 -72.5t-15.5 -91q0 -51 16.5 -95t46.5 -76.5t71.5 -50t89.5 -17.5q95 0 173 60v54q-43 -35 -82.5 -51t-84.5 -16q-35 0 -68 13.5t-58.5 38t-39.5 57.5t-14 71v11q1 7 1 12h354zM97 280
q13 61 53 96t96 35q117 0 142 -131h-291z" />
    <glyph glyph-name="f" unicode="f" horiz-adv-x="240" 
d="M332 672q-27 11 -44.5 15t-37.5 4q-62 0 -109 -43.5t-47 -124.5v-74h-83v-39h83v-410h48v410h87v39h-87v56q0 71 26.5 105t82.5 34q18 0 35 -3.5t46 -13.5v45z" />
    <glyph glyph-name="g" unicode="g" horiz-adv-x="427" 
d="M417 449h-180q-51 0 -88.5 -13.5t-60 -37t-32.5 -51.5t-10 -58q0 -47 29 -89t91 -60v-2q-46 -14 -68 -29.5t-22 -43.5q0 -47 73 -64v-2q-63 -10 -97 -38t-34 -71q0 -52 49.5 -86t147.5 -34q94 0 147.5 34.5t53.5 96.5q0 39 -16 63t-42 36t-53.5 15.5t-71.5 6.5
q-57 3 -84 11.5t-27 35.5q0 23 21 34t68 24q37 9 63 18.5t50 27t38.5 46.5t14.5 72q0 33 -14.5 61t-47.5 58h102v39zM331 290q0 -50 -35 -85t-85 -35q-51 0 -85 35.5t-34 86.5q0 49 34 83t84 34t85.5 -35t35.5 -84zM370 -103q0 -40 -41.5 -63.5t-110.5 -23.5
q-74 0 -114 21.5t-40 61.5q0 26 16.5 43t41.5 25.5t52 11.5t53 3q68 0 105.5 -17.5t37.5 -61.5z" />
    <glyph glyph-name="h" unicode="h" horiz-adv-x="490" 
d="M110 682h-48v-682h48v315q32 50 65.5 73t81.5 23q63 0 92.5 -40t29.5 -115v-256h48v275q0 87 -46 135t-121 48q-49 0 -83 -20t-65 -67h-2v311z" />
    <glyph glyph-name="i" unicode="i" horiz-adv-x="188" 
d="M118 449h-48v-449h48v449zM118 682h-48v-82h48v82z" />
    <glyph glyph-name="j" unicode="j" horiz-adv-x="188" 
d="M116 449h-48v-498q0 -77 -23.5 -107.5t-72.5 -32.5l11 -41q58 0 95.5 45.5t37.5 134.5v499zM116 682h-48v-82h48v82z" />
    <glyph glyph-name="k" unicode="k" horiz-adv-x="427" 
d="M107 682h-48v-682h48v682zM425 449h-63l-248 -213l283 -236h66l-284 236z" />
    <glyph glyph-name="l" unicode="l" horiz-adv-x="188" 
d="M118 682h-48v-682h48v682z" />
    <glyph glyph-name="m" unicode="m" horiz-adv-x="771" 
d="M108 449h-48v-449h48v315q32 52 63 74t72 22q52 0 85 -38.5t33 -116.5v-256h48v306q34 57 64.5 81t71.5 24q57 0 87 -43t30 -113v-255h48v276q0 82 -42.5 132t-113.5 50q-48 0 -85 -25.5t-71 -82.5q-43 108 -145 108q-46 0 -79.5 -20.5t-63.5 -67.5h-2v79z" />
    <glyph glyph-name="n" unicode="n" horiz-adv-x="490" 
d="M110 449h-48v-449h48v315q31 50 65 73t82 23q59 0 90.5 -39.5t31.5 -115.5v-256h48v274q0 88 -46 136t-121 48q-49 0 -83 -20t-65 -67h-2v78z" />
    <glyph glyph-name="o" unicode="o" horiz-adv-x="542" 
d="M499 224q0 50 -17 92.5t-48 74.5t-72.5 49.5t-90.5 17.5q-48 0 -90 -17.5t-73.5 -49.5t-48.5 -75t-17 -92t17 -92t48 -74.5t73.5 -49t90.5 -17.5q49 0 90.5 17.5t72.5 49t48 74.5t17 92zM448 224q0 -40 -13 -74t-37.5 -59t-56.5 -39t-70 -14q-76 0 -127 53
q-24 25 -37.5 59.5t-13.5 73.5q0 40 13.5 74.5t37.5 59.5q51 53 127 53q37 0 70 -14t57 -39.5t37 -59.5t13 -74z" />
    <glyph glyph-name="p" unicode="p" horiz-adv-x="510" 
d="M111 449h-48v-679h48v255q38 -18 68.5 -26t64.5 -8q46 0 87 18t72 50t48 75t17 92q0 50 -16.5 92.5t-46.5 74t-71 48.5t-88 17q-36 0 -66.5 -7.5t-68.5 -26.5v25zM111 378q35 19 61.5 26t56.5 7q81 0 133.5 -53t52.5 -136t-49.5 -133.5t-130.5 -50.5q-34 0 -62 7.5
t-62 26.5v306z" />
    <glyph glyph-name="q" unicode="q" horiz-adv-x="510" 
d="M447 449h-48v-31q-40 22 -71.5 31t-68.5 9q-47 0 -87.5 -18t-71 -51t-47 -77.5t-16.5 -95.5q0 -49 15.5 -90.5t44.5 -71.5t68.5 -46.5t86.5 -16.5q37 0 71 8t76 27v-256h48v679zM399 74q-39 -22 -69 -30.5t-68 -8.5q-79 0 -126.5 48.5t-47.5 128.5q0 42 13.5 78.5
t38.5 63.5t58 42t71 15q35 0 64 -8.5t66 -31.5v-297z" />
    <glyph glyph-name="r" unicode="r" horiz-adv-x="333" 
d="M373 405q-33 29 -56.5 41t-46.5 12q-77 0 -157 -127h-2v118h-48v-449h48v282q37 62 74 95.5t70 33.5q19 0 38.5 -11t51.5 -40z" />
    <glyph glyph-name="s" unicode="s" horiz-adv-x="354" 
d="M309 420q-35 20 -63 29t-57 9q-61 0 -103 -35.5t-42 -87.5q0 -27 11 -47.5t28.5 -35t37.5 -24t52 -21.5q53 -21 78.5 -39.5t25.5 -51.5q0 -34 -27 -56t-68 -22q-33 0 -65 9.5t-76 31.5v-47q67 -41 135 -41q62 0 104.5 36t42.5 88q0 31 -11 53t-29.5 36.5t-39 24
t-52.5 22.5q-52 19 -76.5 36.5t-24.5 50.5q0 32 28 54t68 22q30 0 57.5 -10.5t65.5 -35.5v52z" />
    <glyph glyph-name="t" unicode="t" horiz-adv-x="302" 
d="M150 598h-15l-33 -42v-107h-121v-39h121v-323q0 -47 31 -71.5t73 -24.5q18 0 52 8q30 9 41 15v46q-30 -14 -46 -18t-36 -4q-46 0 -56.5 20.5t-10.5 84.5v267h126v39h-126v149z" />
    <glyph glyph-name="u" unicode="u" horiz-adv-x="490" 
d="M379 0h48v449h-48v-315q-32 -50 -64 -73t-82 -23q-53 0 -88 34.5t-35 99.5v277h-48v-278q0 -48 14.5 -83t39 -56t53.5 -31t60 -10q51 0 83.5 19t64.5 64h2v-74z" />
    <glyph glyph-name="v" unicode="v" horiz-adv-x="427" 
d="M427 449h-47l-162 -378l-169 378h-49l204 -458h30z" />
    <glyph glyph-name="w" unicode="w" horiz-adv-x="708" 
d="M708 449h-48l-156 -366l-137 366h-26l-141 -366l-153 366h-47l192 -458h22l139 365l138 -365h23z" />
    <glyph glyph-name="x" unicode="x" horiz-adv-x="479" 
d="M244 197l176 -197h62l-206 230l206 219h-62l-176 -186l-176 186h-62l205 -219l-205 -230h62z" />
    <glyph glyph-name="y" unicode="y" horiz-adv-x="417" 
d="M423 449h-49l-155 -314l-163 314h-50l189 -362l-157 -317h49z" />
    <glyph glyph-name="z" unicode="z" horiz-adv-x="396" 
d="M381 449h-352v-44h278l-297 -390l5 -15h370v44h-295l295 390z" />
    <glyph glyph-name="braceleft" unicode="{" horiz-adv-x="333" 
d="M49 194q52 -1 73 -38t21 -126v-97q0 -85 34 -124t109 -39v54q-51 0 -69.5 21t-18.5 88v97q0 82 -23 129.5t-74 66.5q51 19 74 67t23 129v97q0 67 18.5 88t69.5 21v54q-75 0 -109 -39t-34 -124v-97q0 -89 -21 -125.5t-73 -38.5v-64z" />
    <glyph glyph-name="bar" unicode="|" horiz-adv-x="222" 
d="M86 750v-1000h48v1000h-48z" />
    <glyph glyph-name="braceright" unicode="}" horiz-adv-x="333" 
d="M284 258q-52 2 -73 38.5t-21 125.5v97q0 85 -34 124t-109 39v-54q51 0 69.5 -21t18.5 -88v-97q0 -81 23 -129t74 -67q-51 -19 -74 -66.5t-23 -129.5v-97q0 -67 -18.5 -88t-69.5 -21v-54q75 0 109 39t34 124v97q0 89 21 126t73 38v64z" />
    <glyph glyph-name="asciitilde" unicode="~" horiz-adv-x="660" 
d="M67 291q54 40 82 53t59 13q23 0 49.5 -9.5t67.5 -28.5q46 -21 74.5 -31t55.5 -10q30 0 62 14t75 45v54q-53 -38 -82 -52t-57 -14q-20 0 -45.5 9t-67.5 28q-46 21 -76.5 31.5t-56.5 10.5q-59 0 -140 -59v-54z" />
    <glyph glyph-name="exclamdown" unicode="&#xa1;" horiz-adv-x="177" 
d="M56 364h65v97h-65v-97zM56 -221h65l-17 490h-31z" />
    <glyph glyph-name="cent" unicode="&#xa2;" horiz-adv-x="417" 
d="M410 638h-43l-65 -182q-17 2 -34 2q-101 0 -163.5 -63.5t-62.5 -179.5q0 -63 26 -114.5t80 -82.5l-74 -207h44l68 189q42 -9 80 -9q63 0 121 27v47q-33 -15 -60.5 -21t-59.5 -6q-16 0 -34.5 3t-30.5 7l125 355q23 -6 50 -20v53q-5 3 -16 6.5t-18 5.5zM164 67
q-37 31 -54 67.5t-17 87.5q0 89 48 139t123 50h24z" />
    <glyph glyph-name="sterling" unicode="&#xa3;" horiz-adv-x="552" 
d="M507 682q-14 5 -24 7t-24 2q-91 0 -157 -86.5t-111 -250.5h-97v-47h84l-84 -312q53 10 86.5 13.5t70.5 3.5q44 0 104 -10l18 -3q47 -8 69 -8q23 0 50 5q26 7 46 17v53q-21 -12 -49 -21q-24 -6 -50 -6q-14 0 -38 4h-3q-3 0 -18 3q-12 3 -22 4q-56 10 -95 10
q-19 0 -39 -1.5t-65 -5.5l67 254h120v47h-106q19 67 41.5 119t50.5 90t64 59t81 21q12 0 24 -1.5t30 -6.5z" />
    <glyph glyph-name="currency" unicode="&#xa4;" horiz-adv-x="556" 
d="M277 557q-73 0 -135 -48l-63 63l-32 -32l63 -63q-24 -30 -36 -63t-12 -72q0 -38 12 -71t36 -65l-63 -63l32 -32l63 63q27 -21 60 -34.5t75 -13.5q76 0 136 48l63 -63l32 32l-63 63q22 27 35 61.5t13 74.5q0 75 -48 135l63 63l-32 32l-63 -63q-62 48 -136 48zM277 509
q34 0 65 -13t54 -35.5t36 -53.5t13 -65t-13 -65t-36 -54t-54 -36t-65 -13t-64.5 13t-53.5 36t-36 54t-13 65t13 64.5t36 53.5t53.5 36t64.5 13z" />
    <glyph glyph-name="yen" unicode="&#xa5;" horiz-adv-x="556" 
d="M2 716l212 -354h-181v-47h214v-76h-214v-47h214v-192h64v192h212v47h-212v76h212v47h-179l210 354h-69l-204 -354l-207 354h-72z" />
    <glyph glyph-name="brokenbar" unicode="&#xa6;" horiz-adv-x="222" 
d="M86 675v-350h48v350h-48zM86 175v-350h48v350h-48z" />
    <glyph glyph-name="section" unicode="&#xa7;" horiz-adv-x="396" 
d="M337 581q-6 48 -42 79t-93 31q-63 0 -102.5 -36.5t-39.5 -95.5q0 -32 11 -58.5t39 -62.5q-45 -45 -64.5 -82t-19.5 -77q0 -59 36.5 -105t106.5 -107q61 -53 90.5 -88.5t29.5 -76.5q0 -38 -27 -63t-67 -25q-71 0 -85 64h-50q6 -51 43 -79.5t90 -28.5q64 0 103 36.5
t39 95.5q0 33 -11 60.5t-38 58.5q47 49 65.5 85t18.5 77q0 57 -35.5 102.5t-104.5 104.5q-61 54 -91.5 91.5t-30.5 80.5q0 35 27 60t65 25q35 0 57 -17t29 -49h51zM324 179q0 -62 -68 -126q-22 23 -65 60q-60 53 -87 87.5t-27 79.5q0 35 14.5 64t49.5 63q7 -6 31 -28
q60 -53 94 -87q32 -32 45 -58t13 -55z" />
    <glyph glyph-name="dieresis" unicode="&#xa8;" horiz-adv-x="333" 
d="M255 636q-18 0 -31 -13t-13 -31t13 -31t31 -13t31 13t13 31t-13 31t-31 13zM78 636q-18 0 -31 -13t-13 -31t13 -31t31 -13t31 13t13 31t-13 31t-31 13z" />
    <glyph glyph-name="copyright" unicode="&#xa9;" horiz-adv-x="800" 
d="M562 449q-28 57 -66 83.5t-91 26.5q-87 0 -140 -60q-24 -28 -37 -65t-13 -78q0 -45 14 -84.5t39 -68.5t59.5 -45t74.5 -16q61 0 105 36t59 92l-44 16q-16 -47 -45.5 -73.5t-77.5 -26.5q-60 0 -96.5 49t-36.5 129q0 70 39.5 112t98.5 42q76 0 111 -81zM400 728
q-76 0 -144 -29t-119.5 -80.5t-80.5 -119.5t-29 -144t29 -144t80.5 -119.5t119.5 -80.5t144 -29t144 29t119.5 80.5t80.5 119.5t29 144t-29 144t-80.5 119.5t-119.5 80.5t-144 29zM400 681q66 0 125.5 -25t105 -70.5t70.5 -105t25 -125.5t-25 -125.5t-70.5 -105t-105 -70.5
t-125.5 -25t-125.5 25t-105 70.5t-70.5 105t-25 125.5t25 125.5t70.5 105t105 70.5t125.5 25z" />
    <glyph glyph-name="ordfeminine" unicode="&#xaa;" horiz-adv-x="281" 
d="M280 474q-5 -4 -18 -13q-19 -15 -22 -15q-9 0 -9 20v148q0 34 -24 55.5t-71 21.5q-25 0 -48 -7t-51 -23v-39q34 23 52.5 30.5t41.5 7.5q58 0 58 -50v-31q-80 -4 -124 -30t-44 -69q0 -30 24.5 -50.5t59.5 -20.5q41 0 84 29q4 -29 27 -29q18 0 64 29v36zM189 471
q-21 -17 -38.5 -24.5t-35.5 -7.5q-23 0 -37 11t-14 29q0 33 33 52t92 19v-79z" />
    <glyph glyph-name="guillemotleft" unicode="&#xab;" 
d="M293 231l188 224h-60l-189 -224l189 -224h60zM80 231l188 224h-60l-189 -224l189 -224h60z" />
    <glyph glyph-name="logicalnot" unicode="&#xac;" horiz-adv-x="660" 
d="M68 483v-44h480v-240h44v284h-524z" />
    <glyph glyph-name="minus" unicode="&#xad;" horiz-adv-x="660" 
d="M68 373v-44h524v44h-524z" />
    <glyph glyph-name="minus" unicode="&#x2212;" horiz-adv-x="660" 
d="M68 373v-44h524v44h-524z" />
    <glyph glyph-name="registered" unicode="&#xae;" horiz-adv-x="800" 
d="M250 547v-392h48v172h23q36 0 57.5 -5.5t39.5 -22.5t37 -50.5t46 -93.5h59q-23 55 -37.5 84.5t-25.5 45.5t-23 25.5t-36 23.5q57 10 82 40.5t25 68.5q0 49 -35.5 76.5t-97.5 27.5h-162zM298 366v142h72q66 0 92 -15t26 -54q0 -40 -28.5 -56.5t-96.5 -16.5h-65zM400 728
q-76 0 -144 -29t-119.5 -80.5t-80.5 -119.5t-29 -144t29 -144t80.5 -119.5t119.5 -80.5t144 -29t144 29t119.5 80.5t80.5 119.5t29 144t-29 144t-80.5 119.5t-119.5 80.5t-144 29zM400 681q66 0 125.5 -25t105 -70.5t70.5 -105t25 -125.5t-25 -125.5t-70.5 -105t-105 -70.5
t-125.5 -25t-125.5 25t-105 70.5t-70.5 105t-25 125.5t25 125.5t70.5 105t105 70.5t125.5 25z" />
    <glyph glyph-name="macron" unicode="&#xaf;" horiz-adv-x="333" 
d="M300 623h-267v-51h267v51z" />
    <glyph glyph-name="degree" unicode="&#xb0;" horiz-adv-x="400" 
d="M200 691q-58 0 -98.5 -40.5t-40.5 -98.5t40.5 -99t98.5 -41t99 41t41 99t-41 98.5t-99 40.5zM200 651q41 0 70.5 -29.5t29.5 -70.5t-29.5 -70t-70.5 -29t-70 29t-29 70t29 70.5t70 29.5z" />
    <glyph glyph-name="plusminus" unicode="&#xb1;" horiz-adv-x="660" 
d="M68 44v-44h524v44h-524zM68 373v-44h240v-240h44v240h240v44h-240v240h-44v-240h-240z" />
    <glyph glyph-name="twosuperior" unicode="&#xb2;" horiz-adv-x="313" 
d="M38 616q35 28 54 36.5t43 8.5q36 0 60.5 -20.5t24.5 -51.5q0 -46 -51 -114.5t-139 -142.5h271v31h-184q82 81 113.5 134t31.5 91q0 43 -36 73t-88 30q-51 0 -100 -34v-41z" />
    <glyph glyph-name="threesuperior" unicode="&#xb3;" horiz-adv-x="313" 
d="M48 632q26 16 46 22.5t43 6.5q37 0 61.5 -18t24.5 -45q0 -29 -27 -46.5t-73 -17.5v-31q19 0 37.5 -3.5t33.5 -11.5t24.5 -22.5t9.5 -36.5q0 -33 -24 -52.5t-65 -19.5q-49 0 -95 21v-32q46 -19 99 -19q54 0 90 29.5t36 73.5q0 69 -70 89v2q65 21 65 79q0 40 -35 65.5
t-91 25.5q-27 0 -48.5 -6t-41.5 -19v-34z" />
    <glyph glyph-name="acute" unicode="&#xb4;" horiz-adv-x="333" 
d="M338 677h-81l-104 -156h33z" />
    <glyph glyph-name="mu" unicode="&#xb5;" horiz-adv-x="556" 
d="M101 449v-626h48v227q30 -32 59.5 -45.5t71.5 -13.5q43 0 74 13.5t59 45.5v-50h48v449h-48v-247q0 -89 -35.5 -128t-96.5 -39q-70 0 -101 46.5t-31 134.5v233h-48z" />
    <glyph glyph-name="paragraph" unicode="&#xb6;" horiz-adv-x="650" 
d="M621 716h-338q-106 0 -170 -55.5t-64 -149.5q0 -91 59.5 -148.5t160.5 -57.5v-504h64v847h130v-847h62v847h96v68z" />
    <glyph glyph-name="periodcentered" unicode="&#xb7;" horiz-adv-x="281" 
d="M141 400q-22 0 -38 -16t-16 -38t16 -38t38 -16t38 16t16 38t-16 38t-38 16z" />
    <glyph glyph-name="periodcentered" unicode="&#x2219;" horiz-adv-x="281" 
d="M141 400q-22 0 -38 -16t-16 -38t16 -38t38 -16t38 16t16 38t-16 38t-38 16z" />
    <glyph glyph-name="cedilla" unicode="&#xb8;" horiz-adv-x="333" 
d="M198 8h-30l-21 -70q62 -2 62 -39q0 -21 -16.5 -30t-48.5 -9q-5 0 -15 1q-12 1 -18 1l-5 -32q22 -5 44 -5q42 0 70 20t28 57q0 24 -15.5 41t-46.5 22z" />
    <glyph glyph-name="onesuperior" unicode="&#xb9;" horiz-adv-x="313" 
d="M177 687h-42v-355h42v355z" />
    <glyph glyph-name="ordmasculine" unicode="&#xba;" horiz-adv-x="354" 
d="M329 550q0 59 -44 100t-108 41q-67 0 -109.5 -39.5t-42.5 -101.5q0 -61 43.5 -101t108.5 -40q68 0 110 38.5t42 102.5zM284 550q0 -47 -30 -77.5t-77 -30.5t-77 30t-30 78q0 47 30 77.5t77 30.5q46 0 76.5 -31t30.5 -77z" />
    <glyph glyph-name="guillemotright" unicode="&#xbb;" 
d="M420 231l-188 -224h60l189 224l-189 224h-60zM207 231l-188 -224h60l189 224l-189 224h-60z" />
    <glyph glyph-name="onequarter" unicode="&#xbc;" horiz-adv-x="833" 
d="M637 360h-20l-205 -213v-13h183v-134h42v134h56v28h-56v198zM595 162h-126l126 131v-131zM183 687h-42v-355h42v355zM627 691h-39l-526 -718h39z" />
    <glyph glyph-name="onehalf" unicode="&#xbd;" horiz-adv-x="833" 
d="M183 687h-42v-355h42v355zM627 691h-39l-526 -718h39zM482 284q35 28 54 36.5t43 8.5q36 0 60.5 -20.5t24.5 -51.5q0 -46 -51 -114.5t-139 -142.5h271v31h-184q82 81 113.5 134t31.5 91q0 43 -36 73t-88 30q-51 0 -100 -34v-41z" />
    <glyph glyph-name="threequarters" unicode="&#xbe;" horiz-adv-x="833" 
d="M71 632q26 16 46 22.5t43 6.5q37 0 61.5 -18t24.5 -45q0 -29 -27 -46.5t-73 -17.5v-31q19 0 37.5 -3.5t33.5 -11.5t24.5 -22.5t9.5 -36.5q0 -33 -24 -52.5t-65 -19.5q-49 0 -95 21v-32q46 -19 99 -19q54 0 90 29.5t36 73.5q0 69 -70 89v2q65 21 65 79q0 40 -35 65.5
t-91 25.5q-27 0 -48.5 -6t-41.5 -19v-34zM679 691h-39l-526 -718h39zM689 360h-20l-205 -213v-13h183v-134h42v134h56v28h-56v198zM647 162h-126l126 131v-131z" />
    <glyph glyph-name="questiondown" unicode="&#xbf;" horiz-adv-x="281" 
d="M238 -134h-10q-32 -53 -80 -53q-31 0 -53 27.5t-22 66.5q0 42 15.5 77.5t46.5 84.5q27 44 40.5 73.5t13.5 61.5q0 47 -39 92l-18 -14q19 -33 19 -63t-13.5 -57t-42.5 -67q-35 -52 -54 -91.5t-19 -91.5q0 -64 34.5 -103t90.5 -39q18 0 33 4t35 14zM113 364h65v97h-65v-97z
" />
    <glyph glyph-name="Agrave" unicode="&#xc0;" horiz-adv-x="667" 
d="M244 895l152 -156h33l-104 156h-81zM348 687h-29l-315 -687h55l108 236h333l108 -236h55zM480 280h-293l146 321z" />
    <glyph glyph-name="Aacute" unicode="&#xc1;" horiz-adv-x="667" 
d="M505 895h-81l-104 -156h33zM348 687h-29l-315 -687h55l108 236h333l108 -236h55zM480 280h-293l146 321z" />
    <glyph glyph-name="Acircumflex" unicode="&#xc2;" horiz-adv-x="667" 
d="M365 894h-61l-108 -164h38l100 109l99 -109h38zM348 687h-29l-315 -687h55l108 236h333l108 -236h55zM480 280h-293l146 321z" />
    <glyph glyph-name="Atilde" unicode="&#xc3;" horiz-adv-x="667" 
d="M202 766q6 48 42 48q15 0 33.5 -6t48.5 -18l8 -3q29 -11 47 -16.5t34 -5.5q36 0 59 26q23 24 23 70h-30q-4 -26 -14.5 -37.5t-30.5 -11.5q-22 0 -73 21l-9 4q-27 12 -47.5 18t-40.5 6q-41 0 -61.5 -27.5t-20.5 -67.5h32zM348 687h-29l-315 -687h55l108 236h333l108 -236
h55zM480 280h-293l146 321z" />
    <glyph glyph-name="Adieresis" unicode="&#xc4;" horiz-adv-x="667" 
d="M422 854q-18 0 -31 -13t-13 -31t13 -31t31 -13t31 13t13 31t-13 31t-31 13zM245 854q-18 0 -31 -13t-13 -31t13 -31t31 -13t31 13t13 31t-13 31t-31 13zM348 687h-29l-315 -687h55l108 236h333l108 -236h55zM480 280h-293l146 321z" />
    <glyph glyph-name="Aring" unicode="&#xc5;" horiz-adv-x="667" 
d="M334 870q25 0 42 -17t17 -42t-17 -42.5t-42 -17.5t-42.5 17.5t-17.5 42.5t17.5 42t42.5 17zM334 897q-36 0 -61.5 -25t-25.5 -61t25.5 -61.5t61.5 -25.5t61 25.5t25 61.5t-25 61t-61 25zM348 687h-29l-315 -687h55l108 236h333l108 -236h55zM480 280h-293l146 321z" />
    <glyph glyph-name="AE" unicode="&#xc6;" horiz-adv-x="865" 
d="M818 682h-406l-426 -682h58l200 322h200v-322h383v44h-330v278h314v44h-314v272h321v44zM442 645h2v-279h-171z" />
    <glyph glyph-name="Ccedilla" unicode="&#xc7;" horiz-adv-x="677" 
d="M654 110q-70 -37 -127.5 -53.5t-115.5 -16.5q-66 0 -122 22t-97 62t-63.5 95.5t-22.5 120.5q0 64 22 119t63 96.5t95.5 64t117.5 22.5q61 0 120 -16t123 -50v58q-124 57 -240 57q-70 0 -134.5 -25.5t-115 -72.5t-79.5 -112t-29 -141q0 -67 22.5 -126.5t64.5 -105.5
t99 -75t124 -38l-17 -57q62 -2 62 -39q0 -21 -16.5 -30t-48.5 -9q-5 0 -15 1q-12 1 -18 1l-5 -32q22 -5 44 -5q42 0 70 20t28 57q0 24 -15.5 41t-46.5 22l8 28q7 -2 23 -2q122 0 242 64v55z" />
    <glyph glyph-name="Egrave" unicode="&#xc8;" horiz-adv-x="490" 
d="M156 895l152 -156h33l-104 156h-81zM452 682h-372v-682h380v44h-327v277h311v44h-311v273h319v44z" />
    <glyph glyph-name="Eacute" unicode="&#xc9;" horiz-adv-x="490" 
d="M417 895h-81l-104 -156h33zM452 682h-372v-682h380v44h-327v277h311v44h-311v273h319v44z" />
    <glyph glyph-name="Ecircumflex" unicode="&#xca;" horiz-adv-x="490" 
d="M277 894h-61l-108 -164h38l100 109l99 -109h38zM452 682h-372v-682h380v44h-327v277h311v44h-311v273h319v44z" />
    <glyph glyph-name="Edieresis" unicode="&#xcb;" horiz-adv-x="490" 
d="M334 854q-18 0 -31 -13t-13 -31t13 -31t31 -13t31 13t13 31t-13 31t-31 13zM157 854q-18 0 -31 -13t-13 -31t13 -31t31 -13t31 13t13 31t-13 31t-31 13zM452 682h-372v-682h380v44h-327v277h311v44h-311v273h319v44z" />
    <glyph glyph-name="Igrave" unicode="&#xcc;" horiz-adv-x="208" 
d="M-25 895l152 -156h33l-104 156h-81zM131 682h-53v-682h53v682z" />
    <glyph glyph-name="Iacute" unicode="&#xcd;" horiz-adv-x="208" 
d="M276 895h-81l-104 -156h33zM131 682h-53v-682h53v682z" />
    <glyph glyph-name="Icircumflex" unicode="&#xce;" horiz-adv-x="208" 
d="M136 894h-61l-108 -164h38l100 109l99 -109h38zM131 682h-53v-682h53v682z" />
    <glyph glyph-name="Idieresis" unicode="&#xcf;" horiz-adv-x="208" 
d="M193 854q-18 0 -31 -13t-13 -31t13 -31t31 -13t31 13t13 31t-13 31t-31 13zM16 854q-18 0 -31 -13t-13 -31t13 -31t31 -13t31 13t13 31t-13 31t-31 13zM131 682h-53v-682h53v682z" />
    <glyph glyph-name="Eth" unicode="&#xd0;" horiz-adv-x="740" 
d="M79 682v-318h-102v-44h102v-320h248q97 0 167.5 29.5t113.5 79t62.5 109.5t19.5 123q0 61 -18.5 120.5t-61.5 109.5t-116 80.5t-176 30.5h-239zM132 638h189q69 0 126.5 -21.5t99 -61.5t64 -94.5t22.5 -119.5q0 -70 -24.5 -125.5t-67.5 -94t-99 -58t-118 -19.5h-192v276
h221v44h-221v274z" />
    <glyph glyph-name="Ntilde" unicode="&#xd1;" horiz-adv-x="771" 
d="M254 766q6 48 42 48q15 0 33.5 -6t48.5 -18l8 -3q29 -11 47 -16.5t34 -5.5q36 0 59 26q23 24 23 70h-30q-4 -26 -14.5 -37.5t-30.5 -11.5q-22 0 -73 21l-9 4q-27 12 -47.5 18t-40.5 6q-41 0 -61.5 -27.5t-20.5 -67.5h32zM693 682h-53v-596l-517 596h-45v-682h53v596
l518 -596h44v682z" />
    <glyph glyph-name="Ograve" unicode="&#xd2;" horiz-adv-x="823" 
d="M322 895l152 -156h33l-104 156h-81zM773 341q0 72 -27.5 136t-77 112.5t-116 75t-141.5 26.5t-140.5 -26.5t-115 -74.5t-77 -112t-27.5 -137q0 -72 27.5 -136t77 -112.5t115 -75t140.5 -26.5t141 26.5t116 75t77.5 112.5t27.5 136zM716 341q0 -63 -23 -118t-64.5 -96
t-97 -64t-118.5 -23t-119 23t-98 64t-65 96.5t-23 117.5q0 63 23 118t65 96t98 64t119 23t118.5 -23t97 -64t64.5 -96t23 -118z" />
    <glyph glyph-name="Oacute" unicode="&#xd3;" horiz-adv-x="823" 
d="M583 895h-81l-104 -156h33zM773 341q0 72 -27.5 136t-77 112.5t-116 75t-141.5 26.5t-140.5 -26.5t-115 -74.5t-77 -112t-27.5 -137q0 -72 27.5 -136t77 -112.5t115 -75t140.5 -26.5t141 26.5t116 75t77.5 112.5t27.5 136zM716 341q0 -63 -23 -118t-64.5 -96t-97 -64
t-118.5 -23t-119 23t-98 64t-65 96.5t-23 117.5q0 63 23 118t65 96t98 64t119 23t118.5 -23t97 -64t64.5 -96t23 -118z" />
    <glyph glyph-name="Ocircumflex" unicode="&#xd4;" horiz-adv-x="823" 
d="M443 894h-61l-108 -164h38l100 109l99 -109h38zM773 341q0 72 -27.5 136t-77 112.5t-116 75t-141.5 26.5t-140.5 -26.5t-115 -74.5t-77 -112t-27.5 -137q0 -72 27.5 -136t77 -112.5t115 -75t140.5 -26.5t141 26.5t116 75t77.5 112.5t27.5 136zM716 341q0 -63 -23 -118
t-64.5 -96t-97 -64t-118.5 -23t-119 23t-98 64t-65 96.5t-23 117.5q0 63 23 118t65 96t98 64t119 23t118.5 -23t97 -64t64.5 -96t23 -118z" />
    <glyph glyph-name="Otilde" unicode="&#xd5;" horiz-adv-x="823" 
d="M280 766q6 48 42 48q15 0 33.5 -6t48.5 -18l8 -3q29 -11 47 -16.5t34 -5.5q36 0 59 26q23 24 23 70h-30q-4 -26 -14.5 -37.5t-30.5 -11.5q-22 0 -73 21l-9 4q-27 12 -47.5 18t-40.5 6q-41 0 -61.5 -27.5t-20.5 -67.5h32zM773 341q0 72 -27.5 136t-77 112.5t-116 75
t-141.5 26.5t-140.5 -26.5t-115 -74.5t-77 -112t-27.5 -137q0 -72 27.5 -136t77 -112.5t115 -75t140.5 -26.5t141 26.5t116 75t77.5 112.5t27.5 136zM716 341q0 -63 -23 -118t-64.5 -96t-97 -64t-118.5 -23t-119 23t-98 64t-65 96.5t-23 117.5q0 63 23 118t65 96t98 64
t119 23t118.5 -23t97 -64t64.5 -96t23 -118z" />
    <glyph glyph-name="Odieresis" unicode="&#xd6;" horiz-adv-x="823" 
d="M500 854q-18 0 -31 -13t-13 -31t13 -31t31 -13t31 13t13 31t-13 31t-31 13zM323 854q-18 0 -31 -13t-13 -31t13 -31t31 -13t31 13t13 31t-13 31t-31 13zM773 341q0 72 -27.5 136t-77 112.5t-116 75t-141.5 26.5t-140.5 -26.5t-115 -74.5t-77 -112t-27.5 -137
q0 -72 27.5 -136t77 -112.5t115 -75t140.5 -26.5t141 26.5t116 75t77.5 112.5t27.5 136zM716 341q0 -63 -23 -118t-64.5 -96t-97 -64t-118.5 -23t-119 23t-98 64t-65 96.5t-23 117.5q0 63 23 118t65 96t98 64t119 23t118.5 -23t97 -64t64.5 -96t23 -118z" />
    <glyph glyph-name="multiply" unicode="&#xd7;" horiz-adv-x="660" 
d="M129 521l169 -169l-169 -169l32 -32l169 169l169 -169l32 32l-169 169l169 169l-32 32l-169 -169l-169 169z" />
    <glyph glyph-name="Oslash" unicode="&#xd8;" horiz-adv-x="823" 
d="M195 129q-42 42 -64.5 96t-22.5 116q0 63 23 118t65 96t98 64t119 23q52 0 102 -16.5t86 -46.5zM195 59q49 -33 101.5 -50.5t114.5 -17.5q75 0 141 26.5t116 75t77.5 112.5t27.5 136q0 73 -27 136t-77 111l67 74l-37 25l-63 -70q-48 35 -104 54.5t-121 19.5
q-75 0 -140.5 -26.5t-115 -74.5t-77 -112t-27.5 -137q0 -72 27.5 -136.5t79.5 -115.5l-64 -71l38 -29zM635 549q40 -46 60.5 -96t20.5 -112q0 -63 -23 -118t-64.5 -96t-97 -64t-118.5 -23q-52 0 -99.5 16t-83.5 42z" />
    <glyph glyph-name="Ugrave" unicode="&#xd9;" horiz-adv-x="698" 
d="M260 895l152 -156h33l-104 156h-81zM582 682v-375q0 -70 -19.5 -121.5t-52.5 -83.5t-74.5 -47t-86.5 -15q-47 0 -88.5 16t-74 48t-51 81.5t-18.5 114.5v382h-53v-384q0 -75 22 -133t61.5 -96.5t91 -58t110.5 -19.5q55 0 105.5 17.5t91.5 56t65 100t24 145.5v372h-53z" />
    <glyph glyph-name="Uacute" unicode="&#xda;" horiz-adv-x="698" 
d="M521 895h-81l-104 -156h33zM582 682v-375q0 -70 -19.5 -121.5t-52.5 -83.5t-74.5 -47t-86.5 -15q-47 0 -88.5 16t-74 48t-51 81.5t-18.5 114.5v382h-53v-384q0 -75 22 -133t61.5 -96.5t91 -58t110.5 -19.5q55 0 105.5 17.5t91.5 56t65 100t24 145.5v372h-53z" />
    <glyph glyph-name="Ucircumflex" unicode="&#xdb;" horiz-adv-x="698" 
d="M381 894h-61l-108 -164h38l100 109l99 -109h38zM582 682v-375q0 -70 -19.5 -121.5t-52.5 -83.5t-74.5 -47t-86.5 -15q-47 0 -88.5 16t-74 48t-51 81.5t-18.5 114.5v382h-53v-384q0 -75 22 -133t61.5 -96.5t91 -58t110.5 -19.5q55 0 105.5 17.5t91.5 56t65 100t24 145.5
v372h-53z" />
    <glyph glyph-name="Udieresis" unicode="&#xdc;" horiz-adv-x="698" 
d="M438 854q-18 0 -31 -13t-13 -31t13 -31t31 -13t31 13t13 31t-13 31t-31 13zM261 854q-18 0 -31 -13t-13 -31t13 -31t31 -13t31 13t13 31t-13 31t-31 13zM582 682v-375q0 -70 -19.5 -121.5t-52.5 -83.5t-74.5 -47t-86.5 -15q-47 0 -88.5 16t-74 48t-51 81.5t-18.5 114.5
v382h-53v-384q0 -75 22 -133t61.5 -96.5t91 -58t110.5 -19.5q55 0 105.5 17.5t91.5 56t65 100t24 145.5v372h-53z" />
    <glyph glyph-name="Yacute" unicode="&#xdd;" horiz-adv-x="583" 
d="M463 895h-81l-104 -156h33zM583 682h-64l-227 -270l-228 270h-64l265 -316v-366h53v366z" />
    <glyph glyph-name="Thorn" unicode="&#xde;" horiz-adv-x="510" 
d="M78 682v-682h53v160h130q64 0 108.5 15.5t70.5 41.5t37.5 58.5t11.5 67.5q0 80 -54.5 130t-168.5 50h-135v159h-53zM131 479h133q85 0 126.5 -38.5t41.5 -98.5q0 -62 -42 -100t-132 -38h-127v275z" />
    <glyph glyph-name="germandbls" unicode="&#xdf;" 
d="M62 0h48v478q0 39 6.5 70t22 54t42.5 36t66 13q60 0 95.5 -34.5t35.5 -93.5q0 -50 -27 -86t-78 -36v-45q64 -4 99.5 -46t35.5 -113q0 -72 -35.5 -115.5t-94.5 -43.5q-15 0 -27.5 2.5t-32.5 9.5v-50q19 -5 32.5 -7t29.5 -2q78 0 128.5 58t50.5 149q0 134 -120 181
q24 10 41.5 27.5t28.5 39t15.5 42t4.5 38.5q0 72 -51 118.5t-131 46.5q-88 0 -136.5 -53.5t-48.5 -150.5v-487z" />
    <glyph glyph-name="agrave" unicode="&#xe0;" horiz-adv-x="427" 
d="M124 677l152 -156h33l-104 156h-81zM421 78q-21 -17 -39 -28.5t-25 -11.5q-11 0 -11 23v280q0 34 -13 57t-34.5 36t-45 18.5t-47.5 5.5q-37 0 -70.5 -11t-74.5 -37v-49q41 31 71.5 44t65.5 13q100 0 100 -92v-57q-52 -2 -98.5 -12t-83.5 -29.5t-58.5 -50t-21.5 -72.5
q0 -47 35 -80.5t86 -33.5q36 0 70 13.5t71 42.5q3 -34 9.5 -45t22.5 -11q15 0 33 8.5t50 32.5l8 6v40zM298 89q-35 -32 -64 -45t-61 -13q-38 0 -63.5 21t-25.5 53q0 56 59.5 90t154.5 34v-140z" />
    <glyph glyph-name="aacute" unicode="&#xe1;" horiz-adv-x="427" 
d="M385 677h-81l-104 -156h33zM421 78q-21 -17 -39 -28.5t-25 -11.5q-11 0 -11 23v280q0 34 -13 57t-34.5 36t-45 18.5t-47.5 5.5q-37 0 -70.5 -11t-74.5 -37v-49q41 31 71.5 44t65.5 13q100 0 100 -92v-57q-52 -2 -98.5 -12t-83.5 -29.5t-58.5 -50t-21.5 -72.5
q0 -47 35 -80.5t86 -33.5q36 0 70 13.5t71 42.5q3 -34 9.5 -45t22.5 -11q15 0 33 8.5t50 32.5l8 6v40zM298 89q-35 -32 -64 -45t-61 -13q-38 0 -63.5 21t-25.5 53q0 56 59.5 90t154.5 34v-140z" />
    <glyph glyph-name="acircumflex" unicode="&#xe2;" horiz-adv-x="427" 
d="M245 676h-61l-108 -164h38l100 109l99 -109h38zM421 78q-21 -17 -39 -28.5t-25 -11.5q-11 0 -11 23v280q0 34 -13 57t-34.5 36t-45 18.5t-47.5 5.5q-37 0 -70.5 -11t-74.5 -37v-49q41 31 71.5 44t65.5 13q100 0 100 -92v-57q-52 -2 -98.5 -12t-83.5 -29.5t-58.5 -50
t-21.5 -72.5q0 -47 35 -80.5t86 -33.5q36 0 70 13.5t71 42.5q3 -34 9.5 -45t22.5 -11q15 0 33 8.5t50 32.5l8 6v40zM298 89q-35 -32 -64 -45t-61 -13q-38 0 -63.5 21t-25.5 53q0 56 59.5 90t154.5 34v-140z" />
    <glyph glyph-name="atilde" unicode="&#xe3;" horiz-adv-x="427" 
d="M82 548q6 48 42 48q15 0 33.5 -6t48.5 -18l8 -3q29 -11 47 -16.5t34 -5.5q36 0 59 26q23 24 23 70h-30q-4 -26 -14.5 -37.5t-30.5 -11.5q-22 0 -73 21l-9 4q-27 12 -47.5 18t-40.5 6q-41 0 -61.5 -27.5t-20.5 -67.5h32zM421 78q-21 -17 -39 -28.5t-25 -11.5q-11 0 -11 23
v280q0 34 -13 57t-34.5 36t-45 18.5t-47.5 5.5q-37 0 -70.5 -11t-74.5 -37v-49q41 31 71.5 44t65.5 13q100 0 100 -92v-57q-52 -2 -98.5 -12t-83.5 -29.5t-58.5 -50t-21.5 -72.5q0 -47 35 -80.5t86 -33.5q36 0 70 13.5t71 42.5q3 -34 9.5 -45t22.5 -11q15 0 33 8.5t50 32.5
l8 6v40zM298 89q-35 -32 -64 -45t-61 -13q-38 0 -63.5 21t-25.5 53q0 56 59.5 90t154.5 34v-140z" />
    <glyph glyph-name="adieresis" unicode="&#xe4;" horiz-adv-x="427" 
d="M302 636q-18 0 -31 -13t-13 -31t13 -31t31 -13t31 13t13 31t-13 31t-31 13zM125 636q-18 0 -31 -13t-13 -31t13 -31t31 -13t31 13t13 31t-13 31t-31 13zM421 78q-21 -17 -39 -28.5t-25 -11.5q-11 0 -11 23v280q0 34 -13 57t-34.5 36t-45 18.5t-47.5 5.5q-37 0 -70.5 -11
t-74.5 -37v-49q41 31 71.5 44t65.5 13q100 0 100 -92v-57q-52 -2 -98.5 -12t-83.5 -29.5t-58.5 -50t-21.5 -72.5q0 -47 35 -80.5t86 -33.5q36 0 70 13.5t71 42.5q3 -34 9.5 -45t22.5 -11q15 0 33 8.5t50 32.5l8 6v40zM298 89q-35 -32 -64 -45t-61 -13q-38 0 -63.5 21
t-25.5 53q0 56 59.5 90t154.5 34v-140z" />
    <glyph glyph-name="aring" unicode="&#xe5;" horiz-adv-x="427" 
d="M214 652q25 0 42 -17t17 -42t-17 -42.5t-42 -17.5t-42.5 17.5t-17.5 42.5t17.5 42t42.5 17zM214 679q-36 0 -61.5 -25t-25.5 -61t25.5 -61.5t61.5 -25.5t61 25.5t25 61.5t-25 61t-61 25zM421 78q-21 -17 -39 -28.5t-25 -11.5q-11 0 -11 23v280q0 34 -13 57t-34.5 36
t-45 18.5t-47.5 5.5q-37 0 -70.5 -11t-74.5 -37v-49q41 31 71.5 44t65.5 13q100 0 100 -92v-57q-52 -2 -98.5 -12t-83.5 -29.5t-58.5 -50t-21.5 -72.5q0 -47 35 -80.5t86 -33.5q36 0 70 13.5t71 42.5q3 -34 9.5 -45t22.5 -11q15 0 33 8.5t50 32.5l8 6v40zM298 89
q-35 -32 -64 -45t-61 -13q-38 0 -63.5 21t-25.5 53q0 56 59.5 90t154.5 34v-140z" />
    <glyph glyph-name="ae" unicode="&#xe6;" horiz-adv-x="667" 
d="M630 243q0 94 -47 154.5t-126 60.5q-39 0 -67.5 -15.5t-57.5 -53.5q-22 37 -50 53t-72 16q-83 0 -156 -50v-50q41 29 77.5 42.5t71.5 13.5q45 0 67.5 -25.5t22.5 -73.5v-33q-138 -35 -191 -66q-34 -20 -51.5 -46.5t-17.5 -62.5q0 -50 34 -83t86 -33q39 0 77.5 16t91.5 54
q31 -37 65.5 -53.5t77.5 -16.5q83 0 165 51v55q-81 -59 -160 -59q-53 0 -91 36t-38 110v59h289zM341 282q2 57 34 93t81 36t84 -35t37 -94h-236zM293 89q-40 -30 -71 -44t-59 -14q-36 0 -60 21t-24 53q0 48 56 80.5t158 57.5v-154z" />
    <glyph glyph-name="ccedilla" unicode="&#xe7;" horiz-adv-x="417" 
d="M387 64q-37 -15 -63.5 -20.5t-57.5 -5.5q-79 0 -126 50t-47 135q0 84 47 136t122 52q28 0 53.5 -6t63.5 -22v53q-38 12 -64 17t-55 5q-48 0 -88 -17.5t-69 -49.5t-45 -76.5t-16 -96.5q0 -89 46.5 -149t125.5 -74l-17 -57q62 -2 62 -39q0 -21 -16.5 -30t-48.5 -9
q-5 0 -15 1q-12 1 -18 1l-5 -32q22 -5 44 -5q42 0 70 20t28 57q0 24 -15.5 41t-46.5 22l8 28q6 -2 18 -2q31 0 58.5 5t66.5 18v50z" />
    <glyph glyph-name="egrave" unicode="&#xe8;" horiz-adv-x="479" 
d="M150 677l152 -156h33l-104 156h-81zM445 241q0 54 -17 95.5t-45.5 68.5t-64 40t-72.5 13q-44 0 -82 -17t-65.5 -47.5t-43 -72.5t-15.5 -91q0 -51 16.5 -95t46.5 -76.5t71.5 -50t89.5 -17.5q95 0 173 60v54q-43 -35 -82.5 -51t-84.5 -16q-35 0 -68 13.5t-58.5 38
t-39.5 57.5t-14 71v11q1 7 1 12h354zM97 280q13 61 53 96t96 35q117 0 142 -131h-291z" />
    <glyph glyph-name="eacute" unicode="&#xe9;" horiz-adv-x="479" 
d="M411 677h-81l-104 -156h33zM445 241q0 54 -17 95.5t-45.5 68.5t-64 40t-72.5 13q-44 0 -82 -17t-65.5 -47.5t-43 -72.5t-15.5 -91q0 -51 16.5 -95t46.5 -76.5t71.5 -50t89.5 -17.5q95 0 173 60v54q-43 -35 -82.5 -51t-84.5 -16q-35 0 -68 13.5t-58.5 38t-39.5 57.5
t-14 71v11q1 7 1 12h354zM97 280q13 61 53 96t96 35q117 0 142 -131h-291z" />
    <glyph glyph-name="ecircumflex" unicode="&#xea;" horiz-adv-x="479" 
d="M271 676h-61l-108 -164h38l100 109l99 -109h38zM445 241q0 54 -17 95.5t-45.5 68.5t-64 40t-72.5 13q-44 0 -82 -17t-65.5 -47.5t-43 -72.5t-15.5 -91q0 -51 16.5 -95t46.5 -76.5t71.5 -50t89.5 -17.5q95 0 173 60v54q-43 -35 -82.5 -51t-84.5 -16q-35 0 -68 13.5
t-58.5 38t-39.5 57.5t-14 71v11q1 7 1 12h354zM97 280q13 61 53 96t96 35q117 0 142 -131h-291z" />
    <glyph glyph-name="edieresis" unicode="&#xeb;" horiz-adv-x="479" 
d="M328 636q-18 0 -31 -13t-13 -31t13 -31t31 -13t31 13t13 31t-13 31t-31 13zM151 636q-18 0 -31 -13t-13 -31t13 -31t31 -13t31 13t13 31t-13 31t-31 13zM445 241q0 54 -17 95.5t-45.5 68.5t-64 40t-72.5 13q-44 0 -82 -17t-65.5 -47.5t-43 -72.5t-15.5 -91
q0 -51 16.5 -95t46.5 -76.5t71.5 -50t89.5 -17.5q95 0 173 60v54q-43 -35 -82.5 -51t-84.5 -16q-35 0 -68 13.5t-58.5 38t-39.5 57.5t-14 71v11q1 7 1 12h354zM97 280q13 61 53 96t96 35q117 0 142 -131h-291z" />
    <glyph glyph-name="igrave" unicode="&#xec;" horiz-adv-x="188" 
d="M-35 677l152 -156h33l-104 156h-81zM118 449h-48v-449h48v449z" />
    <glyph glyph-name="iacute" unicode="&#xed;" horiz-adv-x="188" 
d="M266 677h-81l-104 -156h33zM118 449h-48v-449h48v449z" />
    <glyph glyph-name="icircumflex" unicode="&#xee;" horiz-adv-x="188" 
d="M126 676h-61l-108 -164h38l100 109l99 -109h38zM118 449h-48v-449h48v449z" />
    <glyph glyph-name="idieresis" unicode="&#xef;" horiz-adv-x="188" 
d="M183 636q-18 0 -31 -13t-13 -31t13 -31t31 -13t31 13t13 31t-13 31t-31 13zM6 636q-18 0 -31 -13t-13 -31t13 -31t31 -13t31 13t13 31t-13 31t-31 13zM118 449h-48v-449h48v449z" />
    <glyph glyph-name="eth" unicode="&#xf0;" horiz-adv-x="559" 
d="M473 227q0 -88 -52 -142t-139 -54q-42 0 -78.5 14t-63.5 40t-41.5 61t-14.5 75q0 41 15 77t41.5 63t62.5 42t77 15q86 0 139.5 -53t53.5 -138zM483 649l-15 33l-133 -61q-53 37 -118 61l-19 -36q53 -21 90 -47l-125 -58l15 -33l143 67q53 -42 89 -94t52 -103l-2 -2
q-37 44 -79.5 63t-99.5 19q-51 0 -95.5 -17.5t-77.5 -50t-51.5 -76t-18.5 -93.5q0 -48 18 -90t50.5 -73.5t76 -49t93.5 -17.5q113 0 180.5 70.5t67.5 188.5q0 106 -41 194.5t-116 151.5z" />
    <glyph glyph-name="ntilde" unicode="&#xf1;" horiz-adv-x="490" 
d="M114 548q6 48 42 48q15 0 33.5 -6t48.5 -18l8 -3q29 -11 47 -16.5t34 -5.5q36 0 59 26q23 24 23 70h-30q-4 -26 -14.5 -37.5t-30.5 -11.5q-22 0 -73 21l-9 4q-27 12 -47.5 18t-40.5 6q-41 0 -61.5 -27.5t-20.5 -67.5h32zM110 449h-48v-449h48v315q31 50 65 73t82 23
q59 0 90.5 -39.5t31.5 -115.5v-256h48v274q0 88 -46 136t-121 48q-49 0 -83 -20t-65 -67h-2v78z" />
    <glyph glyph-name="ograve" unicode="&#xf2;" horiz-adv-x="542" 
d="M182 677l152 -156h33l-104 156h-81zM499 224q0 50 -17 92.5t-48 74.5t-72.5 49.5t-90.5 17.5q-48 0 -90 -17.5t-73.5 -49.5t-48.5 -75t-17 -92t17 -92t48 -74.5t73.5 -49t90.5 -17.5q49 0 90.5 17.5t72.5 49t48 74.5t17 92zM448 224q0 -40 -13 -74t-37.5 -59t-56.5 -39
t-70 -14q-76 0 -127 53q-24 25 -37.5 59.5t-13.5 73.5q0 40 13.5 74.5t37.5 59.5q51 53 127 53q37 0 70 -14t57 -39.5t37 -59.5t13 -74z" />
    <glyph glyph-name="oacute" unicode="&#xf3;" horiz-adv-x="542" 
d="M443 677h-81l-104 -156h33zM499 224q0 50 -17 92.5t-48 74.5t-72.5 49.5t-90.5 17.5q-48 0 -90 -17.5t-73.5 -49.5t-48.5 -75t-17 -92t17 -92t48 -74.5t73.5 -49t90.5 -17.5q49 0 90.5 17.5t72.5 49t48 74.5t17 92zM448 224q0 -40 -13 -74t-37.5 -59t-56.5 -39t-70 -14
q-76 0 -127 53q-24 25 -37.5 59.5t-13.5 73.5q0 40 13.5 74.5t37.5 59.5q51 53 127 53q37 0 70 -14t57 -39.5t37 -59.5t13 -74z" />
    <glyph glyph-name="ocircumflex" unicode="&#xf4;" horiz-adv-x="542" 
d="M303 676h-61l-108 -164h38l100 109l99 -109h38zM499 224q0 50 -17 92.5t-48 74.5t-72.5 49.5t-90.5 17.5q-48 0 -90 -17.5t-73.5 -49.5t-48.5 -75t-17 -92t17 -92t48 -74.5t73.5 -49t90.5 -17.5q49 0 90.5 17.5t72.5 49t48 74.5t17 92zM448 224q0 -40 -13 -74t-37.5 -59
t-56.5 -39t-70 -14q-76 0 -127 53q-24 25 -37.5 59.5t-13.5 73.5q0 40 13.5 74.5t37.5 59.5q51 53 127 53q37 0 70 -14t57 -39.5t37 -59.5t13 -74z" />
    <glyph glyph-name="otilde" unicode="&#xf5;" horiz-adv-x="542" 
d="M140 548q6 48 42 48q15 0 33.5 -6t48.5 -18l8 -3q29 -11 47 -16.5t34 -5.5q36 0 59 26q23 24 23 70h-30q-4 -26 -14.5 -37.5t-30.5 -11.5q-22 0 -73 21l-9 4q-27 12 -47.5 18t-40.5 6q-41 0 -61.5 -27.5t-20.5 -67.5h32zM499 224q0 50 -17 92.5t-48 74.5t-72.5 49.5
t-90.5 17.5q-48 0 -90 -17.5t-73.5 -49.5t-48.5 -75t-17 -92t17 -92t48 -74.5t73.5 -49t90.5 -17.5q49 0 90.5 17.5t72.5 49t48 74.5t17 92zM448 224q0 -40 -13 -74t-37.5 -59t-56.5 -39t-70 -14q-76 0 -127 53q-24 25 -37.5 59.5t-13.5 73.5q0 40 13.5 74.5t37.5 59.5
q51 53 127 53q37 0 70 -14t57 -39.5t37 -59.5t13 -74z" />
    <glyph glyph-name="odieresis" unicode="&#xf6;" horiz-adv-x="542" 
d="M360 636q-18 0 -31 -13t-13 -31t13 -31t31 -13t31 13t13 31t-13 31t-31 13zM183 636q-18 0 -31 -13t-13 -31t13 -31t31 -13t31 13t13 31t-13 31t-31 13zM499 224q0 50 -17 92.5t-48 74.5t-72.5 49.5t-90.5 17.5q-48 0 -90 -17.5t-73.5 -49.5t-48.5 -75t-17 -92t17 -92
t48 -74.5t73.5 -49t90.5 -17.5q49 0 90.5 17.5t72.5 49t48 74.5t17 92zM448 224q0 -40 -13 -74t-37.5 -59t-56.5 -39t-70 -14q-76 0 -127 53q-24 25 -37.5 59.5t-13.5 73.5q0 40 13.5 74.5t37.5 59.5q51 53 127 53q37 0 70 -14t57 -39.5t37 -59.5t13 -74z" />
    <glyph glyph-name="divide" unicode="&#xf7;" horiz-adv-x="660" 
d="M68 373v-44h524v44h-524zM330 478q17 0 28 11t11 28t-11 28t-28 11t-28 -11t-11 -28t11 -28t28 -11zM330 146q17 0 28 11t11 28t-11 28t-28 11t-28 -11t-11 -28t11 -28t28 -11z" />
    <glyph glyph-name="oslash" unicode="&#xf8;" horiz-adv-x="542" 
d="M133 103q-19 26 -29.5 54.5t-10.5 66.5q0 40 13.5 74.5t37.5 59.5q51 53 127 53q60 0 104 -34zM132 36q28 -21 62.5 -33t76.5 -12q49 0 90.5 17.5t72.5 49t48 74.5t17 92q0 94 -61 163l54 62l-31 25l-53 -60q-28 21 -63.5 32.5t-73.5 11.5q-48 0 -90 -17.5t-73.5 -49.5
t-48.5 -75t-17 -92q0 -95 58 -158l-58 -66l33 -30zM404 348q21 -22 32.5 -54.5t11.5 -69.5q0 -40 -13 -74t-37.5 -59t-56.5 -39t-70 -14q-34 0 -56 8.5t-50 26.5z" />
    <glyph glyph-name="ugrave" unicode="&#xf9;" horiz-adv-x="490" 
d="M156 677l152 -156h33l-104 156h-81zM379 0h48v449h-48v-315q-32 -50 -64 -73t-82 -23q-53 0 -88 34.5t-35 99.5v277h-48v-278q0 -48 14.5 -83t39 -56t53.5 -31t60 -10q51 0 83.5 19t64.5 64h2v-74z" />
    <glyph glyph-name="uacute" unicode="&#xfa;" horiz-adv-x="490" 
d="M417 677h-81l-104 -156h33zM379 0h48v449h-48v-315q-32 -50 -64 -73t-82 -23q-53 0 -88 34.5t-35 99.5v277h-48v-278q0 -48 14.5 -83t39 -56t53.5 -31t60 -10q51 0 83.5 19t64.5 64h2v-74z" />
    <glyph glyph-name="ucircumflex" unicode="&#xfb;" horiz-adv-x="490" 
d="M277 676h-61l-108 -164h38l100 109l99 -109h38zM379 0h48v449h-48v-315q-32 -50 -64 -73t-82 -23q-53 0 -88 34.5t-35 99.5v277h-48v-278q0 -48 14.5 -83t39 -56t53.5 -31t60 -10q51 0 83.5 19t64.5 64h2v-74z" />
    <glyph glyph-name="udieresis" unicode="&#xfc;" horiz-adv-x="490" 
d="M334 636q-18 0 -31 -13t-13 -31t13 -31t31 -13t31 13t13 31t-13 31t-31 13zM157 636q-18 0 -31 -13t-13 -31t13 -31t31 -13t31 13t13 31t-13 31t-31 13zM379 0h48v449h-48v-315q-32 -50 -64 -73t-82 -23q-53 0 -88 34.5t-35 99.5v277h-48v-278q0 -48 14.5 -83t39 -56
t53.5 -31t60 -10q51 0 83.5 19t64.5 64h2v-74z" />
    <glyph glyph-name="yacute" unicode="&#xfd;" horiz-adv-x="417" 
d="M380 677h-81l-104 -156h33zM423 449h-49l-155 -314l-163 314h-50l189 -362l-157 -317h49z" />
    <glyph glyph-name="thorn" unicode="&#xfe;" horiz-adv-x="510" 
d="M111 682h-48v-912h48v255q38 -18 68.5 -26t64.5 -8q46 0 87 18t72 50t48 75t17 92q0 50 -16.5 92.5t-46.5 74t-71 48.5t-88 17q-36 0 -66.5 -7.5t-68.5 -26.5v258zM111 378q35 19 61.5 26t56.5 7q81 0 133.5 -53t52.5 -136t-49.5 -133.5t-130.5 -50.5q-34 0 -62 7.5
t-62 26.5v306z" />
    <glyph glyph-name="ydieresis" unicode="&#xff;" horiz-adv-x="417" 
d="M297 636q-18 0 -31 -13t-13 -31t13 -31t31 -13t31 13t13 31t-13 31t-31 13zM120 636q-18 0 -31 -13t-13 -31t13 -31t31 -13t31 13t13 31t-13 31t-31 13zM423 449h-49l-155 -314l-163 314h-50l189 -362l-157 -317h49z" />
    <glyph glyph-name="OE" unicode="&#x152;" horiz-adv-x="896" 
d="M851 682h-445q-89 0 -158 -29t-115 -78t-69 -110t-23 -125q0 -61 22 -121t67.5 -110t115.5 -79.5t162 -29.5h450v44h-329v276h315v44h-315v274h322v44zM476 638v-594h-57q-79 0 -140.5 25t-101.5 67.5t-59.5 95.5t-19.5 108q0 53 18.5 105.5t57 96.5t100 70t143.5 26h59z
" />
    <glyph glyph-name="oe" unicode="&#x153;" horiz-adv-x="833" 
d="M793 242q0 99 -53.5 157.5t-131.5 58.5q-46 0 -89 -25.5t-65 -69.5q-37 49 -82.5 72t-104.5 23q-49 0 -91 -17t-72 -48t-46.5 -74.5t-16.5 -94.5q0 -54 17 -97.5t47.5 -73.5t70.5 -46t86 -16q58 0 104 25t88 80q25 -54 64.5 -79.5t98.5 -25.5q92 0 166 59v55
q-39 -34 -77.5 -50.5t-82.5 -16.5q-66 0 -104 49t-38 155h312zM483 280q1 59 38.5 95t87.5 36q53 0 88.5 -34.5t39.5 -96.5h-254zM430 233q0 -88 -45 -141.5t-120 -53.5t-124 53t-49 135q0 83 48.5 134t127.5 51q76 0 119 -47.5t43 -130.5z" />
    <glyph glyph-name="Scaron" unicode="&#x160;" horiz-adv-x="469" 
d="M266 730l106 164h-38l-99 -109l-100 109h-38l108 -164h61zM400 648q-79 43 -158 43q-40 0 -75.5 -14t-63 -39t-42.5 -58t-15 -70q0 -42 14 -71.5t38 -49.5t50 -32t70 -29q37 -14 62 -25.5t45.5 -28t33 -41t12.5 -57.5q0 -58 -41.5 -97t-102.5 -39q-40 0 -77.5 16
t-94.5 57v-62q90 -60 175 -60q41 0 77 14t63.5 40t42.5 60.5t15 72.5q0 45 -15 77.5t-40 53.5t-52.5 34t-71.5 30q-37 13 -60 23.5t-43 26t-31.5 37.5t-11.5 52q0 56 41.5 93t102.5 37q35 0 68 -11t85 -41v58z" />
    <glyph glyph-name="scaron" unicode="&#x161;" horiz-adv-x="354" 
d="M209 512l106 164h-38l-99 -109l-100 109h-38l108 -164h61zM309 420q-35 20 -63 29t-57 9q-61 0 -103 -35.5t-42 -87.5q0 -27 11 -47.5t28.5 -35t37.5 -24t52 -21.5q53 -21 78.5 -39.5t25.5 -51.5q0 -34 -27 -56t-68 -22q-33 0 -65 9.5t-76 31.5v-47q67 -41 135 -41
q62 0 104.5 36t42.5 88q0 31 -11 53t-29.5 36.5t-39 24t-52.5 22.5q-52 19 -76.5 36.5t-24.5 50.5q0 32 28 54t68 22q30 0 57.5 -10.5t65.5 -35.5v52z" />
    <glyph glyph-name="Ydieresis" unicode="&#x178;" horiz-adv-x="583" 
d="M380 854q-18 0 -31 -13t-13 -31t13 -31t31 -13t31 13t13 31t-13 31t-31 13zM203 854q-18 0 -31 -13t-13 -31t13 -31t31 -13t31 13t13 31t-13 31t-31 13zM583 682h-64l-227 -270l-228 270h-64l265 -316v-366h53v366z" />
    <glyph glyph-name="florin" unicode="&#x192;" horiz-adv-x="556" 
d="M359 521l16 68q11 49 27 68t52 19q35 0 75 -10l10 48q-38 10 -55 13t-34 3q-58 0 -88.5 -31t-40.5 -74l-24 -104h-82l-9 -47h82l-120 -558q-9 -41 -27 -57t-52 -16q-15 0 -30.5 2.5t-40.5 8.5l-11 -49q29 -9 47.5 -12t39.5 -3q59 0 89.5 28.5t45.5 98.5l121 557h107
l11 47h-109z" />
    <glyph glyph-name="circumflex" unicode="&#x2c6;" horiz-adv-x="333" 
d="M198 676h-61l-108 -164h38l100 109l99 -109h38z" />
    <glyph glyph-name="tilde" unicode="&#x2dc;" horiz-adv-x="333" 
d="M35 548q6 48 42 48q15 0 33.5 -6t48.5 -18l8 -3q29 -11 47 -16.5t34 -5.5q36 0 59 26q23 24 23 70h-30q-4 -26 -14.5 -37.5t-30.5 -11.5q-22 0 -73 21l-9 4q-27 12 -47.5 18t-40.5 6q-41 0 -61.5 -27.5t-20.5 -67.5h32z" />
    <glyph glyph-name="endash" unicode="&#x2013;" 
d="M-6 266v-32h512v32h-512z" />
    <glyph glyph-name="emdash" unicode="&#x2014;" horiz-adv-x="1000" 
d="M-6 266v-32h1012v32h-1012z" />
    <glyph glyph-name="quoteleft" unicode="&#x2018;" horiz-adv-x="177" 
d="M56 470h65v97h-21q0 27 4 45t17 37v35q-31 -23 -48 -60.5t-17 -77.5v-76z" />
    <glyph glyph-name="quoteright" unicode="&#x2019;" horiz-adv-x="177" 
d="M121 684h-65v-97h21q0 -27 -4 -45t-17 -37v-35q32 23 48.5 60.5t16.5 77.5v76z" />
    <glyph glyph-name="quotesinglbase" unicode="&#x201a;" horiz-adv-x="177" 
d="M121 97h-65v-97h21q0 -27 -4 -45t-17 -37v-35q32 23 48.5 60.5t16.5 77.5v76z" />
    <glyph glyph-name="quotedblleft" unicode="&#x201c;" horiz-adv-x="396" 
d="M275 470h65v97h-21q0 27 4 45t17 37v35q-31 -23 -48 -60.5t-17 -77.5v-76zM56 470h65v97h-21q0 27 4 45t17 37v35q-31 -23 -48 -60.5t-17 -77.5v-76z" />
    <glyph glyph-name="quotedblright" unicode="&#x201d;" horiz-adv-x="396" 
d="M340 684h-65v-97h21q0 -27 -4 -45t-17 -37v-35q32 23 48.5 60.5t16.5 77.5v76zM121 684h-65v-97h21q0 -27 -4 -45t-17 -37v-35q32 23 48.5 60.5t16.5 77.5v76z" />
    <glyph glyph-name="quotedblbase" unicode="&#x201e;" horiz-adv-x="396" 
d="M338 97h-65v-97h21q0 -27 -4 -45t-17 -37v-35q32 23 48.5 60.5t16.5 77.5v76zM123 97h-65v-97h21q0 -27 -4 -45t-17 -37v-35q32 23 48.5 60.5t16.5 77.5v76z" />
    <glyph glyph-name="dagger" unicode="&#x2020;" horiz-adv-x="490" 
d="M277 691h-65l19 -283l-206 13v-55l206 13l-19 -609h65l-18 609l205 -13v55l-205 -13z" />
    <glyph glyph-name="daggerdbl" unicode="&#x2021;" horiz-adv-x="479" 
d="M213 231l14 -181l-201 14v-55l201 14l-19 -253h63l-18 253l200 -14v55l-200 -14l13 181l-13 180l200 -14v55l-200 -14l18 253h-63l19 -253l-201 14v-55l201 14z" />
    <glyph glyph-name="bullet" unicode="&#x2022;" 
d="M250 463q-50 0 -86 -36t-36 -86t36 -86t86 -36t86 36t36 86t-36 86t-86 36z" />
    <glyph glyph-name="ellipsis" unicode="&#x2026;" horiz-adv-x="1000" 
d="M865 97h-65v-97h65v97zM532 97h-65v-97h65v97zM199 97h-65v-97h65v97z" />
    <glyph glyph-name="perthousand" unicode="&#x2030;" horiz-adv-x="1052" 
d="M1036 149q0 33 -12.5 62.5t-35 51.5t-52 34.5t-61.5 12.5q-33 0 -62 -12.5t-51.5 -34.5t-35 -51.5t-12.5 -62.5t12.5 -62t35 -51.5t51.5 -35t62 -12.5q32 0 61.5 12.5t52 34.5t35 51.5t12.5 62.5zM993 149q0 -49 -34.5 -83.5t-83.5 -34.5t-83.5 34.5t-34.5 83.5
q0 48 34.5 83t83.5 35t83.5 -34.5t34.5 -83.5zM665 149q0 33 -12.5 62.5t-35 51.5t-52 34.5t-61.5 12.5q-33 0 -62 -12.5t-51.5 -34.5t-35 -51.5t-12.5 -62.5t12.5 -62t35 -51.5t51.5 -35t62 -12.5q32 0 61.5 12.5t52 34.5t35 51.5t12.5 62.5zM622 149q0 -49 -34.5 -83.5
t-83.5 -34.5t-83.5 34.5t-34.5 83.5q0 48 34.5 83t83.5 35t83.5 -34.5t34.5 -83.5zM338 530q0 33 -12.5 62.5t-35 51.5t-52 34.5t-61.5 12.5q-33 0 -62 -12.5t-51.5 -34.5t-35 -51.5t-12.5 -62.5t12.5 -62t35 -51.5t51.5 -35t62 -12.5q32 0 61.5 12.5t52 34.5t35 51.5
t12.5 62.5zM295 530q0 -49 -34.5 -83.5t-83.5 -34.5t-83.5 34.5t-34.5 83.5q0 48 34.5 83t83.5 35t83.5 -34.5t34.5 -83.5zM631 688h-49l-550 -699h50z" />
    <glyph glyph-name="guilsinglleft" unicode="&#x2039;" horiz-adv-x="281" 
d="M77 231l188 224h-60l-189 -224l189 -224h60z" />
    <glyph glyph-name="guilsinglright" unicode="&#x203a;" horiz-adv-x="281" 
d="M204 231l-188 -224h60l189 224l-189 224h-60z" />
    <glyph glyph-name="trademark" unicode="&#x2122;" horiz-adv-x="940" 
d="M100 714v-41h130v-356h51v356h129v41h-310zM456 714v-397h45v356h2l110 -356h34l117 356h2v-356h45v397h-76l-103 -317h-2l-99 317h-75z" />
    </font>
</defs>
</svg>
